<?xml version="1.0" encoding="UTF-8" standalone="no"?>
<!-- Created with Inkscape (http://www.inkscape.org/) -->

<svg
   xmlns:dc="http://purl.org/dc/elements/1.1/"
   xmlns:cc="http://creativecommons.org/ns#"
   xmlns:rdf="http://www.w3.org/1999/02/22-rdf-syntax-ns#"
   xmlns:svg="http://www.w3.org/2000/svg"
   xmlns="http://www.w3.org/2000/svg"
   xmlns:xlink="http://www.w3.org/1999/xlink"
   xmlns:sodipodi="http://sodipodi.sourceforge.net/DTD/sodipodi-0.dtd"
   xmlns:inkscape="http://www.inkscape.org/namespaces/inkscape"
   width="174"
   height="174"
   viewBox="0 0 46.0375 46.037498"
   version="1.1"
   id="svg7333"
   inkscape:version="0.92.0 r15299"
   sodipodi:docname="avatar_cli_1.svg">
  <defs
     id="defs7327">
    <clipPath
       id="SVGID_2_">
      <use
         height="100%"
         width="100%"
         y="0"
         x="0"
         xlink:href="#SVGID_1_"
         style="overflow:visible"
         id="use7610" />
    </clipPath>
    <clipPath
       id="clipPath7782">
      <use
         height="100%"
         width="100%"
         y="0"
         x="0"
         xlink:href="#SVGID_1_"
         style="overflow:visible"
         id="use7780" />
    </clipPath>
    <radialGradient
       id="SVGID_3_"
       cx="75.133301"
       cy="77.205597"
       r="2.615"
       gradientUnits="userSpaceOnUse">
      <stop
         offset="0"
         style="stop-color:#2E4962"
         id="stop7641" />
      <stop
         offset="0.0185"
         style="stop-color:#314E68"
         id="stop7643" />
      <stop
         offset="0.1059"
         style="stop-color:#3C627D"
         id="stop7645" />
      <stop
         offset="0.209"
         style="stop-color:#44728E"
         id="stop7647" />
      <stop
         offset="0.3362"
         style="stop-color:#4A7D9A"
         id="stop7649" />
      <stop
         offset="0.514"
         style="stop-color:#4D83A1"
         id="stop7651" />
      <stop
         offset="1"
         style="stop-color:#4E85A3"
         id="stop7653" />
    </radialGradient>
    <radialGradient
       id="SVGID_4_"
       cx="456.70871"
       cy="77.205597"
       r="2.6150999"
       gradientTransform="matrix(-1,0,0,1,557.3896,0)"
       gradientUnits="userSpaceOnUse">
      <stop
         offset="0"
         style="stop-color:#2E4962"
         id="stop7670" />
      <stop
         offset="0.0185"
         style="stop-color:#314E68"
         id="stop7672" />
      <stop
         offset="0.1059"
         style="stop-color:#3C627D"
         id="stop7674" />
      <stop
         offset="0.209"
         style="stop-color:#44728E"
         id="stop7676" />
      <stop
         offset="0.3362"
         style="stop-color:#4A7D9A"
         id="stop7678" />
      <stop
         offset="0.514"
         style="stop-color:#4D83A1"
         id="stop7680" />
      <stop
         offset="1"
         style="stop-color:#4E85A3"
         id="stop7682" />
    </radialGradient>
    <ellipse
       id="SVGID_1_"
       cx="87"
       cy="87"
       rx="86.957001"
       ry="87" />
  </defs>
  <sodipodi:namedview
     id="base"
     pagecolor="#ffffff"
     bordercolor="#666666"
     borderopacity="1.0"
     inkscape:pageopacity="0.0"
     inkscape:pageshadow="2"
     inkscape:zoom="0.98994949"
     inkscape:cx="206.84245"
     inkscape:cy="104.32502"
     inkscape:document-units="mm"
     inkscape:current-layer="layer1"
     showgrid="false"
     units="px"
     width="174mm"
     inkscape:window-width="732"
     inkscape:window-height="453"
     inkscape:window-x="314"
     inkscape:window-y="214"
     inkscape:window-maximized="0" />
  <metadata
     id="metadata7330">
    <rdf:RDF>
      <cc:Work
         rdf:about="">
        <dc:format>image/svg+xml</dc:format>
        <dc:type
           rdf:resource="http://purl.org/dc/dcmitype/StillImage" />
        <dc:title></dc:title>
      </cc:Work>
    </rdf:RDF>
  </metadata>
  <g
     inkscape:label="Layer 1"
     inkscape:groupmode="layer"
     id="layer1"
     transform="translate(0,-250.96255)">
    <g
       transform="matrix(0.26458333,0,0,0.26458333,0.14850418,251.03541)"
       id="g7729"
       style="fill:#0a907e;fill-opacity:1">
      <defs
         id="defs7608">
        <ellipse
           id="ellipse7991"
           cx="87"
           cy="87"
           rx="86.957001"
           ry="87" />
      </defs>
      <clipPath
         id="clipPath7804">
        <use
           height="100%"
           width="100%"
           y="0"
           x="0"
           xlink:href="#SVGID_1_"
           style="overflow:visible"
           id="use7802" />
      </clipPath>
      <ellipse
         style="fill:#0a907e;fill-opacity:1"
         cx="87"
         cy="87"
         rx="86.957001"
         ry="87"
         clip-path="url(#SVGID_2_)"
         id="ellipse7613" />
      <g
         clip-path="url(#SVGID_2_)"
         id="g7727"
         style="fill:#0a907e;fill-opacity:1">
        <g
           id="g7637"
           style="fill:#0a907e;fill-opacity:1">
          <g
             id="g7635"
             style="fill:#0a907e;fill-opacity:1" />
        </g>
        <g
           id="g7715"
           style="fill:#0a907e;fill-opacity:1">
          <g
             id="g7666"
             style="fill:#0a907e;fill-opacity:1">
            <g
               id="g7664"
               style="fill:#0a907e;fill-opacity:1">
              <g
                 id="g7660"
                 style="fill:#0a907e;fill-opacity:1">
                <radialGradient
                   id="radialGradient7834"
                   cx="75.133301"
                   cy="77.205597"
                   r="2.615"
                   gradientUnits="userSpaceOnUse">
                  <stop
                     offset="0"
                     style="stop-color:#2E4962"
                     id="stop7820" />
                  <stop
                     offset="0.0185"
                     style="stop-color:#314E68"
                     id="stop7822" />
                  <stop
                     offset="0.1059"
                     style="stop-color:#3C627D"
                     id="stop7824" />
                  <stop
                     offset="0.209"
                     style="stop-color:#44728E"
                     id="stop7826" />
                  <stop
                     offset="0.3362"
                     style="stop-color:#4A7D9A"
                     id="stop7828" />
                  <stop
                     offset="0.514"
                     style="stop-color:#4D83A1"
                     id="stop7830" />
                  <stop
                     offset="1"
                     style="stop-color:#4E85A3"
                     id="stop7832" />
                </radialGradient>
              </g>
            </g>
          </g>
          <g
             id="g7695"
             style="fill:#0a907e;fill-opacity:1">
            <g
               id="g7693"
               style="fill:#0a907e;fill-opacity:1">
              <g
                 id="g7689"
                 style="fill:#0a907e;fill-opacity:1">
                <radialGradient
                   id="radialGradient7857"
                   cx="456.70871"
                   cy="77.205597"
                   r="2.6150999"
                   gradientTransform="matrix(-1,0,0,1,557.3896,0)"
                   gradientUnits="userSpaceOnUse">
                  <stop
                     offset="0"
                     style="stop-color:#2E4962"
                     id="stop7843" />
                  <stop
                     offset="0.0185"
                     style="stop-color:#314E68"
                     id="stop7845" />
                  <stop
                     offset="0.1059"
                     style="stop-color:#3C627D"
                     id="stop7847" />
                  <stop
                     offset="0.209"
                     style="stop-color:#44728E"
                     id="stop7849" />
                  <stop
                     offset="0.3362"
                     style="stop-color:#4A7D9A"
                     id="stop7851" />
                  <stop
                     offset="0.514"
                     style="stop-color:#4D83A1"
                     id="stop7853" />
                  <stop
                     offset="1"
                     style="stop-color:#4E85A3"
                     id="stop7855" />
                </radialGradient>
              </g>
            </g>
          </g>
          <g
             id="g7701"
             style="fill:#0a907e;fill-opacity:1">
            <g
               id="g7699"
               style="fill:#0a907e;fill-opacity:1" />
          </g>
          <g
             id="g7707"
             style="fill:#0a907e;fill-opacity:1">
            <g
               id="g7705"
               style="fill:#0a907e;fill-opacity:1" />
          </g>
          <g
             id="g7713"
             style="fill:#0a907e;fill-opacity:1">
            <g
               id="g7711"
               style="fill:#0a907e;fill-opacity:1" />
          </g>
        </g>
        <g
           id="g7719"
           style="fill:#0a907e;fill-opacity:1" />
        <g
           id="g7725"
           style="fill:#0a907e;fill-opacity:1" />
      </g>
    </g>
    <g
       id="g5518"
       transform="matrix(0.35277777,0,0,-0.35277777,17.165268,275.65577)">
      <path
         d="m 0,0 c 0,-3.464 -2.687,-6.273 -6,-6.273 -3.313,0 -6,2.809 -6,6.273 0,3.464 2.687,6.273 6,6.273 3.313,0 6,-2.809 6,-6.273"
         style="fill:#f9b28f;fill-opacity:1;fill-rule:nonzero;stroke:none"
         id="path5520"
         inkscape:connector-curvature="0" />
    </g>
    <g
       id="g5522"
       transform="matrix(0.35277777,0,0,-0.35277777,33.216662,275.65577)">
      <path
         d="m 0,0 c 0,-3.464 -2.687,-6.273 -6,-6.273 -3.313,0 -6,2.809 -6,6.273 0,3.464 2.687,6.273 6,6.273 3.313,0 6,-2.809 6,-6.273"
         style="fill:#f9b28f;fill-opacity:1;fill-rule:nonzero;stroke:none"
         id="path5524"
         inkscape:connector-curvature="0" />
    </g>
    <g
       id="g5526"
       transform="matrix(0.35277777,0,0,-0.35277777,20.412952,286.59996)">
      <path
         d="m 0,0 c 0,0 -13.083,-1 -14.25,-7.833 -1.052,-6.158 -2.604,-16.334 -2.604,-16.334 0,0 25.146,-11.5 48.375,0 L 29.167,-7.67 c 0,0 -2.75,7.337 -13.167,7.753 z"
         style="fill:#feb01b;fill-opacity:1;fill-rule:nonzero;stroke:none"
         id="path5528"
         inkscape:connector-curvature="0" />
    </g>
    <g
       id="g5530"
       transform="matrix(0.35277777,0,0,-0.35277777,24.352232,282.86633)">
      <path
         d="m 0,0 c -0.354,0 1.417,-7.131 0.5,-7.899 -0.917,-0.768 6.208,-0.383 9.104,-0.367 2.896,0.016 7.23,-1.567 8.813,0.933 C 20,-4.833 16.667,0.083 16.5,3.5 16.333,6.917 16.167,10.997 16.167,10.997 16.167,10.997 3.25,0 0,0"
         style="fill:#db4d28;fill-opacity:1;fill-rule:nonzero;stroke:none"
         id="path5532"
         inkscape:connector-curvature="0" />
    </g>
    <g
       id="g5534"
       transform="matrix(0.35277777,0,0,-0.35277777,20.412952,286.59996)">
      <path
         d="m 0,0 c 0,0 2.083,-2.583 7.75,-2.583 5.667,0 8.25,2.666 8.25,2.666 0,0 -2.013,1.901 -3.314,5.03 C 9.415,3.661 5.753,2.85 2.076,2.685 1.553,1.676 0.876,0.73 0,0"
         style="fill:#fccfb6;fill-opacity:1;fill-rule:nonzero;stroke:none"
         id="path5536"
         inkscape:connector-curvature="0" />
    </g>
    <g
       id="g5538"
       transform="matrix(0.35277777,0,0,-0.35277777,21.761722,283.32695)">
      <path
         d="M 0,0 C 0,0 -0.182,-3.575 -1.747,-6.593 1.93,-6.428 5.592,-5.617 8.862,-4.165 8.341,-2.911 7.931,-1.466 7.814,0.142 7.814,0.142 3.558,-0.569 0,0"
         style="fill:#f9b28f;fill-opacity:1;fill-rule:nonzero;stroke:none"
         id="path5540"
         inkscape:connector-curvature="0" />
    </g>
    <g
       id="g5542"
       transform="matrix(0.35277777,0,0,-0.35277777,30.643502,275.06165)">
      <path
         d="m 0,0 c 0,-13.117 -9.682,-23.75 -21.625,-23.75 -11.943,0 -21.625,10.633 -21.625,23.75 0,13.117 5.863,27.117 21.625,27.126 C -3.875,27.138 0,13.117 0,0"
         style="fill:#fcceb6;fill-opacity:1;fill-rule:nonzero;stroke:none"
         id="path5544"
         inkscape:connector-curvature="0" />
    </g>
    <g
       id="g5546"
       transform="matrix(0.35277777,0,0,-0.35277777,21.069782,277.97309)">
      <path
         d="m 0,0 c -0.588,-2.115 -3.597,-3.125 -6.721,-2.257 -3.124,0.869 -5.181,3.287 -4.593,5.402 0.588,2.114 3.597,3.125 6.722,2.256 C -1.469,4.533 0.588,2.115 0,0"
         style="fill:#f9b28f;fill-opacity:1;fill-rule:nonzero;stroke:none"
         id="path5548"
         inkscape:connector-curvature="0" />
    </g>
    <g
       id="g5550"
       transform="matrix(0.35277777,0,0,-0.35277777,29.121302,277.05411)">
      <path
         d="m 0,0 c 0.386,-2.161 -1.889,-4.375 -5.081,-4.945 -3.192,-0.57 -6.093,0.719 -6.479,2.88 -0.386,2.16 1.889,4.374 5.081,4.944 C -3.287,3.45 -0.386,2.161 0,0"
         style="fill:#f9b28f;fill-opacity:1;fill-rule:nonzero;stroke:none"
         id="path5552"
         inkscape:connector-curvature="0" />
    </g>
    <g
       id="g5554"
       transform="matrix(0.35277777,0,0,-0.35277777,13.561188,275.72449)">
      <path
         d="M 0,0 C 0.014,-0.002 0.027,-0.004 0.041,-0.006 0.13,-0.02 0.195,0.004 0.249,0.079 0.758,0.782 1.296,1.211 2.15,1.443 3.448,1.795 4.222,0.813 4.82,-0.152 4.976,-0.402 5.42,-0.317 5.401,0.005 5.321,1.347 3.956,2.214 2.718,2.303 2.015,2.354 1.261,2.005 0.715,1.598 0.569,1.488 -0.142,0.322 0,0.344 -0.171,0.318 -0.171,0.026 0,0"
         style="fill:#000000;fill-opacity:1;fill-rule:nonzero;stroke:none"
         id="path5556"
         inkscape:connector-curvature="0" />
    </g>
    <g
       id="g5558"
       transform="matrix(0.35277777,0,0,-0.35277777,14.297578,276.27157)">
      <path
         d="m 0,0 c 0.42,0.188 0.828,0.454 1.216,0.703 0.486,0.31 1.068,0.212 1.619,0.21 0.508,-0.002 0.508,0.789 0,0.787 C 2.252,1.698 1.687,1.739 1.142,1.509 0.826,1.375 0.521,1.116 0.257,0.899 0.022,0.707 -0.001,0.451 -0.196,0.254 -0.333,0.115 -0.161,-0.072 0,0"
         style="fill:#000000;fill-opacity:1;fill-rule:nonzero;stroke:none"
         id="path5560"
         inkscape:connector-curvature="0" />
    </g>
    <g
       id="g5562"
       transform="matrix(0.35277777,0,0,-0.35277777,32.438932,275.60324)">
      <path
         d="m 0,0 c 0.142,-0.021 -0.568,1.145 -0.715,1.254 -0.604,0.451 -1.257,0.656 -2.003,0.705 -1.231,0.082 -2.61,-1.082 -2.683,-2.297 -0.019,-0.323 0.425,-0.408 0.581,-0.158 0.519,0.838 1.031,1.572 2.102,1.661 1.045,0.086 1.903,-0.647 2.469,-1.43 0.054,-0.074 0.119,-0.098 0.208,-0.085 0.014,0.002 0.027,0.004 0.041,0.006 0.171,0.026 0.171,0.318 0,0.344"
         style="fill:#000000;fill-opacity:1;fill-rule:nonzero;stroke:none"
         id="path5564"
         inkscape:connector-curvature="0" />
    </g>
    <g
       id="g5566"
       transform="matrix(0.35277777,0,0,-0.35277777,31.771612,276.18201)">
      <path
         d="m 0,0 c -0.155,0.156 -0.186,0.393 -0.347,0.559 -0.236,0.242 -0.561,0.431 -0.842,0.613 -0.543,0.353 -1.225,0.272 -1.842,0.274 -0.508,0.002 -0.508,-0.789 0,-0.787 0.479,0.001 1.032,0.096 1.47,-0.123 0.47,-0.234 0.886,-0.576 1.365,-0.79 C -0.035,-0.326 0.137,-0.139 0,0"
         style="fill:#000000;fill-opacity:1;fill-rule:nonzero;stroke:none"
         id="path5568"
         inkscape:connector-curvature="0" />
    </g>
    <g
       id="g5570"
       transform="matrix(0.35277777,0,0,-0.35277777,15.604298,277.7936)">
      <path
         d="m 0,0 c -2.057,-0.531 -7.159,0.406 -7.575,6.06 0.544,6.69 7.201,6.273 7.201,6.273 6.079,5.296 5.755,17.204 5.755,17.204 l -0.25,2.396 c 0,0 -1.813,9.188 -3.5,8.625 -1.688,-0.562 0.937,-8.5 0.937,-8.5 0,0 -4.812,5.75 -5.937,4.375 -1.125,-1.375 5.687,-5.562 5.687,-5.562 -11.687,1.5 -15.625,-8.375 -14.625,-11.5 1,-3.125 5.625,-6.75 0.875,-10.75 -4.75,-4 -5.187,-9.313 -3.312,-11.75 1.875,-2.438 5.187,-3.75 4.562,-7.688 -0.625,-3.937 -2.562,-8.375 -0.562,-10.437 0.773,-0.798 5.173,-1.447 7.521,-1.392 1.284,0.031 1.648,4.767 1.648,4.767 1.059,0.091 0.241,-4.491 1.299,-4.399 0.88,0.075 2.259,-0.024 3.591,-0.139 C 5.662,-15.512 0.979,-7.475 0,0"
         style="fill:#e95f33;fill-opacity:1;fill-rule:nonzero;stroke:none"
         id="path5572"
         inkscape:connector-curvature="0" />
    </g>
    <g
       id="g5574"
       transform="matrix(0.35277777,0,0,-0.35277777,20.937312,283.12319)">
      <path
         d="m 0,0 c -10.909,3.982 -14.612,15.29 -14.612,15.29 -0.133,-0.074 -0.31,-0.132 -0.505,-0.183 0.978,-7.475 5.662,-15.512 3.315,-22.417 1.265,-0.108 2.488,-0.232 3.191,-0.232 5.812,0 8.911,-0.238 9.201,0.145 1.632,2.158 1.747,6.819 1.747,6.819 z"
         style="fill:#db4d28;fill-opacity:1;fill-rule:nonzero;stroke:none"
         id="path5576"
         inkscape:connector-curvature="0" />
    </g>
    <g
       id="g5578"
       transform="matrix(0.35277777,0,0,-0.35277777,14.834648,277.11493)">
      <path
         d="m 0,0 c -1.678,0.047 -2.43,-1.722 -2.813,-3.137 -0.48,-1.772 0.028,-3.876 1.226,-5.26 2.135,-2.467 5.715,-3.514 8.245,-0.978 0.453,0.454 -0.252,1.159 -0.703,0.703 -1.801,-1.824 -4.271,-1.394 -6.139,0.098 -2.297,1.834 -3.091,6.916 0.231,8.224 C 0.229,-0.278 0.211,-0.006 0,0"
         style="fill:#feb01b;fill-opacity:1;fill-rule:nonzero;stroke:none"
         id="path5580"
         inkscape:connector-curvature="0" />
    </g>
    <g
       id="g5582"
       transform="matrix(0.35277777,0,0,-0.35277777,23.041212,287.51118)">
      <path
         d="m 0,0 c 0.083,-8.898 0.167,-17.796 0.25,-26.695 0.003,-0.387 0.604,-0.387 0.6,0 C 0.767,-17.796 0.683,-8.898 0.6,0 0.596,0.387 -0.004,0.387 0,0"
         style="fill:#000000;fill-opacity:1;fill-rule:nonzero;stroke:none"
         id="path5584"
         inkscape:connector-curvature="0" />
    </g>
    <g
       id="g5586"
       transform="matrix(0.35277777,0,0,-0.35277777,17.011428,295.98011)">
      <path
         d="m 0,0 c 0.147,2.752 0.295,5.504 0.442,8.256 0.021,0.387 -0.579,0.385 -0.6,0 C -0.305,5.504 -0.453,2.752 -0.6,0 -0.621,-0.387 -0.021,-0.385 0,0"
         style="fill:#000000;fill-opacity:1;fill-rule:nonzero;stroke:none"
         id="path5588"
         inkscape:connector-curvature="0" />
    </g>
    <g
       id="g5590"
       transform="matrix(0.35277777,0,0,-0.35277777,29.346092,295.98131)">
      <path
         d="m 0,0 c -0.099,2.754 -0.197,5.508 -0.296,8.263 -0.014,0.385 -0.614,0.387 -0.6,0 C -0.797,5.508 -0.699,2.754 -0.6,0 -0.586,-0.386 0.014,-0.387 0,0"
         style="fill:#000000;fill-opacity:1;fill-rule:nonzero;stroke:none"
         id="path5592"
         inkscape:connector-curvature="0" />
    </g>
    <g
       id="g5594"
       transform="matrix(0.35277777,0,0,-0.35277777,24.205472,289.98355)">
      <path
         d="m 0,0 c 0,-0.554 -0.361,-1.003 -0.807,-1.003 -0.446,0 -0.807,0.449 -0.807,1.003 0,0.554 0.361,1.003 0.807,1.003 C -0.361,1.003 0,0.554 0,0"
         style="fill:#e95f33;fill-opacity:1;fill-rule:nonzero;stroke:none"
         id="path5596"
         inkscape:connector-curvature="0" />
    </g>
    <g
       id="g5598"
       transform="matrix(0.35277777,0,0,-0.35277777,24.335542,295.62751)">
      <path
         d="m 0,0 c 0,-0.554 -0.361,-1.003 -0.807,-1.003 -0.446,0 -0.807,0.449 -0.807,1.003 0,0.554 0.361,1.003 0.807,1.003 C -0.361,1.003 0,0.554 0,0"
         style="fill:#e95f33;fill-opacity:1;fill-rule:nonzero;stroke:none"
         id="path5600"
         inkscape:connector-curvature="0" />
    </g>
    <g
       id="g5602"
       transform="matrix(0.35277777,0,0,-0.35277777,24.205472,292.86247)">
      <path
         d="m 0,0 c 0,-0.554 -0.361,-1.003 -0.807,-1.003 -0.446,0 -0.807,0.449 -0.807,1.003 0,0.554 0.361,1.003 0.807,1.003 C -0.361,1.003 0,0.554 0,0"
         style="fill:#e95f33;fill-opacity:1;fill-rule:nonzero;stroke:none"
         id="path5604"
         inkscape:connector-curvature="0" />
    </g>
    <g
       id="g5606"
       transform="matrix(0.35277777,0,0,-0.35277777,21.072712,285.78243)">
      <path
         d="m 0,0 c 0,0 -3.466,-0.552 -4.372,-1.859 -0.905,-1.308 -0.414,-9.897 1.919,-11.053 2.333,-1.155 7.916,8.019 7.916,8.019 0,0 4.667,-6.107 7.667,-7.016 3,-0.908 4.332,9.807 3.165,10.857 -1.167,1.049 -4.212,1.419 -4.212,1.419 l 2.047,-2.601 c 0,0 -3.315,-2.166 -8.667,-2.166 -4.776,0 -6.905,1.668 -6.905,1.668 z"
         style="fill:#2c2945;fill-opacity:1;fill-rule:nonzero;stroke:none"
         id="path5608"
         inkscape:connector-curvature="0" />
    </g>
    <g
       id="g5610"
       transform="matrix(0.35277777,0,0,-0.35277777,22.030782,277.39655)">
      <path
         d="m 0,0 c 0.434,-1.366 1.385,-2.532 2.78,-3.014 1.334,-0.462 3.351,-0.542 4.232,0.764 0.302,0.449 -0.274,0.924 -0.7,0.7 C 5.22,-2.128 4.31,-2.362 3.059,-2.006 1.938,-1.687 1.036,-0.791 0.488,0.206 0.343,0.47 -0.092,0.29 0,0"
         style="fill:#000000;fill-opacity:1;fill-rule:nonzero;stroke:none"
         id="path5612"
         inkscape:connector-curvature="0" />
    </g>
    <g
       id="g5614"
       transform="matrix(0.35277777,0,0,-0.35277777,23.372642,277.09806)">
      <path
         d="M 0,0 C 1.093,0.327 4.211,2.914 2.472,4.193 1.68,4.775 1.881,4.703 0.904,4.684 -1.234,4.641 -0.787,6.922 -0.803,8.125 c -0.039,2.795 0.006,5.599 0.378,8.373 0.065,0.488 -0.788,0.603 -0.862,0.116 C -1.656,14.162 -1.689,11.7 -1.701,9.223 -1.71,7.457 -2.011,5.379 -1.132,3.779 -1.057,3.643 -0.901,3.558 -0.747,3.558 1.167,3.56 1.314,1.506 -0.195,0.463 -0.422,0.306 -0.289,-0.086 0,0"
         style="fill:#000000;fill-opacity:1;fill-rule:nonzero;stroke:none"
         id="path5616"
         inkscape:connector-curvature="0" />
    </g>
    <g
       id="g5618"
       transform="matrix(0.35277777,0,0,-0.35277777,17.235188,273.21387)">
      <path
         d="M 0,0 C 1.304,0.353 2.261,1.468 3.513,1.99 5.333,2.75 6.877,3.709 8.944,3.722 9.329,3.724 9.555,4.328 9.155,4.499 7.747,5.102 5.835,4.359 4.514,3.736 2.693,2.877 1.278,1.672 -0.203,0.349 -0.363,0.206 -0.194,-0.053 0,0"
         style="fill:#000000;fill-opacity:1;fill-rule:nonzero;stroke:none"
         id="path5620"
         inkscape:connector-curvature="0" />
    </g>
    <g
       id="g5622"
       transform="matrix(0.35277777,0,0,-0.35277777,25.682252,271.43414)">
      <path
         d="m 0,0 c 1.443,-0.095 3.302,-1.506 4.479,-2.284 1.237,-0.817 2.045,-2.005 3.175,-2.905 0.355,-0.284 0.835,0.06 0.63,0.485 -0.65,1.341 -2.136,2.386 -3.353,3.192 C 3.729,-0.716 1.509,0.662 0,0.562 -0.362,0.539 -0.362,0.024 0,0"
         style="fill:#000000;fill-opacity:1;fill-rule:nonzero;stroke:none"
         id="path5624"
         inkscape:connector-curvature="0" />
    </g>
    <g
       id="g5626"
       transform="matrix(0.35277777,0,0,-0.35277777,19.949612,274.65098)">
      <path
         d="m 0,0 c 0,-1.153 -0.728,-2.087 -1.625,-2.087 -0.897,0 -1.625,0.934 -1.625,2.087 0,1.153 0.728,2.087 1.625,2.087 C -0.728,2.087 0,1.153 0,0"
         style="fill:#000000;fill-opacity:1;fill-rule:nonzero;stroke:none"
         id="path5628"
         inkscape:connector-curvature="0" />
    </g>
    <g
       id="g5630"
       transform="matrix(0.35277777,0,0,-0.35277777,27.534822,274.65098)">
      <path
         d="m 0,0 c 0,-1.153 -0.728,-2.087 -1.625,-2.087 -0.897,0 -1.625,0.934 -1.625,2.087 0,1.153 0.728,2.087 1.625,2.087 C -0.728,2.087 0,1.153 0,0"
         style="fill:#000000;fill-opacity:1;fill-rule:nonzero;stroke:none"
         id="path5632"
         inkscape:connector-curvature="0" />
    </g>
    <g
       id="g5634"
       transform="matrix(0.35277777,0,0,-0.35277777,18.803078,271.95297)">
      <path
         d="m 0,0 c -5.031,0 -9.125,-4.093 -9.125,-9.125 0,-5.031 4.094,-9.125 9.125,-9.125 5.032,0 9.125,4.094 9.125,9.125 C 9.125,-4.093 5.032,0 0,0 m 0,-19.25 c -5.583,0 -10.125,4.542 -10.125,10.125 C -10.125,-3.542 -5.583,1 0,1 5.583,1 10.125,-3.542 10.125,-9.125 10.125,-14.708 5.583,-19.25 0,-19.25"
         style="fill:#2c2945;fill-opacity:1;fill-rule:nonzero;stroke:none"
         id="path5636"
         inkscape:connector-curvature="0" />
    </g>
    <g
       id="g5638"
       transform="matrix(0.35277777,0,0,-0.35277777,27.577552,271.95297)">
      <path
         d="m 0,0 c -5.031,0 -9.125,-4.093 -9.125,-9.125 0,-5.031 4.094,-9.125 9.125,-9.125 5.032,0 9.125,4.094 9.125,9.125 C 9.125,-4.093 5.032,0 0,0 m 0,-19.25 c -5.583,0 -10.125,4.542 -10.125,10.125 C -10.125,-3.542 -5.583,1 0,1 5.583,1 10.125,-3.542 10.125,-9.125 10.125,-14.708 5.583,-19.25 0,-19.25"
         style="fill:#2c2945;fill-opacity:1;fill-rule:nonzero;stroke:none"
         id="path5640"
         inkscape:connector-curvature="0" />
    </g>
    <g
       id="g5642"
       transform="matrix(0.35277777,0,0,-0.35277777,22.254022,275.27836)">
      <path
         d="m 0,0 -0.574,0.601 c 0.083,0.078 2.06,1.921 6.069,0.408 L 5.202,0.232 C 1.713,1.549 0.067,0.064 0,0"
         style="fill:#2c2945;fill-opacity:1;fill-rule:nonzero;stroke:none"
         id="path5644"
         inkscape:connector-curvature="0" />
    </g>
    <g
       id="g5646"
       transform="matrix(0.35277777,0,0,-0.35277777,22.121552,264.31604)">
      <path
         d="m 0,0 c -5.031,-0.441 -9.94,-2.354 -13.307,-3.963 -0.125,-0.276 -0.247,-0.554 -0.355,-0.842 0,0 0.154,-1.925 0.528,-5.727 0,0 7.541,7.199 19.004,3.824 3.207,-0.76 5.128,-2.314 5.294,-4.605 C 12.854,-5.888 7.942,0.696 0,0"
         style="fill:#db4d28;fill-opacity:1;fill-rule:nonzero;stroke:none"
         id="path5648"
         inkscape:connector-curvature="0" />
    </g>
    <g
       id="g5650"
       transform="matrix(0.35277777,0,0,-0.35277777,36.552532,278.98701)">
      <path
         d="m 0,0 c 2.187,3.921 5.882,9.232 0.465,16.149 -5.416,6.916 -7.59,2.948 -8.298,11.937 -0.603,7.637 -5.626,15.959 -15.043,18.542 -9.179,2.518 -26.524,1.598 -31.337,-9.004 3.366,1.608 8.275,3.522 13.306,3.963 7.943,0.696 12.855,-5.888 11.164,-11.313 0.053,-0.725 -0.066,-1.524 -0.382,-2.396 -1.333,-3.681 1.172,-8.485 8.669,-14.158 6.667,-5.045 3.711,-8.236 1.294,-15.403 -2.416,-7.166 -2.751,-9.909 2.027,-13.845 1.8,-1.482 1.385,-4.787 1.385,-4.787 0,0 4.844,0.314 7.062,0 0.887,-0.125 -0.82,3.932 0.232,3.848 0.788,-0.061 1.519,-3.836 2.346,-3.848 2.609,-0.039 5.962,-0.273 8.129,0.338 2.256,0.638 0.773,7.689 -0.144,10.106 C -0.042,-7.455 -1.332,-2.388 0,0"
         style="fill:#e95f33;fill-opacity:1;fill-rule:nonzero;stroke:none"
         id="path5652"
         inkscape:connector-curvature="0" />
    </g>
    <g
       id="g5654"
       transform="matrix(0.35277777,0,0,-0.35277777,23.901112,296.92855)">
      <path
         d="m 0,0 c 0.147,2.752 0.295,5.504 0.442,8.256 0.021,0.387 -0.579,0.385 -0.6,0 C -0.305,5.504 -0.453,2.752 -0.6,0 -0.621,-0.387 -0.021,-0.385 0,0"
         style="fill:#000000;fill-opacity:1;fill-rule:nonzero;stroke:none"
         id="path5656"
         inkscape:connector-curvature="0" />
    </g>
    <g
       id="g5658"
       transform="matrix(0.35277777,0,0,-0.35277777,24.031352,296.92855)">
      <path
         d="m 0,0 c -0.099,2.754 -0.197,5.508 -0.296,8.263 -0.014,0.385 -0.614,0.387 -0.6,0 C -0.797,5.508 -0.699,2.754 -0.6,0 -0.586,-0.386 0.014,-0.387 0,0"
         style="fill:#000000;fill-opacity:1;fill-rule:nonzero;stroke:none"
         id="path5660"
         inkscape:connector-curvature="0" />
    </g>
  </g>
</svg>
