<?xml version="1.0" encoding="UTF-8" standalone="no"?>
<!-- Created with Inkscape (http://www.inkscape.org/) -->

<svg
   xmlns:dc="http://purl.org/dc/elements/1.1/"
   xmlns:cc="http://creativecommons.org/ns#"
   xmlns:rdf="http://www.w3.org/1999/02/22-rdf-syntax-ns#"
   xmlns:svg="http://www.w3.org/2000/svg"
   xmlns="http://www.w3.org/2000/svg"
   xmlns:xlink="http://www.w3.org/1999/xlink"
   xmlns:sodipodi="http://sodipodi.sourceforge.net/DTD/sodipodi-0.dtd"
   xmlns:inkscape="http://www.inkscape.org/namespaces/inkscape"
   width="174"
   height="174"
   viewBox="0 0 46.037498 46.037498"
   version="1.1"
   id="svg14132"
   inkscape:version="0.92.0 r15299"
   sodipodi:docname="avatar_cli_2.svg">
  <defs
     id="defs14126">
    <clipPath
       id="SVGID_2_">
      <use
         xlink:href="#SVGID_1_"
         style="overflow:visible"
         id="use13941"
         x="0"
         y="0"
         width="100%"
         height="100%" />
    </clipPath>
    <clipPath
       id="SVGID_2_-3">
      <use
         height="100%"
         width="100%"
         y="0"
         x="0"
         xlink:href="#SVGID_1_"
         style="overflow:visible"
         id="use13941-5" />
    </clipPath>
    <clipPath
       id="clipPath14169">
      <use
         height="100%"
         width="100%"
         y="0"
         x="0"
         xlink:href="#SVGID_1_"
         style="overflow:visible"
         id="use14167" />
    </clipPath>
    <radialGradient
       id="SVGID_3_"
       cx="74.331596"
       cy="77.205597"
       r="2.615"
       gradientUnits="userSpaceOnUse">
      <stop
         offset="0"
         style="stop-color:#624A2E"
         id="stop13964" />
      <stop
         offset="0.036"
         style="stop-color:#6D5633"
         id="stop13966" />
      <stop
         offset="0.1218"
         style="stop-color:#816B3D"
         id="stop13968" />
      <stop
         offset="0.2231"
         style="stop-color:#907C45"
         id="stop13970" />
      <stop
         offset="0.348"
         style="stop-color:#9B884A"
         id="stop13972" />
      <stop
         offset="0.5227"
         style="stop-color:#A18F4D"
         id="stop13974" />
      <stop
         offset="1"
         style="stop-color:#A3914E"
         id="stop13976" />
    </radialGradient>
    <radialGradient
       id="SVGID_4_"
       cx="-471.41061"
       cy="77.205597"
       r="2.615"
       gradientTransform="matrix(-1,0,0,1,-371.5322,0)"
       gradientUnits="userSpaceOnUse">
      <stop
         offset="0"
         style="stop-color:#624A2E"
         id="stop13993" />
      <stop
         offset="0.036"
         style="stop-color:#6D5633"
         id="stop13995" />
      <stop
         offset="0.1218"
         style="stop-color:#816B3D"
         id="stop13997" />
      <stop
         offset="0.2231"
         style="stop-color:#907C45"
         id="stop13999" />
      <stop
         offset="0.348"
         style="stop-color:#9B884A"
         id="stop14001" />
      <stop
         offset="0.5227"
         style="stop-color:#A18F4D"
         id="stop14003" />
      <stop
         offset="1"
         style="stop-color:#A3914E"
         id="stop14005" />
    </radialGradient>
    <ellipse
       id="SVGID_1_"
       cx="87"
       cy="87"
       rx="86.956001"
       ry="87" />
    <clipPath
       id="SVGID_2_-9">
      <use
         xlink:href="#SVGID_1_"
         style="overflow:visible"
         id="use13941-4"
         x="0"
         y="0"
         width="100%"
         height="100%" />
    </clipPath>
  </defs>
  <sodipodi:namedview
     id="base"
     pagecolor="#ffffff"
     bordercolor="#666666"
     borderopacity="1.0"
     inkscape:pageopacity="0.0"
     inkscape:pageshadow="2"
     inkscape:zoom="0.98994949"
     inkscape:cx="106.34532"
     inkscape:cy="85.73892"
     inkscape:document-units="mm"
     inkscape:current-layer="layer1"
     showgrid="false"
     inkscape:window-width="550"
     inkscape:window-height="498"
     inkscape:window-x="421"
     inkscape:window-y="161"
     inkscape:window-maximized="0"
     units="px" />
  <metadata
     id="metadata14129">
    <rdf:RDF>
      <cc:Work
         rdf:about="">
        <dc:format>image/svg+xml</dc:format>
        <dc:type
           rdf:resource="http://purl.org/dc/dcmitype/StillImage" />
        <dc:title></dc:title>
      </cc:Work>
    </rdf:RDF>
  </metadata>
  <g
     inkscape:label="Layer 1"
     inkscape:groupmode="layer"
     id="layer1"
     transform="translate(0,-250.96252)">
    <ellipse
       style="fill:#8fc684"
       cx="87"
       cy="87"
       rx="86.956001"
       ry="87"
       clip-path="url(#SVGID_2_)"
       id="ellipse13944"
       transform="matrix(0.26458333,0,0,0.26458333,-0.13412246,251.36242)" />
    <g
       transform="matrix(0.35277777,0,0,-0.35277777,16.471961,296.25483)"
       id="g10344">
      <path
         inkscape:connector-curvature="0"
         id="path10346"
         style="fill:#000000;fill-opacity:1;fill-rule:nonzero;stroke:none"
         d="m 0,0 c 0.147,2.752 0.295,5.504 0.442,8.256 0.021,0.387 -0.579,0.385 -0.6,0 C -0.305,5.504 -0.453,2.752 -0.6,0 -0.621,-0.387 -0.021,-0.385 0,0" />
    </g>
    <g
       transform="matrix(0.35277777,0,0,-0.35277777,28.806625,296.25603)"
       id="g10348">
      <path
         inkscape:connector-curvature="0"
         id="path10350"
         style="fill:#000000;fill-opacity:1;fill-rule:nonzero;stroke:none"
         d="m 0,0 c -0.099,2.754 -0.197,5.508 -0.296,8.263 -0.014,0.385 -0.614,0.387 -0.6,0 C -0.797,5.508 -0.699,2.754 -0.6,0 -0.586,-0.386 0.014,-0.387 0,0" />
    </g>
    <g
       transform="matrix(0.35277777,0,0,-0.35277777,22.786648,288.52092)"
       id="g10352">
      <path
         inkscape:connector-curvature="0"
         id="path10354"
         style="fill:#2c2945;fill-opacity:1;fill-rule:nonzero;stroke:none"
         d="M 0,0 C 5.468,0 8.611,1.947 10.561,4.509 9.757,4.641 8.918,4.745 8,4.778 L -8,4.641 c 0,0 -1.079,-0.087 -2.641,-0.371 C -9.183,2.373 -6.142,0 0,0" />
    </g>
    <g
       transform="matrix(0.35277777,0,0,-0.35277777,22.691927,292.75478)"
       id="g10356">
      <path
         inkscape:connector-curvature="0"
         id="path10358"
         style="fill:#3793b5;fill-opacity:1;fill-rule:nonzero;stroke:none"
         d="m 0,0 c -10.742,0.022 -18.394,3.387 -22.426,5.884 -0.351,-2.184 -0.72,-4.554 -1.05,-6.692 3.743,-2.517 11.732,-6.406 23.281,-6.43 10.716,-0.022 18.669,4.231 22.978,7.266 L 21.838,6.493 C 17.337,3.558 9.83,-0.021 0,0" />
    </g>
    <g
       transform="matrix(0.35277777,0,0,-0.35277777,29.046232,288.01313)"
       id="g10360">
      <path
         inkscape:connector-curvature="0"
         id="path10362"
         style="fill:#3793b5;fill-opacity:1;fill-rule:nonzero;stroke:none"
         d="m 0,0 c -1.631,1.319 -3.965,2.542 -7.183,3.07 -1.949,-2.563 -5.093,-4.509 -10.561,-4.509 -6.142,0 -9.182,2.373 -10.641,4.27 -2.383,-0.434 -5.892,-1.329 -8.44,-3.082 3.463,-3.022 9.486,-6.393 18.813,-6.412 C -9.791,-6.68 -3.882,-3.359 0,0" />
    </g>
    <g
       transform="matrix(0.35277777,0,0,-0.35277777,14.410257,293.03986)"
       id="g10364">
      <path
         inkscape:connector-curvature="0"
         id="path10366"
         style="fill:#fad8b4;fill-opacity:1;fill-rule:nonzero;stroke:none"
         d="m 0,0 c -0.577,-3.748 -1.028,-6.772 -1.028,-6.772 0,0 25.184,-11.415 48.375,0.163 L 46.259,0.836 C 41.95,-2.199 33.996,-6.452 23.281,-6.43 11.732,-6.406 3.742,-2.517 0,0" />
    </g>
    <g
       transform="matrix(0.35277777,0,0,-0.35277777,30.395853,290.4643)"
       id="g10368">
      <path
         inkscape:connector-curvature="0"
         id="path10370"
         style="fill:#fad8b4;fill-opacity:1;fill-rule:nonzero;stroke:none"
         d="m 0,0 -0.376,2.578 c 0,0 -0.87,2.285 -3.45,4.37 -3.882,-3.359 -9.791,-6.679 -18.012,-6.662 -9.327,0.019 -15.35,3.389 -18.813,6.411 -1.603,-1.103 -2.827,-2.545 -3.141,-4.428 -0.149,-0.89 -0.309,-1.864 -0.472,-2.878 4.033,-2.496 11.684,-5.862 22.426,-5.884 C -12.008,-6.513 -4.5,-2.935 0,0" />
    </g>
    <g
       transform="matrix(0.35277777,0,0,-0.35277777,16.680064,275.95046)"
       id="g10372">
      <path
         inkscape:connector-curvature="0"
         id="path10374"
         style="fill:#f9b28f;fill-opacity:1;fill-rule:nonzero;stroke:none"
         d="M 0,0 C 0.012,-3.464 -2.666,-6.282 -5.979,-6.293 -9.292,-6.304 -11.988,-3.504 -12,-0.04 -12.012,3.424 -9.335,6.242 -6.021,6.253 -2.708,6.264 -0.012,3.464 0,0" />
    </g>
    <g
       transform="matrix(0.35277777,0,0,-0.35277777,32.731277,275.89638)"
       id="g10376">
      <path
         inkscape:connector-curvature="0"
         id="path10378"
         style="fill:#f9b28f;fill-opacity:1;fill-rule:nonzero;stroke:none"
         d="m 0,0 c 0.012,-3.464 -2.666,-6.282 -5.979,-6.293 -3.313,-0.011 -6.009,2.788 -6.021,6.252 -0.012,3.465 2.666,6.283 5.979,6.294 C -2.708,6.264 -0.012,3.464 0,0" />
    </g>
    <g
       transform="matrix(0.35277777,0,0,-0.35277777,19.964424,286.88364)"
       id="g10380">
      <path
         inkscape:connector-curvature="0"
         id="path10382"
         style="fill:#fcceb6;fill-opacity:1;fill-rule:nonzero;stroke:none"
         d="M 0,0 C 0,0 2.092,-2.576 7.759,-2.557 13.426,-2.538 16,0.137 16,0.137 c 0,0 -2.019,1.894 -3.332,5.019 C 9.403,3.692 5.744,2.87 2.067,2.691 1.548,1.682 0.874,0.733 0,0" />
    </g>
    <g
       transform="matrix(0.35277777,0,0,-0.35277777,21.302158,283.60616)"
       id="g10384">
      <path
         inkscape:connector-curvature="0"
         id="path10386"
         style="fill:#f9b28f;fill-opacity:1;fill-rule:nonzero;stroke:none"
         d="M 0,0 C 0,0 -0.169,-3.575 -1.725,-6.599 1.952,-6.421 5.611,-5.598 8.876,-4.134 8.351,-2.883 7.936,-1.439 7.814,0.168 7.814,0.168 3.321,-0.895 0,0" />
    </g>
    <g
       transform="matrix(0.35277777,0,0,-0.35277777,13.075981,276.03124)"
       id="g10388">
      <path
         inkscape:connector-curvature="0"
         id="path10390"
         style="fill:#000000;fill-opacity:1;fill-rule:nonzero;stroke:none"
         d="M 0,0 C 0.014,-0.002 0.027,-0.004 0.041,-0.006 0.13,-0.02 0.195,0.004 0.249,0.079 0.755,0.784 1.291,1.215 2.145,1.45 3.441,1.806 4.219,0.829 4.821,-0.135 4.976,-0.384 5.422,-0.301 5.401,0.022 5.316,1.363 3.951,2.228 2.712,2.313 2.008,2.361 1.256,2.01 0.711,1.601 0.566,1.492 -0.145,0.322 0,0.344 -0.171,0.318 -0.171,0.026 0,0" />
    </g>
    <g
       transform="matrix(0.35277777,0,0,-0.35277777,13.814275,276.57593)"
       id="g10392">
      <path
         inkscape:connector-curvature="0"
         id="path10394"
         style="fill:#000000;fill-opacity:1;fill-rule:nonzero;stroke:none"
         d="m 0,0 c 0.419,0.189 0.826,0.457 1.213,0.706 0.485,0.312 1.066,0.217 1.618,0.216 0.508,0 0.508,0.791 0,0.787 C 2.249,1.706 1.683,1.746 1.138,1.513 0.822,1.378 0.519,1.118 0.255,0.901 0.021,0.708 -0.002,0.451 -0.196,0.254 -0.332,0.115 -0.161,-0.073 0,0" />
    </g>
    <g
       transform="matrix(0.35277777,0,0,-0.35277777,31.953542,275.84642)"
       id="g10396">
      <path
         inkscape:connector-curvature="0"
         id="path10398"
         style="fill:#000000;fill-opacity:1;fill-rule:nonzero;stroke:none"
         d="m 0,0 c 0.146,-0.021 -0.574,1.144 -0.718,1.251 -0.606,0.449 -1.26,0.653 -2.006,0.7 -1.231,0.077 -2.608,-1.09 -2.676,-2.306 -0.018,-0.322 0.426,-0.41 0.581,-0.158 0.515,0.839 1.025,1.576 2.095,1.668 1.045,0.091 1.907,-0.639 2.475,-1.421 0.054,-0.073 0.119,-0.099 0.208,-0.084 0.014,0.002 0.027,0.004 0.041,0.006 0.169,0.028 0.172,0.32 0,0.344" />
    </g>
    <g
       transform="matrix(0.35277777,0,0,-0.35277777,31.288134,276.42762)"
       id="g10400">
      <path
         inkscape:connector-curvature="0"
         id="path10402"
         style="fill:#000000;fill-opacity:1;fill-rule:nonzero;stroke:none"
         d="m 0,0 c -0.155,0.156 -0.187,0.392 -0.349,0.558 -0.236,0.241 -0.562,0.428 -0.843,0.61 -0.545,0.352 -1.225,0.268 -1.843,0.268 -0.507,0.001 -0.507,-0.79 0,-0.787 0.479,0.003 1.033,0.1 1.471,-0.117 C -1.093,0.3 -0.676,-0.041 -0.196,-0.254 -0.036,-0.325 0.138,-0.139 0,0" />
    </g>
    <g
       transform="matrix(0.35277777,0,0,-0.35277777,16.471961,296.25483)"
       id="g10404">
      <path
         inkscape:connector-curvature="0"
         id="path10406"
         style="fill:#000000;fill-opacity:1;fill-rule:nonzero;stroke:none"
         d="m 0,0 c 0.147,2.752 0.295,5.504 0.442,8.256 0.021,0.387 -0.579,0.385 -0.6,0 C -0.305,5.504 -0.453,2.752 -0.6,0 -0.621,-0.387 -0.021,-0.385 0,0" />
    </g>
    <g
       transform="matrix(0.35277777,0,0,-0.35277777,28.806625,296.25603)"
       id="g10408">
      <path
         inkscape:connector-curvature="0"
         id="path10410"
         style="fill:#000000;fill-opacity:1;fill-rule:nonzero;stroke:none"
         d="m 0,0 c -0.099,2.754 -0.197,5.508 -0.296,8.263 -0.014,0.385 -0.614,0.387 -0.6,0 C -0.797,5.508 -0.699,2.754 -0.6,0 -0.586,-0.386 0.014,-0.387 0,0" />
    </g>
    <g
       transform="matrix(0.35277777,0,0,-0.35277777,17.652109,276.93799)"
       id="g10412">
      <path
         inkscape:connector-curvature="0"
         id="path10414"
         style="fill:#fcceb6;fill-opacity:1;fill-rule:nonzero;stroke:none"
         d="m 0,0 c 3.583,-4.917 6.167,-6.833 9.833,-5.333 3.667,1.5 4.92,1.715 6.75,1.839 2.25,0.154 3.722,-1.673 5.972,-2.173 2.25,-0.5 4.028,4.492 7.028,7.58 2.75,2.829 3.873,3.544 5.855,3.267 C 35.282,18.13 31.222,31.736 13.729,31.666 -1.643,31.604 -7.551,18.271 -7.795,5.445 -5.771,4.784 -2.376,3.26 0,0" />
    </g>
    <g
       transform="matrix(0.35277777,0,0,-0.35277777,29.869615,277.61514)"
       id="g10416">
      <path
         inkscape:connector-curvature="0"
         id="path10418"
         style="fill:#feb01b;fill-opacity:1;fill-rule:nonzero;stroke:none"
         d="M 0,0 C 0.533,2.077 0.82,4.267 0.812,6.532 0.812,6.721 0.808,6.91 0.805,7.1 -1.177,7.376 -2.299,6.662 -5.049,3.832 c -3,-3.087 -4.779,-8.08 -7.029,-7.58 -2.25,0.5 -3.721,2.327 -5.971,2.174 -1.83,-0.125 -3.083,-0.34 -6.75,-1.84 -3.666,-1.5 -6.25,0.416 -9.833,5.333 -2.376,3.261 -5.771,4.785 -7.795,5.445 -0.006,-0.326 -0.011,-0.653 -0.011,-0.978 0.033,-9.608 5.258,-17.859 12.744,-21.574 C -17.936,-15.498 -7.169,-9.132 0,0" />
    </g>
    <g
       transform="matrix(0.35277777,0,0,-0.35277777,19.394266,282.97313)"
       id="g10420">
      <path
         inkscape:connector-curvature="0"
         id="path10422"
         style="fill:#f79c0b;fill-opacity:1;fill-rule:nonzero;stroke:none"
         d="M 0,0 C 2.734,-1.357 5.767,-2.114 8.961,-2.103 18.842,-2.07 27.144,5.239 29.694,15.188 22.524,6.056 11.758,-0.31 0,0" />
    </g>
    <g
       transform="matrix(0.35277777,0,0,-0.35277777,19.752583,275.44662)"
       id="g10424">
      <path
         inkscape:connector-curvature="0"
         id="path10426"
         style="fill:#000000;fill-opacity:1;fill-rule:nonzero;stroke:none"
         d="m 0,0 c 0,-0.922 -0.582,-1.67 -1.3,-1.67 -0.718,0 -1.3,0.748 -1.3,1.67 0,0.922 0.582,1.67 1.3,1.67 C -0.582,1.67 0,0.922 0,0" />
    </g>
    <g
       transform="matrix(0.35277777,0,0,-0.35277777,26.989006,275.44662)"
       id="g10428">
      <path
         inkscape:connector-curvature="0"
         id="path10430"
         style="fill:#000000;fill-opacity:1;fill-rule:nonzero;stroke:none"
         d="m 0,0 c 0,-0.922 -0.582,-1.67 -1.3,-1.67 -0.718,0 -1.3,0.748 -1.3,1.67 0,0.922 0.582,1.67 1.3,1.67 C -0.582,1.67 0,0.922 0,0" />
    </g>
    <g
       transform="matrix(0.35277777,0,0,-0.35277777,16.738979,269.98287)"
       id="g10432">
      <path
         inkscape:connector-curvature="0"
         id="path10434"
         style="fill:#feb01b;fill-opacity:1;fill-rule:nonzero;stroke:none"
         d="M 0,0 C 0.062,0.412 0.108,0.731 0.136,0.936 0.046,0.942 -0.046,0.944 -0.136,0.95 -0.115,0.743 -0.075,0.397 0,0" />
    </g>
    <g
       transform="matrix(0.35277777,0,0,-0.35277777,16.681969,269.64731)"
       id="g10436">
      <path
         inkscape:connector-curvature="0"
         id="path10438"
         style="fill:#feb01b;fill-opacity:1;fill-rule:nonzero;stroke:none"
         d="M 0,0 C 0.008,0 0.017,-0.001 0.025,-0.001 0.001,0.237 0,0.291 0,0" />
    </g>
    <g
       transform="matrix(0.35277777,0,0,-0.35277777,30.732792,266.5605)"
       id="g10440">
      <path
         inkscape:connector-curvature="0"
         id="path10442"
         style="fill:#feb01b;fill-opacity:1;fill-rule:nonzero;stroke:none"
         d="m 0,0 c 3.496,4.333 -4.496,9.25 -19.829,8.667 -15.334,-0.584 -23,-6.417 -23,-6.417 0,0 -0.25,5.167 -2.045,4.417 -1.795,-0.75 -0.253,-6.917 -0.253,-6.917 0,0 -2.869,4.333 -3.995,2.5 -1.126,-1.834 3.288,-5.167 3.288,-5.167 -5.089,-4.75 -2.751,-18.147 -2.751,-18.147 1.66,0.103 3.711,-2.908 3.711,-2.908 2.904,0.755 4.674,10.772 5.207,14.271 -0.075,0.397 -0.115,0.743 -0.137,0.95 -0.008,0 -0.017,10e-4 -0.025,10e-4 0,0.291 10e-4,0.237 0.025,-10e-4 0.091,-0.006 0.182,-0.008 0.273,-0.014 0.023,0.166 0.035,0.265 0.035,0.265 0.148,-0.102 0.315,-0.196 0.481,-0.291 13.502,-0.782 27.782,2.102 39.049,8.758 C 0.012,-0.011 0,0 0,0" />
    </g>
    <g
       transform="matrix(0.35277777,0,0,-0.35277777,16.969095,269.6618)"
       id="g10444">
      <path
         inkscape:connector-curvature="0"
         id="path10446"
         style="fill:#f79c0b;fill-opacity:1;fill-rule:nonzero;stroke:none"
         d="m 0,0 c 7.161,-4.089 31.255,-1.63 31.353,-2.125 0.7,-3.55 4.338,-13.386 6.021,-13.32 0.52,2.68 2.918,3.79 2.918,3.79 C 40.98,-6.018 38.68,2.041 38.68,2.041 41.883,5.764 39.377,8.437 39.049,8.758 27.782,2.102 13.502,-0.782 0,0" />
    </g>
    <g
       transform="matrix(0.35277777,0,0,-0.35277777,22.554309,279.12461)"
       id="g10448">
      <path
         inkscape:connector-curvature="0"
         id="path10450"
         style="fill:#000000;fill-opacity:1;fill-rule:nonzero;stroke:none"
         d="m 0,0 c -0.24,-0.734 0.352,-1.871 0.906,-2.336 0.53,-0.446 1.836,-0.696 2.442,-0.325 0.205,0.126 0.208,0.427 0,0.551 -0.53,0.318 -1.252,0.041 -1.836,0.313 C 0.88,-1.501 0.682,-0.519 0.355,0.046 0.268,0.198 0.051,0.156 0,0" />
    </g>
    <g
       transform="matrix(0.35277777,0,0,-0.35277777,23.746979,277.56293)"
       id="g10452">
      <path
         inkscape:connector-curvature="0"
         id="path10454"
         style="fill:#000000;fill-opacity:1;fill-rule:nonzero;stroke:none"
         d="m 0,0 c 1.408,0.958 3.822,4.054 1.583,5.365 -1.27,0.745 -4.171,-3.574 -4.518,0.428 -0.126,1.455 -0.047,2.936 -0.048,4.395 0,1.379 -0.228,4.274 0.485,5.42 0.17,0.273 -0.168,0.616 -0.442,0.443 -0.791,-0.499 -0.68,-2.912 -0.74,-3.663 -0.181,-2.255 -0.55,-5.521 0.104,-7.709 0.246,-0.821 0.455,-1.816 1.497,-1.816 0.507,0 1.115,0.527 1.465,0.778 C 0.178,4.58 0.876,4.292 1.481,2.778 1.094,1.809 0.512,0.997 -0.264,0.342 -0.44,0.172 -0.207,-0.142 0,0" />
    </g>
    <g
       transform="matrix(0.35277777,0,0,-0.35277777,16.535038,273.74457)"
       id="g10456">
      <path
         inkscape:connector-curvature="0"
         id="path10458"
         style="fill:#feb01b;fill-opacity:1;fill-rule:nonzero;stroke:none"
         d="m 0,0 c 0,0 4.475,5.697 7.821,6.531 1.658,0.615 1.877,-0.542 1.658,-1.01 0,0 0.846,-1 -0.358,-1.813 0,0 -0.298,-0.937 -1.861,-1.219 C 5.698,2.208 -0.823,-1.552 0,0" />
    </g>
    <g
       transform="matrix(0.35277777,0,0,-0.35277777,28.69931,273.74457)"
       id="g10460">
      <path
         inkscape:connector-curvature="0"
         id="path10462"
         style="fill:#feb01b;fill-opacity:1;fill-rule:nonzero;stroke:none"
         d="m 0,0 c 0,0 -4.475,5.697 -7.821,6.531 -1.658,0.615 -1.877,-0.542 -1.658,-1.01 0,0 -0.846,-1 0.358,-1.813 0,0 0.298,-0.937 1.861,-1.219 C -5.698,2.208 0.823,-1.552 0,0" />
    </g>
  </g>
</svg>
