<?xml version="1.0" encoding="UTF-8" standalone="no"?>
<!-- Created with Inkscape (http://www.inkscape.org/) -->

<svg
   xmlns:dc="http://purl.org/dc/elements/1.1/"
   xmlns:cc="http://creativecommons.org/ns#"
   xmlns:rdf="http://www.w3.org/1999/02/22-rdf-syntax-ns#"
   xmlns:svg="http://www.w3.org/2000/svg"
   xmlns="http://www.w3.org/2000/svg"
   xmlns:xlink="http://www.w3.org/1999/xlink"
   xmlns:sodipodi="http://sodipodi.sourceforge.net/DTD/sodipodi-0.dtd"
   xmlns:inkscape="http://www.inkscape.org/namespaces/inkscape"
   width="174"
   height="174"
   viewBox="0 0 46.037499 46.037501"
   version="1.1"
   id="svg19606"
   inkscape:version="0.92.0 r15299"
   sodipodi:docname="avatar_cli_7.svg">
  <defs
     id="defs19600">
    <clipPath
       id="SVGID_2_">
      <use
         height="100%"
         width="100%"
         y="0"
         x="0"
         xlink:href="#SVGID_1_"
         style="overflow:visible"
         id="use16139" />
    </clipPath>
    <clipPath
       id="clipPath19620">
      <use
         height="100%"
         width="100%"
         y="0"
         x="0"
         xlink:href="#SVGID_1_"
         style="overflow:visible"
         id="use19618" />
    </clipPath>
    <radialGradient
       id="SVGID_3_"
       cx="75.133301"
       cy="77.205597"
       r="2.615"
       gradientUnits="userSpaceOnUse">
      <stop
         offset="0"
         style="stop-color:#2E4962"
         id="stop16170" />
      <stop
         offset="0.0185"
         style="stop-color:#314E68"
         id="stop16172" />
      <stop
         offset="0.1059"
         style="stop-color:#3C627D"
         id="stop16174" />
      <stop
         offset="0.209"
         style="stop-color:#44728E"
         id="stop16176" />
      <stop
         offset="0.3362"
         style="stop-color:#4A7D9A"
         id="stop16178" />
      <stop
         offset="0.514"
         style="stop-color:#4D83A1"
         id="stop16180" />
      <stop
         offset="1"
         style="stop-color:#4E85A3"
         id="stop16182" />
    </radialGradient>
    <radialGradient
       id="SVGID_4_"
       cx="456.70871"
       cy="77.205597"
       r="2.6150999"
       gradientTransform="matrix(-1,0,0,1,557.3896,0)"
       gradientUnits="userSpaceOnUse">
      <stop
         offset="0"
         style="stop-color:#2E4962"
         id="stop16199" />
      <stop
         offset="0.0185"
         style="stop-color:#314E68"
         id="stop16201" />
      <stop
         offset="0.1059"
         style="stop-color:#3C627D"
         id="stop16203" />
      <stop
         offset="0.209"
         style="stop-color:#44728E"
         id="stop16205" />
      <stop
         offset="0.3362"
         style="stop-color:#4A7D9A"
         id="stop16207" />
      <stop
         offset="0.514"
         style="stop-color:#4D83A1"
         id="stop16209" />
      <stop
         offset="1"
         style="stop-color:#4E85A3"
         id="stop16211" />
    </radialGradient>
    <ellipse
       id="SVGID_1_"
       cx="87"
       cy="87"
       rx="86.957001"
       ry="87" />
    <clipPath
       id="SVGID_2_-0">
      <use
         xlink:href="#SVGID_1_"
         style="overflow:visible"
         id="use16139-5"
         x="0"
         y="0"
         width="100%"
         height="100%" />
    </clipPath>
  </defs>
  <sodipodi:namedview
     id="base"
     pagecolor="#ffffff"
     bordercolor="#666666"
     borderopacity="1.0"
     inkscape:pageopacity="0.0"
     inkscape:pageshadow="2"
     inkscape:zoom="1.31"
     inkscape:cx="194.39817"
     inkscape:cy="92.517151"
     inkscape:document-units="mm"
     inkscape:current-layer="layer1"
     showgrid="false"
     units="px"
     inkscape:window-width="732"
     inkscape:window-height="453"
     inkscape:window-x="294"
     inkscape:window-y="172"
     inkscape:window-maximized="0" />
  <metadata
     id="metadata19603">
    <rdf:RDF>
      <cc:Work
         rdf:about="">
        <dc:format>image/svg+xml</dc:format>
        <dc:type
           rdf:resource="http://purl.org/dc/dcmitype/StillImage" />
        <dc:title></dc:title>
      </cc:Work>
    </rdf:RDF>
  </metadata>
  <g
     inkscape:label="Layer 1"
     inkscape:groupmode="layer"
     id="layer1"
     transform="translate(0,-250.96249)">
    <ellipse
       style="fill:#c19171;fill-opacity:0.86976743"
       cx="87"
       cy="87"
       rx="86.957001"
       ry="87"
       clip-path="url(#SVGID_2_)"
       id="ellipse16142-1"
       transform="matrix(0.26458333,0,0,0.26458333,0.13128193,250.93622)" />
    <g
       transform="matrix(0.35277777,0,0,-0.35277777,17.103477,296.26903)"
       id="g11144">
      <path
         inkscape:connector-curvature="0"
         id="path11146"
         style="fill:#000000;fill-opacity:1;fill-rule:nonzero;stroke:none"
         d="m 0,0 c 0.147,2.752 0.295,5.504 0.441,8.256 0.021,0.387 -0.579,0.385 -0.599,0 C -0.306,5.504 -0.453,2.752 -0.6,0 -0.62,-0.387 -0.021,-0.385 0,0" />
    </g>
    <g
       transform="matrix(0.35277777,0,0,-0.35277777,29.437929,296.2697)"
       id="g11148">
      <path
         inkscape:connector-curvature="0"
         id="path11150"
         style="fill:#000000;fill-opacity:1;fill-rule:nonzero;stroke:none"
         d="m 0,0 -0.296,8.262 c -0.014,0.384 -0.613,0.386 -0.6,0 L -0.6,0 C -0.586,-0.387 0.014,-0.387 0,0" />
    </g>
    <g
       transform="matrix(0.35277777,0,0,-0.35277777,20.595766,286.89766)"
       id="g11152">
      <path
         inkscape:connector-curvature="0"
         id="path11154"
         style="fill:#3793b5;fill-opacity:1;fill-rule:nonzero;stroke:none"
         d="m 0,0 c 0,0 -1.079,-0.086 -2.641,-0.371 -2.383,-0.434 -5.892,-1.328 -8.441,-3.082 -1.604,-1.104 -2.826,-2.545 -3.141,-4.428 -0.149,-0.889 -0.308,-1.863 -0.471,-2.877 -0.351,-2.183 -0.721,-4.555 -1.05,-6.693 -0.577,-3.748 -1.028,-6.772 -1.028,-6.772 0,0 10.746,-4.867 24.661,-5.019 -0.78,9.806 0.15,20.808 -5.16,29.265 z" />
    </g>
    <g
       transform="matrix(0.35277777,0,0,-0.35277777,21.558674,286.88941)"
       id="g11156">
      <path
         inkscape:connector-curvature="0"
         id="path11158"
         style="fill:#fcceb6;fill-opacity:1;fill-rule:nonzero;stroke:none"
         d="m 0,0 c 3.258,-5.189 4.164,-11.336 4.561,-17.578 1.284,5.976 3.185,11.877 5.506,17.664 z" />
    </g>
    <g
       transform="matrix(0.35277777,0,0,-0.35277777,31.744426,295.38567)"
       id="g11160">
      <path
         inkscape:connector-curvature="0"
         id="path11162"
         style="fill:#3793b5;fill-opacity:1;fill-rule:nonzero;stroke:none"
         d="m 0,0 -1.088,7.445 -0.945,6.465 -0.376,2.578 c 0,0 -0.87,2.285 -3.449,4.371 -1.632,1.319 -3.966,2.541 -7.184,3.071 -0.803,0.131 -1.643,0.234 -2.561,0.267 l -3.203,-0.027 c -2.321,-5.787 -4.222,-11.688 -5.506,-17.664 0.249,-3.93 0.297,-7.899 0.598,-11.688 C -16.324,-5.264 -8.043,-4.016 0,0" />
    </g>
    <g
       transform="matrix(0.35277777,0,0,-0.35277777,17.311194,275.96466)"
       id="g11164">
      <path
         inkscape:connector-curvature="0"
         id="path11166"
         style="fill:#f9b28f;fill-opacity:1;fill-rule:nonzero;stroke:none"
         d="M 0,0 C 0.012,-3.464 -2.665,-6.282 -5.979,-6.293 -9.292,-6.304 -11.988,-3.504 -12,-0.04 -12.012,3.424 -9.334,6.242 -6.021,6.253 -2.707,6.264 -0.012,3.464 0,0" />
    </g>
    <g
       transform="matrix(0.35277777,0,0,-0.35277777,33.362583,275.91058)"
       id="g11168">
      <path
         inkscape:connector-curvature="0"
         id="path11170"
         style="fill:#f9b28f;fill-opacity:1;fill-rule:nonzero;stroke:none"
         d="m 0,0 c 0.012,-3.464 -2.666,-6.282 -5.979,-6.293 -3.314,-0.011 -6.009,2.788 -6.021,6.252 -0.012,3.465 2.666,6.283 5.979,6.294 C -2.707,6.264 -0.012,3.464 0,0" />
    </g>
    <g
       transform="matrix(0.35277777,0,0,-0.35277777,20.595766,286.89766)"
       id="g11172">
      <path
         inkscape:connector-curvature="0"
         id="path11174"
         style="fill:#fcceb6;fill-opacity:1;fill-rule:nonzero;stroke:none"
         d="M 0,0 C 0,0 2.092,-2.576 7.759,-2.557 13.426,-2.537 16,0.137 16,0.137 c 0,0 -2.02,1.894 -3.332,5.019 C 9.402,3.693 5.744,2.869 2.067,2.691 1.548,1.682 0.874,0.732 0,0" />
    </g>
    <g
       transform="matrix(0.35277777,0,0,-0.35277777,21.933499,283.62018)"
       id="g11176">
      <path
         inkscape:connector-curvature="0"
         id="path11178"
         style="fill:#f9b28f;fill-opacity:1;fill-rule:nonzero;stroke:none"
         d="M 0,0 C 0,0 -0.169,-3.576 -1.725,-6.599 1.952,-6.421 5.61,-5.597 8.876,-4.134 8.351,-2.882 7.936,-1.439 7.813,0.168 7.813,0.168 3.321,-0.895 0,0" />
    </g>
    <g
       transform="matrix(0.35277777,0,0,-0.35277777,13.707286,276.04544)"
       id="g11180">
      <path
         inkscape:connector-curvature="0"
         id="path11182"
         style="fill:#000000;fill-opacity:1;fill-rule:nonzero;stroke:none"
         d="M 0,0 C 0.014,-0.002 0.026,-0.004 0.04,-0.006 0.129,-0.02 0.194,0.004 0.248,0.079 0.754,0.784 1.292,1.215 2.145,1.45 3.441,1.806 4.219,0.829 4.82,-0.135 4.977,-0.384 5.422,-0.301 5.401,0.022 5.316,1.363 3.951,2.228 2.713,2.313 2.009,2.361 1.256,2.01 0.711,1.601 0.566,1.492 -0.146,0.322 0,0.344 -0.17,0.318 -0.17,0.026 0,0" />
    </g>
    <g
       transform="matrix(0.35277777,0,0,-0.35277777,14.445579,276.5901)"
       id="g11184">
      <path
         inkscape:connector-curvature="0"
         id="path11186"
         style="fill:#000000;fill-opacity:1;fill-rule:nonzero;stroke:none"
         d="m 0,0 c 0.419,0.189 0.825,0.457 1.213,0.706 0.485,0.312 1.066,0.216 1.618,0.216 0.508,0 0.508,0.791 0,0.787 C 2.249,1.706 1.683,1.746 1.139,1.513 0.822,1.378 0.519,1.118 0.255,0.901 0.021,0.708 -0.002,0.452 -0.196,0.254 -0.333,0.115 -0.161,-0.072 0,0" />
    </g>
    <g
       transform="matrix(0.35277777,0,0,-0.35277777,32.585026,275.86062)"
       id="g11188">
      <path
         inkscape:connector-curvature="0"
         id="path11190"
         style="fill:#000000;fill-opacity:1;fill-rule:nonzero;stroke:none"
         d="m 0,0 c 0.145,-0.021 -0.574,1.144 -0.719,1.251 -0.605,0.449 -1.26,0.653 -2.006,0.7 -1.23,0.077 -2.607,-1.091 -2.675,-2.306 -0.019,-0.322 0.425,-0.41 0.581,-0.158 0.514,0.839 1.024,1.576 2.094,1.668 1.045,0.091 1.907,-0.639 2.476,-1.421 0.054,-0.073 0.118,-0.099 0.208,-0.084 0.014,0.002 0.027,0.004 0.041,0.006 0.169,0.028 0.172,0.32 0,0.344" />
    </g>
    <g
       transform="matrix(0.35277777,0,0,-0.35277777,31.91944,276.44179)"
       id="g11192">
      <path
         inkscape:connector-curvature="0"
         id="path11194"
         style="fill:#000000;fill-opacity:1;fill-rule:nonzero;stroke:none"
         d="m 0,0 c -0.155,0.156 -0.187,0.392 -0.349,0.558 -0.236,0.241 -0.561,0.428 -0.842,0.61 -0.545,0.352 -1.226,0.268 -1.843,0.268 -0.508,0.001 -0.508,-0.79 0,-0.787 0.478,0.003 1.032,0.1 1.471,-0.117 0.47,-0.232 0.887,-0.573 1.367,-0.786 C -0.035,-0.325 0.138,-0.139 0,0" />
    </g>
    <g
       transform="matrix(0.35277777,0,0,-0.35277777,17.103477,296.26903)"
       id="g11196">
      <path
         inkscape:connector-curvature="0"
         id="path11198"
         style="fill:#000000;fill-opacity:1;fill-rule:nonzero;stroke:none"
         d="m 0,0 c 0.147,2.752 0.295,5.504 0.441,8.256 0.021,0.387 -0.579,0.385 -0.599,0 C -0.306,5.504 -0.453,2.752 -0.6,0 -0.62,-0.387 -0.021,-0.385 0,0" />
    </g>
    <g
       transform="matrix(0.35277777,0,0,-0.35277777,29.437929,296.2697)"
       id="g11200">
      <path
         inkscape:connector-curvature="0"
         id="path11202"
         style="fill:#000000;fill-opacity:1;fill-rule:nonzero;stroke:none"
         d="m 0,0 -0.296,8.262 c -0.014,0.384 -0.613,0.386 -0.6,0 L -0.6,0 C -0.586,-0.387 0.014,-0.387 0,0" />
    </g>
    <g
       transform="matrix(0.35277777,0,0,-0.35277777,30.784975,275.12473)"
       id="g11204">
      <path
         inkscape:connector-curvature="0"
         id="path11206"
         style="fill:#fcceb6;fill-opacity:1;fill-rule:nonzero;stroke:none"
         d="M 0,0 C -0.156,12.95 -4.215,26.556 -21.709,26.485 -37.08,26.424 -42.988,13.091 -43.232,0.265 c -0.006,-0.327 -0.012,-0.653 -0.01,-0.979 0.032,-9.607 5.258,-17.859 12.743,-21.574 11.758,-0.31 22.524,6.056 29.694,15.188 0.533,2.078 0.82,4.267 0.813,6.532 C 0.007,-0.379 0.002,-0.189 0,0" />
    </g>
    <g
       transform="matrix(0.35277777,0,0,-0.35277777,20.025607,282.9873)"
       id="g11208">
      <path
         inkscape:connector-curvature="0"
         id="path11210"
         style="fill:#f9b28f;fill-opacity:1;fill-rule:nonzero;stroke:none"
         d="m 0,0 c 2.733,-1.356 5.767,-2.114 8.962,-2.103 9.88,0.034 18.182,7.342 20.732,17.291 C 22.524,6.056 11.758,-0.31 0,0" />
    </g>
    <g
       transform="matrix(0.35277777,0,0,-0.35277777,20.383887,275.46082)"
       id="g11212">
      <path
         inkscape:connector-curvature="0"
         id="path11214"
         style="fill:#000000;fill-opacity:1;fill-rule:nonzero;stroke:none"
         d="m 0,0 c 0,-0.922 -0.582,-1.67 -1.3,-1.67 -0.719,0 -1.301,0.748 -1.301,1.67 0,0.922 0.582,1.67 1.301,1.67 C -0.582,1.67 0,0.922 0,0" />
    </g>
    <g
       transform="matrix(0.35277777,0,0,-0.35277777,27.620313,275.46082)"
       id="g11216">
      <path
         inkscape:connector-curvature="0"
         id="path11218"
         style="fill:#000000;fill-opacity:1;fill-rule:nonzero;stroke:none"
         d="m 0,0 c 0,-0.922 -0.582,-1.67 -1.3,-1.67 -0.718,0 -1.3,0.748 -1.3,1.67 0,0.922 0.582,1.67 1.3,1.67 C -0.582,1.67 0,0.922 0,0" />
    </g>
    <g
       transform="matrix(0.35277777,0,0,-0.35277777,17.313276,269.66151)"
       id="g11220">
      <path
         inkscape:connector-curvature="0"
         id="path11222"
         style="fill:#feb01b;fill-opacity:1;fill-rule:nonzero;stroke:none"
         d="M 0,0 C 0.008,0 0.018,-0.001 0.025,-0.001 0.001,0.237 0,0.291 0,0" />
    </g>
    <g
       transform="matrix(0.35277777,0,0,-0.35277777,22.822676,278.52212)"
       id="g11224">
      <path
         inkscape:connector-curvature="0"
         id="path11226"
         style="fill:#000000;fill-opacity:1;fill-rule:nonzero;stroke:none"
         d="m 0,0 c -0.24,-0.734 0.352,-1.871 0.905,-2.336 0.531,-0.446 1.837,-0.696 2.444,-0.325 0.204,0.126 0.208,0.427 0,0.551 C 2.818,-1.792 2.096,-2.07 1.512,-1.797 0.88,-1.501 0.682,-0.519 0.355,0.046 0.269,0.198 0.051,0.156 0,0" />
    </g>
    <g
       transform="matrix(0.35277777,0,0,-0.35277777,24.16764,277.74061)"
       id="g11228">
      <path
         inkscape:connector-curvature="0"
         id="path11230"
         style="fill:#000000;fill-opacity:1;fill-rule:nonzero;stroke:none"
         d="M 0,0 C 0.904,0.569 4.101,4.328 1.724,4.981 0.596,5.292 -2.3,2.869 -2.824,4.317 c -0.413,1.143 -0.17,2.91 -0.168,4.1 0.002,1.642 -0.426,4.733 0.488,6.1 0.179,0.267 -0.167,0.576 -0.427,0.426 C -3.739,14.478 -3.589,12.385 -3.663,11.527 -3.848,9.394 -3.94,6.948 -3.619,4.823 -3.464,3.795 -3.264,2.897 -2.17,2.669 -1.896,2.612 -1.564,2.752 -1.345,2.898 -0.861,3.214 -0.383,3.537 0.093,3.865 0.471,3.231 0.85,2.598 1.228,1.964 0.817,1.339 0.323,0.794 -0.255,0.33 -0.434,0.17 -0.201,-0.126 0,0" />
    </g>
    <g
       transform="matrix(0.35277777,0,0,-0.35277777,17.301915,273.70346)"
       id="g11232">
      <path
         inkscape:connector-curvature="0"
         id="path11234"
         style="fill:#2c2945;fill-opacity:1;fill-rule:nonzero;stroke:none"
         d="M 0,0 C 0,0 2.625,4.625 4.437,5 4.437,5 7.375,7.812 9,6.5 10.625,5.187 9,4.125 9,4.125 9,4.125 9.537,3.587 7.956,2.45 6.375,1.312 -2.063,-2.375 0,0" />
    </g>
    <g
       transform="matrix(0.35277777,0,0,-0.35277777,28.693463,273.70346)"
       id="g11236">
      <path
         inkscape:connector-curvature="0"
         id="path11238"
         style="fill:#2c2945;fill-opacity:1;fill-rule:nonzero;stroke:none"
         d="m 0,0 c 0,0 -2.625,4.625 -4.437,5 0,0 -2.938,2.812 -4.563,1.5 -1.625,-1.313 0,-2.375 0,-2.375 0,0 -0.537,-0.538 1.044,-1.675 C -6.375,1.312 2.063,-2.375 0,0" />
    </g>
    <g
       transform="matrix(0.35277777,0,0,-0.35277777,23.927187,267.47506)"
       id="g11240">
      <path
         inkscape:connector-curvature="0"
         id="path11242"
         style="fill:#2c2945;fill-opacity:1;fill-rule:nonzero;stroke:none"
         d="m 0,0 c 0,-2 2,-2 3,-3 4,-2 8,-1 12,0 0,-5 5,-7 9,-7 -2.769,-4.43 0.29,-7.018 4.419,-8.447 0.278,2.428 -1.673,4.606 -1.673,4.606 1.246,10.908 -7.125,10.966 -7.125,10.966 0,0 2.379,3.625 -1.496,9.125 -3.875,5.5 -14.9,2.506 -14.9,2.506 -6.026,5.632 -12.1,-1.256 -12.1,-1.256 0,0 -6.446,1.698 -13.25,-3.25 -6.803,-4.948 -4.833,-13.375 -4.833,-13.375 0,0 -4.542,-2.5 -3.796,-7.153 0.746,-4.653 5.252,-3.312 5.252,-3.312 3.898,0.524 5.627,5.749 5.627,5.749 3.718,0.797 4.03,3.607 3.837,5.367 C -17.048,-7.062 -18,-5.689 -18,-4 -12,-9 -5,-5 0,0" />
    </g>
    <g
       transform="matrix(0.35277777,0,0,-0.35277777,32.393854,271.00284)"
       id="g11244">
      <path
         inkscape:connector-curvature="0"
         id="path11246"
         style="fill:#1e1d35;fill-opacity:1;fill-rule:nonzero;stroke:none"
         d="m 0,0 c -4,0 -9,2 -9,7 -4,-1 -8,-2 -12,0 -1,1 -3,1 -3,3 -5,-5 -12,-9 -18,-4 0,-1.689 0.952,-3.062 1.962,-4.474 -0.096,0.858 -0.308,1.471 -0.308,1.471 2.064,-3.019 7.288,-0.122 7.288,-0.122 7.473,-2.375 10.592,0.911 10.592,0.911 2.784,-5.965 14.091,-6.661 14.091,-6.661 2.246,-8.175 6.248,-12.076 10.727,-8.796 1.38,1.01 1.943,2.142 2.067,3.224 C 0.29,-7.018 -2.769,-4.43 0,0" />
    </g>
    <g
       transform="matrix(0.35277777,0,0,-0.35277777,14.93065,278.13057)"
       id="g11248">
      <path
         inkscape:connector-curvature="0"
         id="path11250"
         style="fill:#1e1d35;fill-opacity:1;fill-rule:nonzero;stroke:none"
         d="m 0,0 c 0,0 -3.131,-5.029 0.748,-7.225 3.879,-2.195 6.031,-0.166 6.031,-0.166 0,0 -3.254,4.95 -3.928,7.641 C 2.851,0.25 1.548,-0.324 0,0" />
    </g>
    <g
       transform="matrix(0.35277777,0,0,-0.35277777,30.501096,277.98674)"
       id="g11252">
      <path
         inkscape:connector-curvature="0"
         id="path11254"
         style="fill:#1e1d35;fill-opacity:1;fill-rule:nonzero;stroke:none"
         d="m 0,0 c 0,0 -1.833,-4.856 -3.889,-7.313 1.088,-1.891 2.524,-3.015 3.889,0.86 0,0 4.975,1.9 5.107,6.888 C 5.107,0.435 2.635,-1.047 0,0" />
    </g>
    <g
       transform="matrix(0.35277777,0,0,-0.35277777,21.111846,286.30891)"
       id="g11256">
      <path
         inkscape:connector-curvature="0"
         id="path11258"
         style="fill:#2c2945;fill-opacity:1;fill-rule:nonzero;stroke:none"
         d="m 0,0 -1.315,-1.532 c 0,0 1.762,-1.789 3.762,-2.239 -1.875,-2.261 -2.717,-6.341 -3.342,-6.716 -0.625,-0.375 -3.132,2.67 -4.562,5.244 -1.43,2.573 1.812,4.568 3,5.131 C -0.957,0.7 0,0 0,0" />
    </g>
    <g
       transform="matrix(0.35277777,0,0,-0.35277777,25.751367,286.30891)"
       id="g11260">
      <path
         inkscape:connector-curvature="0"
         id="path11262"
         style="fill:#2c2945;fill-opacity:1;fill-rule:nonzero;stroke:none"
         d="m 0,0 1.315,-1.532 c 0,0 -1.973,-1.675 -3.973,-2.124 1.875,-2.263 2.928,-6.456 3.553,-6.831 0.625,-0.375 3.132,2.67 4.562,5.244 1.43,2.573 -1.812,4.568 -3,5.131 C 0.957,0.7 0,0 0,0" />
    </g>
    <g
       transform="matrix(0.35277777,0,0,-0.35277777,24.868011,287.71554)"
       id="g11264">
      <path
         inkscape:connector-curvature="0"
         id="path11266"
         style="fill:#000000;fill-opacity:1;fill-rule:nonzero;stroke:none"
         d="m 0,0 c -2.347,0.279 -4.798,-11.49 -5.019,-12.896 -0.688,-4.381 -0.325,-9.182 0.146,-13.563 0.051,-0.469 0.781,-0.484 0.746,0 -0.37,5.022 -0.521,10.143 0.197,15.139 0.392,2.724 1.664,5.685 2.79,8.15 0.509,1.113 1.466,2.203 1.524,3.462 C 0.391,0.441 0.241,0.611 0.083,0.593 0.056,0.589 0.027,0.586 0,0.583 -0.374,0.538 -0.374,0.045 0,0" />
    </g>
    <g
       transform="matrix(0.35277777,0,0,-0.35277777,24.00226,297.13785)"
       id="g11268">
      <path
         inkscape:connector-curvature="0"
         id="path11270"
         style="fill:#000000;fill-opacity:1;fill-rule:nonzero;stroke:none"
         d="M 0,0 C -0.711,8.592 0.466,17.834 3.622,25.848 3.729,26.121 3.269,26.314 3.146,26.047 -0.181,18.809 -2.076,7.783 -0.253,-0.033 -0.221,-0.174 0.012,-0.146 0,0" />
    </g>
    <g
       transform="matrix(0.35277777,0,0,-0.35277777,21.593105,288.27568)"
       id="g11272">
      <path
         inkscape:connector-curvature="0"
         id="path11274"
         style="fill:#000000;fill-opacity:1;fill-rule:nonzero;stroke:none"
         d="m 0,0 c 1.582,-4.111 2.027,-8.482 3.392,-12.648 0.034,-0.106 0.213,-0.094 0.203,0.027 C 3.378,-10.377 2.838,-8.27 2.402,-6.064 1.992,-3.984 1.57,-1.607 0.3,0.127 0.199,0.266 -0.072,0.187 0,0" />
    </g>
    <g
       transform="matrix(0.35277777,0,0,-0.35277777,21.353358,288.74424)"
       id="g11276">
      <path
         inkscape:connector-curvature="0"
         id="path11278"
         style="fill:#000000;fill-opacity:1;fill-rule:nonzero;stroke:none"
         d="M 0,0 C 0.759,-0.193 1.828,-0.32 2.573,-0.039 2.875,0.074 2.761,0.539 2.437,0.453 1.632,0.236 0.81,0.475 0,0.33 -0.17,0.299 -0.156,0.039 0,0" />
    </g>
    <g
       transform="matrix(0.35277777,0,0,-0.35277777,24.471136,288.87791)"
       id="g11280">
      <path
         inkscape:connector-curvature="0"
         id="path11282"
         style="fill:#000000;fill-opacity:1;fill-rule:nonzero;stroke:none"
         d="M 0,0 C 0.881,-0.004 1.969,-0.512 2.812,-0.078 3.064,0.051 2.946,0.465 2.667,0.455 2.147,0.436 1.648,0.377 1.125,0.404 0.731,0.426 0.265,0.557 -0.085,0.314 -0.219,0.223 -0.177,0 0,0" />
    </g>
    <g
       transform="matrix(0.35277777,0,0,-0.35277777,25.173623,295.65371)"
       id="g11284">
      <path
         inkscape:connector-curvature="0"
         id="path11286"
         style="fill:#000000;fill-opacity:1;fill-rule:nonzero;stroke:none"
         d="m 0,0 c -0.074,2.629 -0.277,5.246 -0.319,7.875 -0.005,0.336 -0.516,0.336 -0.52,0 C -0.874,5.256 -0.7,2.551 -0.318,-0.043 -0.291,-0.225 0.005,-0.178 0,0" />
    </g>
    <g
       transform="matrix(0.35277777,0,0,-0.35277777,24.890413,292.82186)"
       id="g11288">
      <path
         inkscape:connector-curvature="0"
         id="path11290"
         style="fill:#000000;fill-opacity:1;fill-rule:nonzero;stroke:none"
         d="m 0,0 c 0.579,-0.615 2.302,-0.049 3.021,0.027 2.073,0.217 4.198,0.188 6.253,0.514 0.182,0.029 0.182,0.338 0,0.365 C 7.66,1.156 5.995,0.879 4.382,0.721 2.976,0.584 1.433,0.123 0.036,0.088 -0.01,0.088 -0.031,0.033 0,0" />
    </g>
    <g
       transform="matrix(0.35277777,0,0,-0.35277777,28.117446,292.63238)"
       id="g11292">
      <path
         inkscape:connector-curvature="0"
         id="path11294"
         style="fill:#000000;fill-opacity:1;fill-rule:nonzero;stroke:none"
         d="M 0,0 C -0.114,-0.971 0.131,-1.932 0.332,-2.875 0.578,-4.029 0.704,-5.23 1.012,-6.365 1.071,-6.588 1.386,-6.529 1.398,-6.312 1.52,-4.254 0.654,-1.984 0.272,0.037 0.24,0.203 0.018,0.141 0,0" />
    </g>
    <g
       transform="matrix(0.35277777,0,0,-0.35277777,25.067155,295.65992)"
       id="g11296">
      <path
         inkscape:connector-curvature="0"
         id="path11298"
         style="fill:#000000;fill-opacity:1;fill-rule:nonzero;stroke:none"
         d="M 0,0 C 0.255,-0.543 1.583,-0.842 2.125,-1.053 3.191,-1.467 4.244,-2.207 5.39,-2.354 5.568,-2.377 5.649,-2.078 5.483,-2.008 3.74,-1.27 1.932,-0.58 0.222,0.221 0.071,0.291 -0.07,0.15 0,0" />
    </g>
    <g
       transform="matrix(0.35277777,0,0,-0.35277777,27.019849,296.49982)"
       id="g11300">
      <path
         inkscape:connector-curvature="0"
         id="path11302"
         style="fill:#000000;fill-opacity:1;fill-rule:nonzero;stroke:none"
         d="M 0,0 C 0.244,-0.02 0.469,0.232 0.638,0.379 1.168,0.838 1.656,1.334 2.17,1.809 3.028,2.602 4.05,3.365 4.627,4.402 4.719,4.566 4.538,4.732 4.377,4.652 4.017,4.469 3.78,4.176 3.511,3.881 3.088,3.42 2.58,3.047 2.124,2.619 1.339,1.883 0.625,1.076 -0.128,0.309 -0.245,0.191 -0.154,0.012 0,0" />
    </g>
  </g>
</svg>
