<?xml version="1.0" encoding="UTF-8" standalone="no"?>
<!-- Created with Inkscape (http://www.inkscape.org/) -->

<svg
   xmlns:dc="http://purl.org/dc/elements/1.1/"
   xmlns:cc="http://creativecommons.org/ns#"
   xmlns:rdf="http://www.w3.org/1999/02/22-rdf-syntax-ns#"
   xmlns:svg="http://www.w3.org/2000/svg"
   xmlns="http://www.w3.org/2000/svg"
   xmlns:xlink="http://www.w3.org/1999/xlink"
   xmlns:sodipodi="http://sodipodi.sourceforge.net/DTD/sodipodi-0.dtd"
   xmlns:inkscape="http://www.inkscape.org/namespaces/inkscape"
   width="174"
   height="174"
   viewBox="0 0 46.037499 46.037501"
   version="1.1"
   id="svg20716"
   inkscape:version="0.92.0 r15299"
   sodipodi:docname="avatar_cli_8.svg">
  <defs
     id="defs20710">
    <clipPath
       id="SVGID_2_">
      <use
         height="100%"
         width="100%"
         y="0"
         x="0"
         xlink:href="#SVGID_1_"
         style="overflow:visible"
         id="use16139" />
    </clipPath>
    <clipPath
       id="clipPath20946">
      <use
         height="100%"
         width="100%"
         y="0"
         x="0"
         xlink:href="#SVGID_1_"
         style="overflow:visible"
         id="use20944" />
    </clipPath>
    <radialGradient
       id="SVGID_3_"
       cx="75.133301"
       cy="77.205597"
       r="2.615"
       gradientUnits="userSpaceOnUse">
      <stop
         offset="0"
         style="stop-color:#2E4962"
         id="stop16170" />
      <stop
         offset="0.0185"
         style="stop-color:#314E68"
         id="stop16172" />
      <stop
         offset="0.1059"
         style="stop-color:#3C627D"
         id="stop16174" />
      <stop
         offset="0.209"
         style="stop-color:#44728E"
         id="stop16176" />
      <stop
         offset="0.3362"
         style="stop-color:#4A7D9A"
         id="stop16178" />
      <stop
         offset="0.514"
         style="stop-color:#4D83A1"
         id="stop16180" />
      <stop
         offset="1"
         style="stop-color:#4E85A3"
         id="stop16182" />
    </radialGradient>
    <radialGradient
       id="SVGID_4_"
       cx="456.70871"
       cy="77.205597"
       r="2.6150999"
       gradientTransform="matrix(-1,0,0,1,557.3896,0)"
       gradientUnits="userSpaceOnUse">
      <stop
         offset="0"
         style="stop-color:#2E4962"
         id="stop16199" />
      <stop
         offset="0.0185"
         style="stop-color:#314E68"
         id="stop16201" />
      <stop
         offset="0.1059"
         style="stop-color:#3C627D"
         id="stop16203" />
      <stop
         offset="0.209"
         style="stop-color:#44728E"
         id="stop16205" />
      <stop
         offset="0.3362"
         style="stop-color:#4A7D9A"
         id="stop16207" />
      <stop
         offset="0.514"
         style="stop-color:#4D83A1"
         id="stop16209" />
      <stop
         offset="1"
         style="stop-color:#4E85A3"
         id="stop16211" />
    </radialGradient>
    <ellipse
       id="SVGID_1_"
       cx="87"
       cy="87"
       rx="86.957001"
       ry="87" />
    <clipPath
       id="SVGID_2_-2">
      <use
         xlink:href="#SVGID_1_"
         style="overflow:visible;"
         id="use16139-1" />
    </clipPath>
  </defs>
  <sodipodi:namedview
     id="base"
     pagecolor="#ffffff"
     bordercolor="#666666"
     borderopacity="1.0"
     inkscape:pageopacity="0.0"
     inkscape:pageshadow="2"
     inkscape:zoom="1.4"
     inkscape:cx="178.56869"
     inkscape:cy="88.169709"
     inkscape:document-units="mm"
     inkscape:current-layer="layer1"
     showgrid="false"
     units="px"
     inkscape:window-width="732"
     inkscape:window-height="453"
     inkscape:window-x="314"
     inkscape:window-y="131"
     inkscape:window-maximized="0" />
  <metadata
     id="metadata20713">
    <rdf:RDF>
      <cc:Work
         rdf:about="">
        <dc:format>image/svg+xml</dc:format>
        <dc:type
           rdf:resource="http://purl.org/dc/dcmitype/StillImage" />
        <dc:title></dc:title>
      </cc:Work>
    </rdf:RDF>
  </metadata>
  <g
     inkscape:label="Layer 1"
     inkscape:groupmode="layer"
     id="layer1"
     transform="translate(0,-250.96248)">
    <g
       transform="matrix(0.26458333,0,0,0.26458333,-7.8997021,278.51694)"
       id="g16258">
      <defs
         id="defs16137">
        <ellipse
           id="ellipse21155"
           cx="87"
           cy="87"
           rx="86.957001"
           ry="87" />
      </defs>
      <clipPath
         id="clipPath20968">
        <use
           height="100%"
           width="100%"
           y="0"
           x="0"
           xlink:href="#SVGID_1_"
           style="overflow:visible"
           id="use20966" />
      </clipPath>
    </g>
    <ellipse
       style="fill:#75abad;fill-opacity:1"
       cx="87"
       cy="87"
       rx="86.957001"
       ry="87"
       clip-path="url(#SVGID_2_)"
       id="ellipse16142-8"
       transform="matrix(0.26458333,0,0,0.26458333,0.03779793,250.92468)" />
    <g
       transform="matrix(0.35277777,0,0,-0.35277777,16.497262,295.82815)"
       id="g10752">
      <path
         inkscape:connector-curvature="0"
         id="path10754"
         style="fill:#000000;fill-opacity:1;fill-rule:nonzero;stroke:none"
         d="m 0,0 c 0.147,2.754 0.295,5.506 0.441,8.258 0.021,0.387 -0.579,0.385 -0.599,0 C -0.306,5.506 -0.453,2.754 -0.6,0 -0.62,-0.387 -0.021,-0.385 0,0" />
    </g>
    <g
       transform="matrix(0.35277777,0,0,-0.35277777,28.831361,295.82886)"
       id="g10756">
      <path
         inkscape:connector-curvature="0"
         id="path10758"
         style="fill:#000000;fill-opacity:1;fill-rule:nonzero;stroke:none"
         d="m 0,0 c -0.098,2.754 -0.196,5.508 -0.295,8.262 -0.014,0.386 -0.613,0.386 -0.6,0 C -0.797,5.508 -0.698,2.754 -0.6,0 -0.586,-0.385 0.014,-0.387 0,0" />
    </g>
    <g
       transform="matrix(0.35277777,0,0,-0.35277777,17.404677,289.54638)"
       id="g10760">
      <path
         inkscape:connector-curvature="0"
         id="path10762"
         style="fill:#f9b28f;fill-opacity:1;fill-rule:nonzero;stroke:none"
         d="M 0,0 C 0.25,-1.125 11.125,-7.25 15.063,-8.375 19,-9.5 27.562,-1.437 28.062,-0.062 c 0.33,0.904 0.064,5.314 -0.157,8.235 -0.633,0.18 -1.3,0.338 -2.017,0.455 -0.803,0.131 -1.643,0.234 -2.561,0.269 l -16,-0.138 c 0,0 -1.08,-0.086 -2.64,-0.371 C 3.339,8.144 1.634,7.743 -0.055,7.134 -0.11,4.643 -0.167,0.754 0,0" />
    </g>
    <g
       transform="matrix(0.35277777,0,0,-0.35277777,30.75407,292.31759)"
       id="g10764">
      <path
         inkscape:connector-curvature="0"
         id="path10766"
         style="fill:#e95f33;fill-opacity:1;fill-rule:nonzero;stroke:none"
         d="M 0,0 -0.945,6.465 -1.32,9.041 c 0,0 -0.871,2.287 -3.45,4.371 -1.267,1.026 -2.965,1.987 -5.166,2.616 0.221,-2.921 0.487,-7.331 0.158,-8.235 -0.5,-1.375 -9.063,-9.438 -13,-8.313 -3.938,1.125 -14.813,7.25 -15.063,8.375 -0.167,0.754 -0.11,4.643 -0.055,7.134 -1.3,-0.471 -2.591,-1.065 -3.7,-1.827 -1.603,-1.103 -2.826,-2.547 -3.14,-4.43 -0.151,-0.888 -0.309,-1.863 -0.473,-2.877 -0.35,-2.183 -0.721,-4.554 -1.049,-6.691 -0.578,-3.75 -1.029,-6.773 -1.029,-6.773 0,0 25.185,-11.416 48.375,0.162 z" />
    </g>
    <g
       transform="matrix(0.35277777,0,0,-0.35277777,16.704978,275.52311)"
       id="g10768">
      <path
         inkscape:connector-curvature="0"
         id="path10770"
         style="fill:#f2a381;fill-opacity:1;fill-rule:nonzero;stroke:none"
         d="M 0,0 C 0.012,-3.464 -2.666,-6.282 -5.979,-6.293 -9.293,-6.304 -11.988,-3.504 -12,-0.04 -12.012,3.424 -9.334,6.242 -6.021,6.253 -2.707,6.264 -0.012,3.464 0,0" />
    </g>
    <g
       transform="matrix(0.35277777,0,0,-0.35277777,32.756365,275.46903)"
       id="g10772">
      <path
         inkscape:connector-curvature="0"
         id="path10774"
         style="fill:#f2a381;fill-opacity:1;fill-rule:nonzero;stroke:none"
         d="m 0,0 c 0.012,-3.464 -2.666,-6.282 -5.979,-6.293 -3.314,-0.011 -6.009,2.788 -6.021,6.252 -0.012,3.465 2.666,6.283 5.979,6.294 C -2.707,6.264 -0.012,3.464 0,0" />
    </g>
    <g
       transform="matrix(0.35277777,0,0,-0.35277777,19.98955,286.45647)"
       id="g10776">
      <path
         inkscape:connector-curvature="0"
         id="path10778"
         style="fill:#f9b28f;fill-opacity:1;fill-rule:nonzero;stroke:none"
         d="M 0,0 C 0,0 2.092,-2.575 7.758,-2.558 13.426,-2.538 16,0.139 16,0.139 c 0,0 -2.02,1.892 -3.332,5.017 C 9.402,3.693 5.744,2.87 2.066,2.691 1.547,1.682 0.873,0.734 0,0" />
    </g>
    <g
       transform="matrix(0.35277777,0,0,-0.35277777,21.326931,283.17881)"
       id="g10780">
      <path
         inkscape:connector-curvature="0"
         id="path10782"
         style="fill:#f2a381;fill-opacity:1;fill-rule:nonzero;stroke:none"
         d="M 0,0 C 0,0 -0.168,-3.575 -1.725,-6.6 1.953,-6.421 5.611,-5.598 8.877,-4.135 8.352,-2.883 7.936,-1.439 7.814,0.168 7.814,0.168 3.322,-0.895 0,0" />
    </g>
    <g
       transform="matrix(0.35277777,0,0,-0.35277777,13.101422,275.6039)"
       id="g10784">
      <path
         inkscape:connector-curvature="0"
         id="path10786"
         style="fill:#000000;fill-opacity:1;fill-rule:nonzero;stroke:none"
         d="M 0,0 C 0.013,-0.002 0.025,-0.004 0.039,-0.006 0.128,-0.02 0.193,0.004 0.247,0.079 0.753,0.784 1.29,1.215 2.144,1.45 3.439,1.806 4.219,0.83 4.818,-0.135 4.974,-0.385 5.42,-0.301 5.399,0.022 5.317,1.363 3.948,2.228 2.711,2.313 2.008,2.361 1.255,2.01 0.71,1.601 0.564,1.492 -0.147,0.321 0,0.344 -0.171,0.318 -0.171,0.026 0,0" />
    </g>
    <g
       transform="matrix(0.35277777,0,0,-0.35277777,13.839364,276.14855)"
       id="g10788">
      <path
         inkscape:connector-curvature="0"
         id="path10790"
         style="fill:#000000;fill-opacity:1;fill-rule:nonzero;stroke:none"
         d="m 0,0 c 0.419,0.189 0.824,0.457 1.212,0.706 0.485,0.312 1.066,0.216 1.618,0.216 0.508,0 0.508,0.791 0,0.787 C 2.248,1.706 1.682,1.746 1.138,1.513 0.821,1.378 0.518,1.119 0.254,0.901 0.021,0.708 -0.003,0.451 -0.196,0.254 -0.333,0.115 -0.161,-0.072 0,0" />
    </g>
    <g
       transform="matrix(0.35277777,0,0,-0.35277777,31.978456,275.41908)"
       id="g10792">
      <path
         inkscape:connector-curvature="0"
         id="path10794"
         style="fill:#000000;fill-opacity:1;fill-rule:nonzero;stroke:none"
         d="m 0,0 c 0.145,-0.02 -0.573,1.144 -0.719,1.251 -0.604,0.449 -1.259,0.653 -2.005,0.7 -1.23,0.077 -2.608,-1.09 -2.675,-2.306 -0.019,-0.322 0.425,-0.41 0.581,-0.158 0.514,0.839 1.024,1.576 2.094,1.668 1.046,0.091 1.906,-0.64 2.475,-1.421 0.054,-0.073 0.118,-0.099 0.208,-0.085 0.014,0.003 0.027,0.005 0.041,0.007 0.17,0.028 0.173,0.32 0,0.344" />
    </g>
    <g
       transform="matrix(0.35277777,0,0,-0.35277777,31.313222,276.00024)"
       id="g10796">
      <path
         inkscape:connector-curvature="0"
         id="path10798"
         style="fill:#000000;fill-opacity:1;fill-rule:nonzero;stroke:none"
         d="m 0,0 c -0.155,0.156 -0.187,0.392 -0.35,0.558 -0.236,0.241 -0.56,0.428 -0.841,0.61 -0.545,0.352 -1.226,0.268 -1.843,0.268 -0.508,0.001 -0.508,-0.79 0,-0.787 0.478,0.003 1.032,0.1 1.471,-0.117 0.47,-0.232 0.887,-0.573 1.367,-0.786 C -0.035,-0.325 0.138,-0.139 0,0" />
    </g>
    <g
       transform="matrix(0.35277777,0,0,-0.35277777,16.497262,295.82815)"
       id="g10800">
      <path
         inkscape:connector-curvature="0"
         id="path10802"
         style="fill:#000000;fill-opacity:1;fill-rule:nonzero;stroke:none"
         d="m 0,0 c 0.147,2.754 0.295,5.506 0.441,8.258 0.021,0.387 -0.579,0.385 -0.599,0 C -0.306,5.506 -0.453,2.754 -0.6,0 -0.62,-0.387 -0.021,-0.385 0,0" />
    </g>
    <g
       transform="matrix(0.35277777,0,0,-0.35277777,28.831361,295.82886)"
       id="g10804">
      <path
         inkscape:connector-curvature="0"
         id="path10806"
         style="fill:#000000;fill-opacity:1;fill-rule:nonzero;stroke:none"
         d="m 0,0 c -0.098,2.754 -0.196,5.508 -0.295,8.262 -0.014,0.386 -0.613,0.386 -0.6,0 C -0.797,5.508 -0.698,2.754 -0.6,0 -0.586,-0.385 0.014,-0.387 0,0" />
    </g>
    <g
       transform="matrix(0.35277777,0,0,-0.35277777,30.17876,274.68319)"
       id="g10808">
      <path
         inkscape:connector-curvature="0"
         id="path10810"
         style="fill:#f9b28f;fill-opacity:1;fill-rule:nonzero;stroke:none"
         d="M 0,0 C -0.156,12.95 -4.215,26.556 -21.709,26.485 -37.08,26.424 -42.988,13.091 -43.232,0.265 c -0.006,-0.327 -0.012,-0.653 -0.01,-0.979 0.031,-9.607 5.258,-17.859 12.742,-21.574 11.758,-0.31 22.525,6.056 29.695,15.188 0.532,2.078 0.819,4.267 0.813,6.532 C 0.006,-0.379 0.002,-0.189 0,0" />
    </g>
    <g
       transform="matrix(0.35277777,0,0,-0.35277777,19.419037,282.54576)"
       id="g10812">
      <path
         inkscape:connector-curvature="0"
         id="path10814"
         style="fill:#f2a381;fill-opacity:1;fill-rule:nonzero;stroke:none"
         d="M 0,0 C 2.734,-1.357 5.768,-2.114 8.963,-2.103 18.842,-2.07 27.145,5.239 29.695,15.188 22.525,6.056 11.758,-0.31 0,0" />
    </g>
    <g
       transform="matrix(0.35277777,0,0,-0.35277777,19.77732,275.01928)"
       id="g10816">
      <path
         inkscape:connector-curvature="0"
         id="path10818"
         style="fill:#000000;fill-opacity:1;fill-rule:nonzero;stroke:none"
         d="m 0,0 c 0,-0.922 -0.582,-1.67 -1.299,-1.67 -0.719,0 -1.301,0.748 -1.301,1.67 0,0.922 0.582,1.67 1.301,1.67 C -0.582,1.67 0,0.922 0,0" />
    </g>
    <g
       transform="matrix(0.35277777,0,0,-0.35277777,26.555204,275.01928)"
       id="g10820">
      <path
         inkscape:connector-curvature="0"
         id="path10822"
         style="fill:#000000;fill-opacity:1;fill-rule:nonzero;stroke:none"
         d="m 0,0 c 0,-0.922 -0.582,-1.67 -1.299,-1.67 -0.719,0 -1.301,0.748 -1.301,1.67 0,0.922 0.582,1.67 1.301,1.67 C -0.582,1.67 0,0.922 0,0" />
    </g>
    <g
       transform="matrix(0.35277777,0,0,-0.35277777,22.009731,277.83614)"
       id="g10824">
      <path
         inkscape:connector-curvature="0"
         id="path10826"
         style="fill:#000000;fill-opacity:1;fill-rule:nonzero;stroke:none"
         d="m 0,0 c -0.24,-0.734 0.352,-1.871 0.905,-2.336 0.531,-0.446 1.837,-0.696 2.444,-0.325 0.204,0.126 0.208,0.427 0,0.551 C 2.818,-1.792 2.096,-2.07 1.512,-1.797 0.879,-1.501 0.682,-0.519 0.355,0.046 0.268,0.198 0.051,0.156 0,0" />
    </g>
    <g
       transform="matrix(0.35277777,0,0,-0.35277777,22.40523,273.66828)"
       id="g10828">
      <path
         inkscape:connector-curvature="0"
         id="path10830"
         style="fill:#000000;fill-opacity:1;fill-rule:nonzero;stroke:none"
         d="m 0,0 c 0.266,-0.351 -0.072,-2.362 -0.076,-2.841 -0.006,-0.63 0.009,-1.259 -0.022,-1.888 -0.04,-0.838 -0.061,-1.689 0.208,-2.494 0.129,-0.385 0.479,-0.686 0.894,-0.686 0.328,0 0.581,0.193 0.844,0.357 1.684,1.053 1.949,-1.865 0.083,-2.127 -0.486,-0.068 -0.284,-0.819 0.205,-0.741 1.912,0.306 2.468,4.562 0.632,4.148 -0.388,-0.088 -1.839,-1.062 -2.04,-0.465 -0.23,0.683 -0.116,1.55 -0.085,2.26 0.04,0.956 0.494,4.165 -0.326,4.794 C 0.136,0.457 -0.138,0.182 0,0" />
    </g>
    <g
       transform="matrix(0.35277777,0,0,-0.35277777,17.820179,273.48)"
       id="g10832">
      <path
         inkscape:connector-curvature="0"
         id="path10834"
         style="fill:#000000;fill-opacity:1;fill-rule:nonzero;stroke:none"
         d="M 0,0 C -0.003,-0.028 -0.006,-0.055 -0.009,-0.083 -0.028,-0.255 0.235,-0.366 0.343,-0.229 1.253,0.931 2.35,1.994 3.541,2.863 4.616,3.647 5.781,4.286 6.793,5.154 7.015,5.345 6.729,5.697 6.486,5.552 4.02,4.082 1.717,2.367 0.02,0.021 L 0.403,-0.083 C 0.4,-0.055 0.397,-0.028 0.395,0 0.365,0.253 0.029,0.253 0,0" />
    </g>
    <g
       transform="matrix(0.35277777,0,0,-0.35277777,25.560617,271.94073)"
       id="g10836">
      <path
         inkscape:connector-curvature="0"
         id="path10838"
         style="fill:#000000;fill-opacity:1;fill-rule:nonzero;stroke:none"
         d="M 0,0 C 0.028,-0.075 0.049,-0.144 0.105,-0.203 L 0.278,0.215 C 0.25,0.215 0.223,0.216 0.194,0.216 -0.046,0.221 -0.148,-0.128 0.07,-0.242 1.127,-0.796 2.182,-1.35 3.077,-2.149 3.902,-2.885 4.521,-3.818 5.249,-4.642 5.458,-4.878 5.851,-4.571 5.684,-4.307 4.325,-2.162 2.579,-0.898 0.318,0.183 0.277,0.03 0.235,-0.123 0.194,-0.276 c 0.029,0.001 0.056,0.001 0.084,0.002 0.208,0.003 0.33,0.266 0.173,0.417 C 0.392,0.2 0.323,0.22 0.248,0.248 0.11,0.3 -0.053,0.139 0,0" />
    </g>
    <g
       transform="matrix(0.35277777,0,0,-0.35277777,20.65376,278.28505)"
       id="g10840">
      <path
         inkscape:connector-curvature="0"
         id="path10842"
         style="fill:#f2a381;fill-opacity:1;fill-rule:nonzero;stroke:none"
         d="m 0,0 c -0.594,-1.791 -3.147,-2.555 -5.703,-1.707 -2.555,0.848 -4.145,2.988 -3.551,4.778 0.596,1.791 3.149,2.556 5.703,1.708 C -0.994,3.931 0.595,1.791 0,0" />
    </g>
    <g
       transform="matrix(0.35277777,0,0,-0.35277777,28.204016,277.36521)"
       id="g10844">
      <path
         inkscape:connector-curvature="0"
         id="path10846"
         style="fill:#f2a381;fill-opacity:1;fill-rule:nonzero;stroke:none"
         d="m 0,0 c 0.537,-1.809 -1.12,-3.896 -3.701,-4.662 -2.582,-0.766 -5.11,0.08 -5.646,1.889 -0.536,1.809 1.12,3.896 3.701,4.662 C -3.064,2.655 -0.536,1.809 0,0" />
    </g>
    <g
       transform="matrix(0.35277777,0,0,-0.35277777,19.474142,288.20692)"
       id="g10848">
      <path
         inkscape:connector-curvature="0"
         id="path10850"
         style="fill:#000000;fill-opacity:1;fill-rule:nonzero;stroke:none"
         d="m 0,0 c 0.047,-0.105 0.081,-0.215 0.202,-0.25 0.75,-0.227 1.458,-0.535 2.179,-0.842 1.12,-0.476 2.364,-0.857 3.57,-1.039 0.28,-0.043 0.375,0.311 0.115,0.42 C 4.187,-0.924 2.085,-0.605 0.212,0.213 0.065,0.275 -0.063,0.146 0,0" />
    </g>
    <g
       transform="matrix(0.35277777,0,0,-0.35277777,23.822198,289.05715)"
       id="g10852">
      <path
         inkscape:connector-curvature="0"
         id="path10854"
         style="fill:#000000;fill-opacity:1;fill-rule:nonzero;stroke:none"
         d="M 0,0 C 1.72,0.615 3.315,1.475 4.812,2.518 5.079,2.703 4.838,3.137 4.555,2.959 3.046,2.014 1.538,1.115 -0.133,0.479 -0.428,0.365 -0.305,-0.109 0,0" />
    </g>
    <g
       transform="matrix(0.35277777,0,0,-0.35277777,34.61741,269.54932)"
       id="g10856">
      <path
         inkscape:connector-curvature="0"
         id="path10858"
         style="fill:#feb01b;fill-opacity:1;fill-rule:nonzero;stroke:none"
         d="M 0,0 C -0.982,2.917 -2.439,5.578 -4.5,8.024 -9.22,13.629 -26.275,24.243 -45.27,14.948 -32.816,3.972 -16.415,-0.382 0,0" />
    </g>
    <g
       transform="matrix(0.35277777,0,0,-0.35277777,9.6876623,289.59048)"
       id="g10860">
      <path
         inkscape:connector-curvature="0"
         id="path10862"
         style="fill:#feb01b;fill-opacity:1;fill-rule:nonzero;stroke:none"
         d="m 0,0 c 12.072,8.624 18.188,20.222 16.44,32.87 -0.348,0.752 -0.523,1.214 -0.523,1.214 0,0 -6.684,-1.826 -7.292,5.925 -0.458,5.827 5.604,6.164 6.448,6.12 0,0 10.946,7.038 12.228,13.038 0,0 0.514,0.324 1.362,0.714 -3.484,2.373 -6.758,5.028 -9.765,7.922 -0.327,-0.24 -0.653,-0.467 -0.981,-0.719 0,0 -16.584,-0.833 -18.417,-17.568 -1.388,-12.661 3.083,-12.765 6,-20.515 0,0 3.583,-8.417 0,-14.042 C 1.917,9.335 -4.583,5.834 -1.75,-0.75 -1.613,-1.066 -1.469,-1.35 -1.324,-1.629 -0.995,-0.936 -0.549,-0.365 0,0" />
    </g>
    <g
       transform="matrix(0.35277777,0,0,-0.35277777,17.536969,281.00599)"
       id="g10864">
      <path
         inkscape:connector-curvature="0"
         id="path10866"
         style="fill:#f79c0b;fill-opacity:1;fill-rule:nonzero;stroke:none"
         d="m 0,0 c -3.069,3.129 -4.964,6.709 -5.81,8.536 1.748,-12.648 -4.368,-24.246 -16.44,-32.87 -0.549,-0.365 -0.995,-0.936 -1.324,-1.629 2.85,-5.531 7.074,-4.043 7.074,-4.043 0,0 -1.392,-6.508 6.679,-9.668 l 1.845,12.002 c 0,0 0.122,7.826 5.371,9.664 5.248,1.839 9.557,2.558 9.557,2.558 0,0 2.881,1.533 3.798,9.2 0,0 -6.417,1.833 -10.75,6.25" />
    </g>
    <g
       transform="matrix(0.35277777,0,0,-0.35277777,31.207108,283.24013)"
       id="g10868">
      <path
         inkscape:connector-curvature="0"
         id="path10870"
         style="fill:#f79c0b;fill-opacity:1;fill-rule:nonzero;stroke:none"
         d="M 0,0 C -4.438,2.536 -5.255,7.886 -5.006,13.501 -6.748,9.682 -11.015,2.938 -20.134,0.356 c 0,0 0.453,-6.397 4.336,-9.335 0,0 10.131,-0.496 13.297,-8.426 0.75,-5.129 2.264,-15.485 2.264,-15.485 0,0 7.07,-0.111 8.32,6.139 0,0 0.075,0.01 0.199,0.031 C 10.64,-16.536 11.173,-5.586 0,0" />
    </g>
    <g
       transform="matrix(0.35277777,0,0,-0.35277777,37.175047,288.06154)"
       id="g10872">
      <path
         inkscape:connector-curvature="0"
         id="path10874"
         style="fill:#feb01b;fill-opacity:1;fill-rule:nonzero;stroke:none"
         d="m 0,0 c -2.334,11.75 -8.75,9.915 -9.417,15.625 -0.667,5.708 3.001,10.829 3.667,20.811 0.141,2.1 0.184,4.094 0.127,6.004 -8.822,-0.357 -17.823,1.173 -26.348,4.261 3.504,-4.436 7.136,-7.432 12.076,-6.684 0,0 6.582,1.187 7.323,-3.581 0.738,-4.769 -4.457,-8.615 -8.318,-6.525 0,0 -0.286,-1.104 -1.033,-2.743 -0.249,-5.615 0.568,-10.965 5.006,-13.501 11.173,-5.586 10.64,-16.536 8.282,-26.72 C -7.168,-12.811 2.152,-10.834 0,0" />
    </g>
    <g
       transform="matrix(0.35277777,0,0,-0.35277777,35.191379,273.08965)"
       id="g10876">
      <path
         inkscape:connector-curvature="0"
         id="path10878"
         style="fill:#ffb640;fill-opacity:1;fill-rule:nonzero;stroke:none"
         d="m 0,0 c -0.107,3.66 -0.602,6.992 -1.627,10.036 -16.415,-0.383 -32.816,3.971 -45.269,14.947 -2.147,-1.05 -4.319,-2.362 -6.5,-3.954 3.007,-2.894 6.281,-5.549 9.765,-7.922 2.706,1.243 8.838,3.164 12.764,-2.546 1.545,-2.247 3.02,-4.403 4.519,-6.3 C -17.823,1.173 -8.822,-0.357 0,0" />
    </g>
    <g
       transform="matrix(0.35277777,0,0,-0.35277777,14.236908,276.90561)"
       id="g10880">
      <path
         inkscape:connector-curvature="0"
         id="path10882"
         style="fill:#000000;fill-opacity:1;fill-rule:nonzero;stroke:none"
         d="m 0,0 c -1.706,0.31 -3.487,-0.626 -4.15,-2.276 -0.895,-2.229 0.152,-4.59 1.925,-6.046 2.537,-2.082 6.482,-0.854 7.188,2.45 0.126,0.588 -0.699,0.811 -0.895,0.247 -0.606,-1.75 -2.179,-3.173 -4.117,-2.779 -4.256,0.865 -5.026,7.76 -0.019,7.898 C 0.212,-0.499 0.296,-0.054 0,0" />
    </g>
    <g
       transform="matrix(0.35277777,0,0,-0.35277777,30.806106,277.23617)"
       id="g10884">
      <path
         inkscape:connector-curvature="0"
         id="path10886"
         style="fill:#000000;fill-opacity:1;fill-rule:nonzero;stroke:none"
         d="m 0,0 c 4.049,-0.126 4.361,-4.498 1.891,-6.868 -2.035,-1.952 -4.557,-1.065 -5.768,1.149 -0.3,0.548 -1.141,0.058 -0.838,-0.49 1.84,-3.326 5.514,-3.441 7.92,-0.562 C 5.511,-4.012 4.12,1.284 -0.068,0.506 -0.364,0.452 -0.28,0.009 0,0" />
    </g>
  </g>
</svg>
