<?xml version="1.0" encoding="UTF-8" standalone="no"?>
<!-- Created with Inkscape (http://www.inkscape.org/) -->

<svg
   xmlns:dc="http://purl.org/dc/elements/1.1/"
   xmlns:cc="http://creativecommons.org/ns#"
   xmlns:rdf="http://www.w3.org/1999/02/22-rdf-syntax-ns#"
   xmlns:svg="http://www.w3.org/2000/svg"
   xmlns="http://www.w3.org/2000/svg"
   xmlns:xlink="http://www.w3.org/1999/xlink"
   xmlns:sodipodi="http://sodipodi.sourceforge.net/DTD/sodipodi-0.dtd"
   xmlns:inkscape="http://www.inkscape.org/namespaces/inkscape"
   width="174"
   height="174"
   viewBox="0 0 46.037499 46.037501"
   version="1.1"
   id="svg14802"
   inkscape:version="0.92.0 r15299"
   sodipodi:docname="avatar_cli_3.svg">
  <defs
     id="defs14796">
    <clipPath
       id="SVGID_2_">
      <use
         xlink:href="#SVGID_1_"
         style="overflow:visible"
         id="use14807"
         x="0"
         y="0"
         width="100%"
         height="100%" />
    </clipPath>
    <clipPath
       id="SVGID_2_-0">
      <use
         xlink:href="#SVGID_1_"
         style="overflow:visible"
         id="use14807-0"
         x="0"
         y="0"
         width="100%"
         height="100%" />
    </clipPath>
    <clipPath
       id="SVGID_2_-2">
      <use
         xlink:href="#SVGID_1_"
         style="overflow:visible"
         id="use14807-2"
         x="0"
         y="0"
         width="100%"
         height="100%" />
    </clipPath>
    <clipPath
       id="SVGID_2_-6">
      <use
         xlink:href="#SVGID_1_"
         style="overflow:visible"
         id="use14807-21"
         x="0"
         y="0"
         width="100%"
         height="100%" />
    </clipPath>
    <clipPath
       id="SVGID_2_-5">
      <use
         xlink:href="#SVGID_1_"
         style="overflow:visible"
         id="use14807-02"
         x="0"
         y="0"
         width="100%"
         height="100%" />
    </clipPath>
    <clipPath
       id="clipPath15058">
      <use
         xlink:href="#SVGID_1_"
         style="overflow:visible"
         id="use15056"
         x="0"
         y="0"
         width="100%"
         height="100%" />
    </clipPath>
    <radialGradient
       id="SVGID_3_"
       cx="88.447304"
       cy="67.538399"
       r="2.4405999"
       gradientTransform="matrix(1.0716,0,0,1.0717,-21.5058,11.3354)"
       gradientUnits="userSpaceOnUse">
      <stop
         offset="0"
         style="stop-color:#5E622E"
         id="stop14824" />
      <stop
         offset="0.0185"
         style="stop-color:#636831"
         id="stop14826" />
      <stop
         offset="0.1059"
         style="stop-color:#747D3C"
         id="stop14828" />
      <stop
         offset="0.209"
         style="stop-color:#828E44"
         id="stop14830" />
      <stop
         offset="0.3362"
         style="stop-color:#8C9A4A"
         id="stop14832" />
      <stop
         offset="0.514"
         style="stop-color:#91A14D"
         id="stop14834" />
      <stop
         offset="1"
         style="stop-color:#93A34E"
         id="stop14836" />
    </radialGradient>
    <radialGradient
       id="SVGID_4_"
       cx="458.5683"
       cy="83.716499"
       r="2.6150999"
       gradientTransform="matrix(-1,0,0,1,557.3896,0)"
       gradientUnits="userSpaceOnUse">
      <stop
         offset="0"
         style="stop-color:#5E622E"
         id="stop14853" />
      <stop
         offset="0.0185"
         style="stop-color:#636831"
         id="stop14855" />
      <stop
         offset="0.1059"
         style="stop-color:#747D3C"
         id="stop14857" />
      <stop
         offset="0.209"
         style="stop-color:#828E44"
         id="stop14859" />
      <stop
         offset="0.3362"
         style="stop-color:#8C9A4A"
         id="stop14861" />
      <stop
         offset="0.514"
         style="stop-color:#91A14D"
         id="stop14863" />
      <stop
         offset="1"
         style="stop-color:#93A34E"
         id="stop14865" />
    </radialGradient>
    <ellipse
       id="SVGID_1_"
       cx="87"
       cy="87"
       rx="86.957001"
       ry="87" />
    <clipPath
       id="SVGID_2_-61">
      <use
         xlink:href="#SVGID_1_"
         style="overflow:visible"
         id="use14807-3"
         x="0"
         y="0"
         width="100%"
         height="100%" />
    </clipPath>
  </defs>
  <sodipodi:namedview
     id="base"
     pagecolor="#ffffff"
     bordercolor="#666666"
     borderopacity="1.0"
     inkscape:pageopacity="0.0"
     inkscape:pageshadow="2"
     inkscape:zoom="0.98994949"
     inkscape:cx="165.90872"
     inkscape:cy="97.03623"
     inkscape:document-units="mm"
     inkscape:current-layer="layer1"
     showgrid="false"
     inkscape:window-width="476"
     inkscape:window-height="453"
     inkscape:window-x="559"
     inkscape:window-y="193"
     inkscape:window-maximized="0"
     units="px" />
  <metadata
     id="metadata14799">
    <rdf:RDF>
      <cc:Work
         rdf:about="">
        <dc:format>image/svg+xml</dc:format>
        <dc:type
           rdf:resource="http://purl.org/dc/dcmitype/StillImage" />
        <dc:title></dc:title>
      </cc:Work>
    </rdf:RDF>
  </metadata>
  <g
     inkscape:label="Layer 1"
     inkscape:groupmode="layer"
     id="layer1"
     transform="translate(0,-250.96248)">
    <ellipse
       transform="matrix(0.26458333,0,0,0.26458333,0.07290908,250.98955)"
       style="fill:#6994a0"
       cx="87"
       cy="87"
       rx="86.957001"
       ry="87"
       clip-path="url(#SVGID_2_-61)"
       id="ellipse14810" />
    <g
       transform="matrix(0.35277777,0,0,-0.35277777,13.335805,273.68586)"
       id="g10464">
      <path
         inkscape:connector-curvature="0"
         id="path10466"
         style="fill:#1e1d35;fill-opacity:1;fill-rule:nonzero;stroke:none"
         d="m 0,0 c 0,0 0.529,-20.979 -3.304,-27.412 0,0 3.443,-4.005 12.805,-4.302 0,0 1.466,4.39 1.591,5.827 0,0 0.5,-5.437 0.437,-6.375 0,0 20.375,-2 31.813,-0.375 0,0 0.062,4.813 0.687,6 0,0 0.625,-4.75 1.813,-5.562 0,0 6.64,-0.188 11.039,2.312 0,0 -3.414,12.532 -3.789,16.547 -0.375,4.016 1.011,12.826 1.011,12.826" />
    </g>
    <g
       transform="matrix(0.35277777,0,0,-0.35277777,20.636965,284.87399)"
       id="g10468">
      <path
         inkscape:connector-curvature="0"
         id="path10470"
         style="fill:#549e87;fill-opacity:1;fill-rule:nonzero;stroke:none"
         d="M 0,0 C -0.003,-0.018 5.584,1.422 14,0 L 16.916,-5.214 -2.667,-5.422 Z" />
    </g>
    <g
       transform="matrix(0.35277777,0,0,-0.35277777,16.923525,275.7598)"
       id="g10472">
      <path
         inkscape:connector-curvature="0"
         id="path10474"
         style="fill:#f9b28f;fill-opacity:1;fill-rule:nonzero;stroke:none"
         d="m 0,0 c 0.012,-3.464 -2.666,-6.282 -5.979,-6.293 -3.314,-0.011 -6.01,2.789 -6.022,6.253 -0.012,3.464 2.665,6.282 5.98,6.293 C -2.709,6.264 -0.012,3.464 0,0" />
    </g>
    <g
       transform="matrix(0.35277777,0,0,-0.35277777,32.974555,275.70572)"
       id="g10476">
      <path
         inkscape:connector-curvature="0"
         id="path10478"
         style="fill:#f9b28f;fill-opacity:1;fill-rule:nonzero;stroke:none"
         d="m 0,0 c 0.012,-3.464 -2.665,-6.282 -5.979,-6.293 -3.313,-0.011 -6.009,2.788 -6.021,6.252 -0.012,3.465 2.665,6.283 5.979,6.294 C -2.708,6.264 -0.012,3.464 0,0" />
    </g>
    <g
       transform="matrix(0.35277777,0,0,-0.35277777,27.633645,288.15387)"
       id="g10480">
      <path
         inkscape:connector-curvature="0"
         id="path10482"
         style="fill:#549e87;fill-opacity:1;fill-rule:nonzero;stroke:none"
         d="M 0,0 C 0.988,0.659 1.863,1.433 2.706,2.273 0.784,3.336 -1.746,4.157 -5.05,4.278 l -16,-0.137 c 0,0 -1.4,-0.113 -3.321,-0.502 C -18.723,-3.297 -8.143,-4.523 0,0" />
    </g>
    <g
       transform="matrix(0.35277777,0,0,-0.35277777,30.506135,289.36433)"
       id="g10484">
      <path
         inkscape:connector-curvature="0"
         id="path10486"
         style="fill:#64ad99;fill-opacity:1;fill-rule:nonzero;stroke:none"
         d="M 0,0 C 0,0 -1.299,3.415 -5.437,5.704 -6.279,4.864 -7.154,4.09 -8.143,3.431 -16.285,-1.092 -26.865,0.134 -32.514,7.07 -36.471,6.269 -42.646,4.293 -43.416,-0.309 c -1.031,-6.161 -2.549,-16.342 -2.549,-16.342 0,0 25.185,-11.415 48.375,0.163 z" />
    </g>
    <g
       transform="matrix(0.35277777,0,0,-0.35277777,20.207705,286.69299)"
       id="g10488">
      <path
         inkscape:connector-curvature="0"
         id="path10490"
         style="fill:#fcceb6;fill-opacity:1;fill-rule:nonzero;stroke:none"
         d="M 0,0 C 0,0 2.092,-2.576 7.759,-2.557 13.426,-2.538 16,0.137 16,0.137 c 0,0 -2.019,1.894 -3.331,5.019 C 9.403,3.692 5.743,2.87 2.067,2.691 1.548,1.682 0.874,0.733 0,0" />
    </g>
    <g
       transform="matrix(0.35277777,0,0,-0.35277777,21.545445,283.4155)"
       id="g10492">
      <path
         inkscape:connector-curvature="0"
         id="path10494"
         style="fill:#f9b28f;fill-opacity:1;fill-rule:nonzero;stroke:none"
         d="M 0,0 C 0,0 -0.17,-3.575 -1.725,-6.599 1.951,-6.421 5.611,-5.598 8.877,-4.134 8.352,-2.883 7.936,-1.439 7.814,0.168 7.814,0.168 3.32,-0.895 0,0" />
    </g>
    <g
       transform="matrix(0.35277777,0,0,-0.35277777,30.399355,275.12022)"
       id="g10496">
      <path
         inkscape:connector-curvature="0"
         id="path10498"
         style="fill:#fcceb6;fill-opacity:1;fill-rule:nonzero;stroke:none"
         d="m 0,0 c 0.045,-13.117 -9.602,-23.783 -21.545,-23.823 -11.943,-0.04 -21.66,10.561 -21.705,23.677 -0.043,13.117 5.771,27.137 21.534,27.199 C -3.967,27.125 -0.044,13.117 0,0" />
    </g>
    <g
       transform="matrix(0.35277777,0,0,-0.35277777,13.319265,275.84059)"
       id="g10500">
      <path
         inkscape:connector-curvature="0"
         id="path10502"
         style="fill:#000000;fill-opacity:1;fill-rule:nonzero;stroke:none"
         d="M 0,0 0.041,-0.006 C 0.131,-0.02 0.195,0.004 0.249,0.079 0.756,0.783 1.29,1.215 2.145,1.45 3.44,1.806 4.219,0.829 4.82,-0.135 4.977,-0.384 5.422,-0.301 5.401,0.022 5.316,1.364 3.95,2.228 2.712,2.313 2.008,2.361 1.256,2.01 0.711,1.601 0.566,1.492 -0.144,0.322 0,0.344 -0.171,0.318 -0.171,0.026 0,0" />
    </g>
    <g
       transform="matrix(0.35277777,0,0,-0.35277777,14.057875,276.38528)"
       id="g10504">
      <path
         inkscape:connector-curvature="0"
         id="path10506"
         style="fill:#000000;fill-opacity:1;fill-rule:nonzero;stroke:none"
         d="m 0,0 c 0.419,0.189 0.825,0.457 1.212,0.706 0.485,0.312 1.066,0.217 1.618,0.216 0.508,0 0.508,0.791 0,0.787 C 2.248,1.706 1.682,1.746 1.138,1.513 0.821,1.378 0.518,1.118 0.254,0.901 0.02,0.708 -0.003,0.451 -0.196,0.254 -0.333,0.115 -0.161,-0.073 0,0" />
    </g>
    <g
       transform="matrix(0.35277777,0,0,-0.35277777,32.197005,275.65577)"
       id="g10508">
      <path
         inkscape:connector-curvature="0"
         id="path10510"
         style="fill:#000000;fill-opacity:1;fill-rule:nonzero;stroke:none"
         d="m 0,0 c 0.145,-0.021 -0.574,1.144 -0.719,1.251 -0.605,0.449 -1.26,0.653 -2.006,0.7 -1.23,0.077 -2.607,-1.09 -2.675,-2.306 -0.019,-0.322 0.425,-0.41 0.581,-0.158 0.515,0.839 1.024,1.576 2.094,1.668 1.046,0.091 1.907,-0.639 2.476,-1.421 0.054,-0.073 0.118,-0.099 0.208,-0.084 0.014,0.002 0.027,0.004 0.041,0.006 0.169,0.028 0.172,0.32 0,0.344" />
    </g>
    <g
       transform="matrix(0.35277777,0,0,-0.35277777,31.531415,276.23697)"
       id="g10512">
      <path
         inkscape:connector-curvature="0"
         id="path10514"
         style="fill:#000000;fill-opacity:1;fill-rule:nonzero;stroke:none"
         d="m 0,0 c -0.155,0.156 -0.187,0.392 -0.349,0.558 -0.237,0.241 -0.562,0.428 -0.843,0.61 -0.545,0.352 -1.226,0.268 -1.843,0.268 -0.508,0.001 -0.508,-0.79 0,-0.787 0.478,0.003 1.032,0.1 1.471,-0.117 0.47,-0.232 0.888,-0.573 1.368,-0.786 C -0.036,-0.325 0.139,-0.139 0,0" />
    </g>
    <g
       transform="matrix(0.35277777,0,0,-0.35277777,16.715105,296.06417)"
       id="g10516">
      <path
         inkscape:connector-curvature="0"
         id="path10518"
         style="fill:#000000;fill-opacity:1;fill-rule:nonzero;stroke:none"
         d="m 0,0 0.442,8.256 c 0.021,0.387 -0.579,0.385 -0.599,0 L -0.6,0 C -0.62,-0.387 -0.021,-0.385 0,0" />
    </g>
    <g
       transform="matrix(0.35277777,0,0,-0.35277777,29.049905,296.06538)"
       id="g10520">
      <path
         inkscape:connector-curvature="0"
         id="path10522"
         style="fill:#000000;fill-opacity:1;fill-rule:nonzero;stroke:none"
         d="M 0,0 C -0.099,2.754 -0.197,5.508 -0.297,8.263 -0.311,8.648 -0.91,8.65 -0.896,8.263 -0.798,5.508 -0.699,2.754 -0.6,0 -0.586,-0.386 0.014,-0.387 0,0" />
    </g>
    <g
       transform="matrix(0.35277777,0,0,-0.35277777,22.944525,285.33165)"
       id="g10524">
      <path
         inkscape:connector-curvature="0"
         id="path10526"
         style="fill:#64ad99;fill-opacity:1;fill-rule:nonzero;stroke:none"
         d="m 0,0 c -3.875,0 -5.166,1.297 -6.333,1.297 -1.883,0 -3.219,-2.766 -3.969,-5.297 0.928,-2.022 5.011,-4 9.261,-3.917 4.25,0.084 8.095,-0.209 11.838,3.945 0,0 -0.547,6.188 -4.172,5.097 C 2.867,-0.006 4.25,0 0,0" />
    </g>
    <g
       transform="matrix(0.35277777,0,0,-0.35277777,19.978295,275.49885)"
       id="g10528">
      <path
         inkscape:connector-curvature="0"
         id="path10530"
         style="fill:#000000;fill-opacity:1;fill-rule:nonzero;stroke:none"
         d="m 0,0 c 0,-0.922 -0.582,-1.67 -1.3,-1.67 -0.718,0 -1.3,0.748 -1.3,1.67 0,0.922 0.582,1.67 1.3,1.67 C -0.582,1.67 0,0.922 0,0" />
    </g>
    <g
       transform="matrix(0.35277777,0,0,-0.35277777,27.106875,275.60892)"
       id="g10532">
      <path
         inkscape:connector-curvature="0"
         id="path10534"
         style="fill:#000000;fill-opacity:1;fill-rule:nonzero;stroke:none"
         d="m 0,0 c 0,-0.922 -0.582,-1.67 -1.3,-1.67 -0.719,0 -1.301,0.748 -1.301,1.67 0,0.922 0.582,1.67 1.301,1.67 C -0.582,1.67 0,0.922 0,0" />
    </g>
    <g
       transform="matrix(0.35277777,0,0,-0.35277777,22.672005,277.96156)"
       id="g10536">
      <path
         inkscape:connector-curvature="0"
         id="path10538"
         style="fill:#000000;fill-opacity:1;fill-rule:nonzero;stroke:none"
         d="m 0,0 c -0.239,-0.734 0.353,-1.871 0.906,-2.336 0.53,-0.446 1.836,-0.696 2.443,-0.325 0.204,0.126 0.208,0.426 0,0.551 C 2.818,-1.792 2.096,-2.069 1.513,-1.797 0.881,-1.501 0.682,-0.519 0.355,0.046 0.268,0.198 0.051,0.156 0,0" />
    </g>
    <g
       transform="matrix(0.35277777,0,0,-0.35277777,23.566685,277.18369)"
       id="g10540">
      <path
         inkscape:connector-curvature="0"
         id="path10542"
         style="fill:#000000;fill-opacity:1;fill-rule:nonzero;stroke:none"
         d="M 0,0 C 1.297,-1.388 3.148,2.009 3.137,2.987 3.126,3.825 2.072,4.626 1.259,4.365 0.952,4.269 0.646,4.168 0.343,4.063 -0.806,3.676 -0.64,5.506 -0.63,5.954 c 0.03,1.419 -0.055,2.987 0.35,4.36 0.123,0.418 -0.519,0.591 -0.651,0.179 C -1.32,9.267 -1.288,7.885 -1.313,6.606 -1.329,5.805 -1.488,4.719 -1.06,3.986 -0.854,3.635 -0.402,3.291 0.028,3.352 0.371,3.368 0.699,3.447 1.012,3.589 2.272,2.623 2.543,1.827 1.825,1.2 1.539,0.903 0.687,0.004 0.218,0.281 0.038,0.387 -0.137,0.147 0,0" />
    </g>
    <g
       transform="matrix(0.35277777,0,0,-0.35277777,26.253505,272.51005)"
       id="g10544">
      <path
         inkscape:connector-curvature="0"
         id="path10546"
         style="fill:#000000;fill-opacity:1;fill-rule:nonzero;stroke:none"
         d="m 0,0 c -0.044,-0.079 -0.071,-0.131 -0.08,-0.22 -0.015,-0.141 0.121,-0.23 0.242,-0.242 2.654,-0.267 4.956,-3.17 5.92,-5.474 0.135,-0.322 0.712,-0.329 0.672,0.091 C 6.602,-4.224 5.095,-2.509 3.881,-1.527 3.166,-0.948 2.286,-0.432 1.444,-0.066 1.134,0.068 0.953,0.095 0.635,0.07 0.143,0.032 0.521,-0.351 0.324,0 0.256,0.122 0.068,0.122 0,0" />
    </g>
    <g
       transform="matrix(0.35277777,0,0,-0.35277777,19.519755,272.76705)"
       id="g10548">
      <path
         inkscape:connector-curvature="0"
         id="path10550"
         style="fill:#000000;fill-opacity:1;fill-rule:nonzero;stroke:none"
         d="m 0,0 c -1.191,-0.008 -2.627,-0.404 -3.563,-1.187 -1.236,-1.035 -2.508,-2.514 -3.364,-3.878 -0.209,-0.333 0.284,-0.723 0.549,-0.423 1.908,2.161 3.368,4.548 6.442,5.014 C 0.339,-0.433 0.266,0.002 0,0" />
    </g>
    <g
       transform="matrix(0.35277777,0,0,-0.35277777,31.195855,267.59356)"
       id="g10552">
      <path
         inkscape:connector-curvature="0"
         id="path10554"
         style="fill:#2c2945;fill-opacity:1;fill-rule:nonzero;stroke:none"
         d="M 0,0 C -1.833,3.4 -4.613,6.452 -8.848,8.302 -19.52,12.963 -27.074,10.313 -30.322,8.588 -21.917,1.643 -11.047,-0.372 0,0" />
    </g>
    <g
       transform="matrix(0.35277777,0,0,-0.35277777,29.191825,273.04317)"
       id="g10556">
      <path
         inkscape:connector-curvature="0"
         id="path10558"
         style="fill:#2c2945;fill-opacity:1;fill-rule:nonzero;stroke:none"
         d="M 0,0 C 1.667,-0.25 3.249,-1.492 3.249,-1.492 6.415,-0.734 9.182,-3.38 9.182,-3.38 9.061,-3.226 9.353,-0.061 8.913,4.123 5.525,4.353 2.166,4.949 -1.109,5.881 -0.27,3.458 0,0 0,0" />
    </g>
    <g
       transform="matrix(0.35277777,0,0,-0.35277777,19.527305,264.93912)"
       id="g10560">
      <path
         inkscape:connector-curvature="0"
         id="path10562"
         style="fill:#2c2945;fill-opacity:1;fill-rule:nonzero;stroke:none"
         d="m 0,0 c -8.076,0.366 -15.791,-5.547 -18.354,-11.556 -2.667,-6.25 1.184,-14.273 1.184,-14.273 3.269,2.143 4.967,1.398 4.967,1.398 4.652,1.959 11.348,2.875 11.348,2.875 l 0.834,6.5 c 0.833,-1.333 1.583,-6.5 1.583,-6.5 h 7.54 c 5.04,0 16.377,-0.875 16.377,-0.875 l 0.596,5.404 C 15.996,-14.111 6.737,-8.061 0,0" />
    </g>
    <g
       transform="matrix(0.35277777,0,0,-0.35277777,20.498815,264.56394)"
       id="g10564">
      <path
         inkscape:connector-curvature="0"
         id="path10566"
         style="fill:#343351;fill-opacity:1;fill-rule:nonzero;stroke:none"
         d="m 0,0 c -1.165,-0.619 -1.781,-1.119 -1.781,-1.119 -0.325,0.035 -0.649,0.041 -0.973,0.056 6.737,-8.061 15.996,-14.111 26.075,-17.028 l 0.043,0.388 c 0.059,-0.145 0.115,-0.296 0.168,-0.451 3.276,-0.933 6.635,-1.529 10.023,-1.759 -0.364,3.453 -1.224,7.599 -3.233,11.325 C 19.275,-8.959 8.405,-6.945 0,0" />
    </g>
    <g
       transform="matrix(0.35277777,0,0,-0.35277777,21.570275,278.33984)"
       id="g10568">
      <path
         inkscape:connector-curvature="0"
         id="path10570"
         style="fill:#f9b28f;fill-opacity:1;fill-rule:nonzero;stroke:none"
         d="m 0,0 c -0.41,-1.818 -3.072,-2.767 -5.945,-2.118 -2.872,0.648 -4.869,2.647 -4.459,4.466 0.41,1.818 3.072,2.766 5.945,2.118 C -1.587,3.818 0.41,1.818 0,0" />
    </g>
    <g
       transform="matrix(0.35277777,0,0,-0.35277777,28.705385,277.41363)"
       id="g10572">
      <path
         inkscape:connector-curvature="0"
         id="path10574"
         style="fill:#f9b28f;fill-opacity:1;fill-rule:nonzero;stroke:none"
         d="m 0,0 c 0.562,-1.777 -1.261,-3.937 -4.069,-4.824 -2.808,-0.886 -5.54,-0.164 -6.101,1.614 -0.561,1.777 1.261,3.937 4.069,4.823 C -3.293,2.5 -0.561,1.778 0,0" />
    </g>
    <g
       transform="matrix(0.35277777,0,0,-0.35277777,19.722325,287.24455)"
       id="g10576">
      <path
         inkscape:connector-curvature="0"
         id="path10578"
         style="fill:#000000;fill-opacity:1;fill-rule:nonzero;stroke:none"
         d="M 0,0 C 4.748,-3.592 14.378,-4.579 18.84,0.008 19.064,0.238 18.766,0.659 18.488,0.465 13.202,-3.234 5.597,-2.898 0.104,0.178 -0.016,0.245 -0.104,0.078 0,0" />
    </g>
    <g
       transform="matrix(0.35277777,0,0,-0.35277777,19.938995,287.01098)"
       id="g10580">
      <path
         inkscape:connector-curvature="0"
         id="path10582"
         style="fill:#000000;fill-opacity:1;fill-rule:nonzero;stroke:none"
         d="M 0,0 C 0.593,1.497 1.312,2.926 1.981,4.387 2.088,4.622 1.792,4.908 1.599,4.683 0.587,3.505 0.016,1.582 -0.375,0.104 -0.44,-0.145 -0.09,-0.228 0,0" />
    </g>
    <g
       transform="matrix(0.35277777,0,0,-0.35277777,20.981135,287.39096)"
       id="g10584">
      <path
         inkscape:connector-curvature="0"
         id="path10586"
         style="fill:#000000;fill-opacity:1;fill-rule:nonzero;stroke:none"
         d="M 0,0 C 0.01,-0.016 0.021,-0.032 0.031,-0.048 0.132,-0.201 0.373,-0.144 0.377,0.045 0.411,1.604 0.665,3.09 1.017,4.604 1.089,4.918 0.625,5.048 0.532,4.737 0.082,3.219 -0.028,1.621 0.006,0.045 0.099,0.099 0.192,0.152 0.285,0.206 0.269,0.216 0.253,0.227 0.237,0.237 0.093,0.332 -0.095,0.144 0,0" />
    </g>
    <g
       transform="matrix(0.35277777,0,0,-0.35277777,22.070835,287.50656)"
       id="g10588">
      <path
         inkscape:connector-curvature="0"
         id="path10590"
         style="fill:#000000;fill-opacity:1;fill-rule:nonzero;stroke:none"
         d="M 0,0 C 0.007,-0.016 0.013,-0.032 0.02,-0.048 0.087,-0.213 0.372,-0.212 0.357,-0.002 0.247,1.622 0.459,3.258 0.347,4.873 0.328,5.13 -0.089,5.225 -0.133,4.938 -0.366,3.417 -0.396,1.438 0.02,-0.048 0.104,0.017 0.188,0.082 0.272,0.147 0.255,0.154 0.237,0.162 0.221,0.169 0.117,0.214 -0.057,0.138 0,0" />
    </g>
    <g
       transform="matrix(0.35277777,0,0,-0.35277777,23.002735,285.65515)"
       id="g10592">
      <path
         inkscape:connector-curvature="0"
         id="path10594"
         style="fill:#000000;fill-opacity:1;fill-rule:nonzero;stroke:none"
         d="M 0,0 C 0.074,-0.841 0.163,-1.678 0.246,-2.519 0.324,-3.298 0.265,-4.092 0.418,-4.861 0.478,-5.16 0.916,-5.073 0.929,-4.792 1.003,-3.177 0.758,-1.56 0.41,0.014 0.39,0.108 0.3,0.159 0.211,0.166 0.197,0.167 0.183,0.167 0.169,0.169 0.083,0.175 -0.008,0.087 0,0" />
    </g>
    <g
       transform="matrix(0.35277777,0,0,-0.35277777,24.299825,287.72772)"
       id="g10596">
      <path
         inkscape:connector-curvature="0"
         id="path10598"
         style="fill:#000000;fill-opacity:1;fill-rule:nonzero;stroke:none"
         d="m 0,0 c -0.002,-0.014 -0.004,-0.028 -0.006,-0.042 h 0.33 C 0.317,1.881 0.427,4.202 -0.266,6.025 -0.381,6.328 -0.808,6.212 -0.75,5.892 -0.392,3.921 -0.431,1.859 0,-0.085 0.04,-0.264 0.348,-0.227 0.324,-0.042 0.322,-0.028 0.32,-0.014 0.318,0 0.292,0.205 0.026,0.205 0,0" />
    </g>
    <g
       transform="matrix(0.35277777,0,0,-0.35277777,24.655675,285.43847)"
       id="g10600">
      <path
         inkscape:connector-curvature="0"
         id="path10602"
         style="fill:#000000;fill-opacity:1;fill-rule:nonzero;stroke:none"
         d="M 0,0 C 0.234,-0.658 0.476,-1.31 0.686,-1.977 0.914,-2.7 1.001,-3.463 1.271,-4.173 1.354,-4.389 1.724,-4.379 1.704,-4.114 1.592,-2.646 1.029,-1.149 0.364,0.153 0.263,0.353 -0.075,0.213 0,0" />
    </g>
    <g
       transform="matrix(0.35277777,0,0,-0.35277777,25.494575,285.15907)"
       id="g10604">
      <path
         inkscape:connector-curvature="0"
         id="path10606"
         style="fill:#000000;fill-opacity:1;fill-rule:nonzero;stroke:none"
         d="M 0,0 C 0.02,-0.054 0.036,-0.101 0.076,-0.144 0.211,-0.286 0.444,-0.174 0.448,0.011 0.449,0.024 0.449,0.039 0.449,0.052 0.313,0.015 0.178,-0.021 0.041,-0.058 0.437,-0.633 0.828,-1.188 1.063,-1.85 1.315,-2.558 1.45,-3.284 1.637,-4.008 1.7,-4.258 2.086,-4.204 2.083,-3.948 2.066,-2.405 1.319,-1.033 0.42,0.163 0.298,0.324 0.006,0.29 0.012,0.052 c 0,-0.013 0,-0.028 10e-4,-0.041 C 0.137,0.062 0.261,0.114 0.385,0.165 0.343,0.206 0.295,0.222 0.242,0.242 0.105,0.294 -0.05,0.135 0,0" />
    </g>
  </g>
</svg>
