<?xml version="1.0" encoding="UTF-8" standalone="no"?>
<!-- Created with Inkscape (http://www.inkscape.org/) -->

<svg
   xmlns:dc="http://purl.org/dc/elements/1.1/"
   xmlns:cc="http://creativecommons.org/ns#"
   xmlns:rdf="http://www.w3.org/1999/02/22-rdf-syntax-ns#"
   xmlns:svg="http://www.w3.org/2000/svg"
   xmlns="http://www.w3.org/2000/svg"
   xmlns:xlink="http://www.w3.org/1999/xlink"
   xmlns:sodipodi="http://sodipodi.sourceforge.net/DTD/sodipodi-0.dtd"
   xmlns:inkscape="http://www.inkscape.org/namespaces/inkscape"
   width="174"
   height="174"
   viewBox="0 0 46.037499 46.037501"
   version="1.1"
   id="svg17389"
   inkscape:version="0.92.0 r15299"
   sodipodi:docname="avatar_cli_5.svg">
  <defs
     id="defs17383">
    <clipPath
       id="SVGID_2_">
      <use
         xlink:href="#SVGID_1_"
         style="overflow:visible"
         id="use16139"
         x="0"
         y="0"
         width="100%"
         height="100%" />
    </clipPath>
    <clipPath
       id="SVGID_2_-3">
      <use
         height="100%"
         width="100%"
         y="0"
         x="0"
         xlink:href="#SVGID_1_"
         style="overflow:visible"
         id="use16139-9" />
    </clipPath>
    <clipPath
       id="clipPath17634">
      <use
         height="100%"
         width="100%"
         y="0"
         x="0"
         xlink:href="#SVGID_1_"
         style="overflow:visible"
         id="use17632" />
    </clipPath>
    <radialGradient
       id="SVGID_3_"
       cx="75.133301"
       cy="77.205597"
       r="2.615"
       gradientUnits="userSpaceOnUse">
      <stop
         offset="0"
         style="stop-color:#2E4962"
         id="stop16170" />
      <stop
         offset="0.0185"
         style="stop-color:#314E68"
         id="stop16172" />
      <stop
         offset="0.1059"
         style="stop-color:#3C627D"
         id="stop16174" />
      <stop
         offset="0.209"
         style="stop-color:#44728E"
         id="stop16176" />
      <stop
         offset="0.3362"
         style="stop-color:#4A7D9A"
         id="stop16178" />
      <stop
         offset="0.514"
         style="stop-color:#4D83A1"
         id="stop16180" />
      <stop
         offset="1"
         style="stop-color:#4E85A3"
         id="stop16182" />
    </radialGradient>
    <radialGradient
       id="SVGID_4_"
       cx="456.70871"
       cy="77.205597"
       r="2.6150999"
       gradientTransform="matrix(-1,0,0,1,557.3896,0)"
       gradientUnits="userSpaceOnUse">
      <stop
         offset="0"
         style="stop-color:#2E4962"
         id="stop16199" />
      <stop
         offset="0.0185"
         style="stop-color:#314E68"
         id="stop16201" />
      <stop
         offset="0.1059"
         style="stop-color:#3C627D"
         id="stop16203" />
      <stop
         offset="0.209"
         style="stop-color:#44728E"
         id="stop16205" />
      <stop
         offset="0.3362"
         style="stop-color:#4A7D9A"
         id="stop16207" />
      <stop
         offset="0.514"
         style="stop-color:#4D83A1"
         id="stop16209" />
      <stop
         offset="1"
         style="stop-color:#4E85A3"
         id="stop16211" />
    </radialGradient>
    <ellipse
       id="SVGID_1_"
       cx="87"
       cy="87"
       rx="86.957001"
       ry="87" />
    <clipPath
       id="SVGID_2_-7">
      <use
         xlink:href="#SVGID_1_"
         style="overflow:visible"
         id="use16139-4"
         x="0"
         y="0"
         width="100%"
         height="100%" />
    </clipPath>
  </defs>
  <sodipodi:namedview
     id="base"
     pagecolor="#ffffff"
     bordercolor="#666666"
     borderopacity="1.0"
     inkscape:pageopacity="0.0"
     inkscape:pageshadow="2"
     inkscape:zoom="0.7"
     inkscape:cx="376.90438"
     inkscape:cy="129.87384"
     inkscape:document-units="mm"
     inkscape:current-layer="layer1"
     showgrid="false"
     inkscape:window-width="732"
     inkscape:window-height="453"
     inkscape:window-x="273"
     inkscape:window-y="220"
     inkscape:window-maximized="0"
     units="px" />
  <metadata
     id="metadata17386">
    <rdf:RDF>
      <cc:Work
         rdf:about="">
        <dc:format>image/svg+xml</dc:format>
        <dc:type
           rdf:resource="http://purl.org/dc/dcmitype/StillImage" />
        <dc:title></dc:title>
      </cc:Work>
    </rdf:RDF>
  </metadata>
  <g
     inkscape:label="Layer 1"
     inkscape:groupmode="layer"
     id="layer1"
     transform="translate(0,-250.96248)">
    <ellipse
       style="fill:#f5994b"
       cx="87"
       cy="87"
       rx="86.957001"
       ry="87"
       clip-path="url(#SVGID_2_)"
       id="ellipse16142"
       transform="matrix(0.26458333,0,0,0.26458333,52.160714,-56.696429)" />
    <ellipse
       style="fill:#f19a91;fill-opacity:1"
       cx="87"
       cy="87"
       rx="86.957001"
       ry="87"
       clip-path="url(#SVGID_2_)"
       id="ellipse16142-4"
       transform="matrix(0.26458333,0,0,0.26458333,0.03779745,250.84911)" />
    <g
       transform="matrix(0.35277777,0,0,-0.35277777,16.939811,296.05386)"
       id="g10888">
      <path
         inkscape:connector-curvature="0"
         id="path10890"
         style="fill:#000000;fill-opacity:1;fill-rule:nonzero;stroke:none"
         d="m 0,0 c 0.147,2.752 0.294,5.504 0.441,8.256 0.021,0.387 -0.579,0.385 -0.599,0 C -0.306,5.504 -0.453,2.752 -0.6,0 -0.621,-0.387 -0.021,-0.385 0,0" />
    </g>
    <g
       transform="matrix(0.35277777,0,0,-0.35277777,29.274261,296.05527)"
       id="g10892">
      <path
         inkscape:connector-curvature="0"
         id="path10894"
         style="fill:#000000;fill-opacity:1;fill-rule:nonzero;stroke:none"
         d="m 0,0 -0.296,8.262 c -0.014,0.384 -0.614,0.386 -0.6,0 L -0.6,0 C -0.586,-0.387 0.014,-0.387 0,0" />
    </g>
    <g
       transform="matrix(0.35277777,0,0,-0.35277777,26.076541,286.6343)"
       id="g10896">
      <path
         inkscape:connector-curvature="0"
         id="path10898"
         style="fill:#549e87;fill-opacity:1;fill-rule:nonzero;stroke:none"
         d="m 0,0 -16,-0.139 c 0,0 -1.079,-0.086 -2.641,-0.371 -1.161,-0.21 -2.591,-0.534 -4.045,-1.01 9.639,-6.025 21.433,-5.742 31.311,-1.017 C 7.095,-1.545 5.109,-0.688 2.561,-0.27 1.758,-0.139 0.918,-0.035 0,0" />
    </g>
    <g
       transform="matrix(0.35277777,0,0,-0.35277777,18.073391,287.17035)"
       id="g10900">
      <path
         inkscape:connector-curvature="0"
         id="path10902"
         style="fill:#64ad99;fill-opacity:1;fill-rule:nonzero;stroke:none"
         d="M 0,0 C -1.531,-0.501 -3.089,-1.172 -4.396,-2.07 -6,-3.174 -7.222,-4.617 -7.537,-6.5 c -0.149,-0.889 -0.308,-1.863 -0.471,-2.877 -0.351,-2.184 -0.721,-4.555 -1.05,-6.691 -0.577,-3.748 -1.028,-6.774 -1.028,-6.774 0,0 25.184,-11.414 48.375,0.164 l -1.088,7.446 -0.946,6.464 -0.376,2.577 c 0,0 -0.87,2.287 -3.449,4.371 -0.339,0.273 -0.717,0.541 -1.119,0.802 C 21.433,-5.742 9.639,-6.025 0,0" />
    </g>
    <g
       transform="matrix(0.35277777,0,0,-0.35277777,17.147521,275.75037)"
       id="g10904">
      <path
         inkscape:connector-curvature="0"
         id="path10906"
         style="fill:#f9b28f;fill-opacity:1;fill-rule:nonzero;stroke:none"
         d="m 0,0 c 0.012,-3.464 -2.665,-6.281 -5.979,-6.293 -3.313,-0.011 -6.009,2.789 -6.021,6.254 -0.012,3.463 2.666,6.281 5.979,6.293 C -2.707,6.265 -0.012,3.465 0,0" />
    </g>
    <g
       transform="matrix(0.35277777,0,0,-0.35277777,33.198911,275.69593)"
       id="g10908">
      <path
         inkscape:connector-curvature="0"
         id="path10910"
         style="fill:#f9b28f;fill-opacity:1;fill-rule:nonzero;stroke:none"
         d="m 0,0 c 0.012,-3.465 -2.666,-6.282 -5.979,-6.293 -3.314,-0.012 -6.009,2.787 -6.021,6.252 -0.012,3.465 2.666,6.282 5.979,6.293 C -2.707,6.264 -0.012,3.464 0,0" />
    </g>
    <g
       transform="matrix(0.35277777,0,0,-0.35277777,20.432091,286.6832)"
       id="g10912">
      <path
         inkscape:connector-curvature="0"
         id="path10914"
         style="fill:#fcceb6;fill-opacity:1;fill-rule:nonzero;stroke:none"
         d="M 0,0 C 0,0 2.092,-2.574 7.759,-2.557 13.426,-2.537 16,0.139 16,0.139 c 0,0 -2.02,1.892 -3.332,5.017 C 9.402,3.693 5.744,2.871 2.067,2.691 1.548,1.682 0.874,0.734 0,0" />
    </g>
    <g
       transform="matrix(0.35277777,0,0,-0.35277777,21.769831,283.40607)"
       id="g10916">
      <path
         inkscape:connector-curvature="0"
         id="path10918"
         style="fill:#f9b28f;fill-opacity:1;fill-rule:nonzero;stroke:none"
         d="M 0,0 C 0,0 -0.169,-3.573 -1.725,-6.598 1.952,-6.418 5.61,-5.596 8.876,-4.133 8.351,-2.882 7.936,-1.439 7.813,0.168 7.813,0.168 3.321,-0.895 0,0" />
    </g>
    <g
       transform="matrix(0.35277777,0,0,-0.35277777,13.543791,275.83098)"
       id="g10920">
      <path
         inkscape:connector-curvature="0"
         id="path10922"
         style="fill:#000000;fill-opacity:1;fill-rule:nonzero;stroke:none"
         d="M 0,0 0.04,-0.006 C 0.129,-0.02 0.194,0.004 0.248,0.079 0.753,0.784 1.292,1.215 2.145,1.45 3.44,1.806 4.218,0.829 4.82,-0.135 4.976,-0.384 5.421,-0.301 5.401,0.022 5.316,1.363 3.95,2.228 2.712,2.313 2.008,2.361 1.256,2.01 0.71,1.601 0.566,1.492 -0.146,0.322 0,0.344 -0.171,0.318 -0.171,0.026 0,0" />
    </g>
    <g
       transform="matrix(0.35277777,0,0,-0.35277777,14.281731,276.37566)"
       id="g10924">
      <path
         inkscape:connector-curvature="0"
         id="path10926"
         style="fill:#000000;fill-opacity:1;fill-rule:nonzero;stroke:none"
         d="M 0,0 C 0.42,0.189 0.826,0.456 1.213,0.706 1.698,1.018 2.28,0.924 2.832,0.922 3.339,0.92 3.339,1.711 2.832,1.709 2.25,1.707 1.683,1.745 1.139,1.513 0.823,1.378 0.52,1.118 0.255,0.901 0.021,0.708 -0.002,0.452 -0.196,0.254 -0.332,0.115 -0.161,-0.073 0,0" />
    </g>
    <g
       transform="matrix(0.35277777,0,0,-0.35277777,32.421181,275.64633)"
       id="g10928">
      <path
         inkscape:connector-curvature="0"
         id="path10930"
         style="fill:#000000;fill-opacity:1;fill-rule:nonzero;stroke:none"
         d="M 0,0 C 0.139,-0.021 -0.57,1.142 -0.718,1.251 -1.324,1.7 -1.978,1.904 -2.724,1.951 -3.955,2.029 -5.332,0.86 -5.4,-0.355 c -0.018,-0.322 0.426,-0.41 0.581,-0.158 0.514,0.838 1.025,1.578 2.095,1.669 1.046,0.089 1.906,-0.639 2.475,-1.421 0.054,-0.074 0.119,-0.098 0.208,-0.085 0.014,0.002 0.027,0.004 0.041,0.006 0.171,0.026 0.171,0.318 0,0.344" />
    </g>
    <g
       transform="matrix(0.35277777,0,0,-0.35277777,31.755771,276.22753)"
       id="g10932">
      <path
         inkscape:connector-curvature="0"
         id="path10934"
         style="fill:#000000;fill-opacity:1;fill-rule:nonzero;stroke:none"
         d="m 0,0 c -0.155,0.157 -0.186,0.393 -0.349,0.558 -0.237,0.241 -0.561,0.429 -0.842,0.61 -0.544,0.351 -1.227,0.27 -1.843,0.269 -0.508,-0.001 -0.508,-0.792 0,-0.788 0.477,0.005 1.033,0.1 1.471,-0.116 C -1.093,0.3 -0.675,-0.04 -0.196,-0.254 -0.035,-0.326 0.137,-0.139 0,0" />
    </g>
    <g
       transform="matrix(0.35277777,0,0,-0.35277777,16.939811,296.05386)"
       id="g10936">
      <path
         inkscape:connector-curvature="0"
         id="path10938"
         style="fill:#000000;fill-opacity:1;fill-rule:nonzero;stroke:none"
         d="m 0,0 c 0.147,2.752 0.294,5.504 0.441,8.256 0.021,0.387 -0.579,0.385 -0.599,0 C -0.306,5.504 -0.453,2.752 -0.6,0 -0.621,-0.387 -0.021,-0.385 0,0" />
    </g>
    <g
       transform="matrix(0.35277777,0,0,-0.35277777,29.274261,296.05527)"
       id="g10940">
      <path
         inkscape:connector-curvature="0"
         id="path10942"
         style="fill:#000000;fill-opacity:1;fill-rule:nonzero;stroke:none"
         d="m 0,0 -0.296,8.262 c -0.014,0.384 -0.614,0.386 -0.6,0 L -0.6,0 C -0.586,-0.387 0.014,-0.387 0,0" />
    </g>
    <g
       transform="matrix(0.35277777,0,0,-0.35277777,30.621301,274.91047)"
       id="g10944">
      <path
         inkscape:connector-curvature="0"
         id="path10946"
         style="fill:#fcceb6;fill-opacity:1;fill-rule:nonzero;stroke:none"
         d="M 0,0 C -0.156,12.951 -4.215,26.557 -21.709,26.486 -37.08,26.425 -42.988,13.092 -43.232,0.266 c -0.006,-0.327 -0.012,-0.654 -0.01,-0.979 0.032,-9.607 5.258,-17.859 12.743,-21.574 11.758,-0.311 22.524,6.056 29.694,15.187 0.533,2.079 0.82,4.268 0.813,6.533 C 0.007,-0.379 0.002,-0.189 0,0" />
    </g>
    <g
       transform="matrix(0.35277777,0,0,-0.35277777,19.861931,282.77287)"
       id="g10948">
      <path
         inkscape:connector-curvature="0"
         id="path10950"
         style="fill:#f9b28f;fill-opacity:1;fill-rule:nonzero;stroke:none"
         d="M 0,0 C 2.733,-1.357 5.767,-2.113 8.962,-2.104 18.842,-2.07 27.144,5.238 29.694,15.188 22.524,6.056 11.758,-0.311 0,0" />
    </g>
    <g
       transform="matrix(0.35277777,0,0,-0.35277777,20.220221,275.24635)"
       id="g10952">
      <path
         inkscape:connector-curvature="0"
         id="path10954"
         style="fill:#000000;fill-opacity:1;fill-rule:nonzero;stroke:none"
         d="m 0,0 c 0,-0.923 -0.582,-1.67 -1.3,-1.67 -0.719,0 -1.301,0.747 -1.301,1.67 0,0.923 0.582,1.67 1.301,1.67 C -0.582,1.67 0,0.923 0,0" />
    </g>
    <g
       transform="matrix(0.35277777,0,0,-0.35277777,27.456641,275.24635)"
       id="g10956">
      <path
         inkscape:connector-curvature="0"
         id="path10958"
         style="fill:#000000;fill-opacity:1;fill-rule:nonzero;stroke:none"
         d="m 0,0 c 0,-0.923 -0.582,-1.67 -1.3,-1.67 -0.718,0 -1.3,0.747 -1.3,1.67 0,0.923 0.582,1.67 1.3,1.67 C -0.582,1.67 0,0.923 0,0" />
    </g>
    <g
       transform="matrix(0.35277777,0,0,-0.35277777,17.206791,269.78242)"
       id="g10960">
      <path
         inkscape:connector-curvature="0"
         id="path10962"
         style="fill:#feb01b;fill-opacity:1;fill-rule:nonzero;stroke:none"
         d="M 0,0 C 0.062,0.412 0.107,0.73 0.136,0.936 0.045,0.941 -0.047,0.943 -0.137,0.949 -0.115,0.743 -0.075,0.396 0,0" />
    </g>
    <g
       transform="matrix(0.35277777,0,0,-0.35277777,17.149601,269.4469)"
       id="g10964">
      <path
         inkscape:connector-curvature="0"
         id="path10966"
         style="fill:#feb01b;fill-opacity:1;fill-rule:nonzero;stroke:none"
         d="M 0,0 C 0.008,-0.001 0.018,-0.001 0.025,-0.002 0.001,0.237 0,0.291 0,0" />
    </g>
    <g
       transform="matrix(0.35277777,0,0,-0.35277777,22.929091,277.74716)"
       id="g10968">
      <path
         inkscape:connector-curvature="0"
         id="path10970"
         style="fill:#000000;fill-opacity:1;fill-rule:nonzero;stroke:none"
         d="m 0,0 c -0.241,-0.734 0.352,-1.871 0.905,-2.336 0.531,-0.446 1.837,-0.696 2.443,-0.325 0.205,0.125 0.208,0.426 0,0.551 -0.53,0.317 -1.252,0.04 -1.836,0.313 C 0.879,-1.501 0.681,-0.519 0.355,0.046 0.268,0.198 0.051,0.156 0,0" />
    </g>
    <g
       transform="matrix(0.35277777,0,0,-0.35277777,24.240821,277.07914)"
       id="g10972">
      <path
         inkscape:connector-curvature="0"
         id="path10974"
         style="fill:#000000;fill-opacity:1;fill-rule:nonzero;stroke:none"
         d="m 0,0 c 1.543,-0.103 3.302,4.208 1.577,5.218 -1.559,0.913 -3.328,-2.395 -4.028,0.19 -0.853,3.155 -0.386,8.344 0.619,11.421 0.174,0.533 -0.664,0.76 -0.836,0.231 C -3.894,13.293 -4.05,8.081 -2.97,4.255 -2.856,3.85 -2.508,3.001 -1.979,2.988 -1.842,2.985 -1.42,2.911 -1.222,3.027 -0.935,3.248 -0.653,3.474 -0.376,3.706 1.433,2.624 1.558,1.518 0,0.389 -0.25,0.372 -0.25,0.017 0,0" />
    </g>
    <g
       transform="matrix(0.35277777,0,0,-0.35277777,28.965581,268.76166)"
       id="g10976">
      <path
         inkscape:connector-curvature="0"
         id="path10978"
         style="fill:#1e1d35;fill-opacity:1;fill-rule:nonzero;stroke:none"
         d="m 0,0 c 0.153,-0.25 0.645,-9.537 4.524,-13.603 0,0 1.941,0.55 3.271,-0.088 0,0 -0.475,11.857 -2.392,15.357 C 3.487,5.166 0,0 0,0" />
    </g>
    <g
       transform="matrix(0.35277777,0,0,-0.35277777,24.382391,262.78338)"
       id="g10980">
      <path
         inkscape:connector-curvature="0"
         id="path10982"
         style="fill:#343351;fill-opacity:1;fill-rule:nonzero;stroke:none"
         d="m 0,0 c -1.278,-0.114 -2.834,-0.139 -4.772,-0.03 -1.62,0.092 -3.104,0.077 -4.48,-0.003 -5.674,-5.523 -13.189,-9.271 -21.058,-11.543 -0.837,-1.243 -1.391,-2.57 -1.732,-3.927 C -19.332,-13.961 -8.221,-9.009 0,0" />
    </g>
    <g
       transform="matrix(0.35277777,0,0,-0.35277777,30.342611,265.56666)"
       id="g10984">
      <path
         inkscape:connector-curvature="0"
         id="path10986"
         style="fill:#2c2945;fill-opacity:1;fill-rule:nonzero;stroke:none"
         d="m 0,0 c 3.504,8.455 -2.667,11.776 -7.333,11.609 -3.903,-0.139 -3.032,-3.132 -9.562,-3.719 -8.221,-9.009 -19.332,-13.961 -32.042,-15.503 -1.871,-7.438 2.708,-15.741 2.708,-15.741 1.663,1.38 4.562,0.38 4.562,0.38 1.834,3 4.567,13.5 4.567,13.5 0,0 13.522,-2.192 24.267,-2.917 8.587,-0.578 15.416,2.25 16.157,8.084 C 4.065,1.526 0,0 0,0" />
    </g>
    <g
       transform="matrix(0.35277777,0,0,-0.35277777,13.689701,266.86721)"
       id="g10988">
      <path
         inkscape:connector-curvature="0"
         id="path10990"
         style="fill:#2c2945;fill-opacity:1;fill-rule:nonzero;stroke:none"
         d="M 0,0 C 7.869,2.272 15.384,6.021 21.058,11.543 12.377,11.037 8.455,7.63 8.455,7.63 c 0,0 0.25,5.916 -1.583,5.833 -1.834,-0.083 -1.167,-7.5 -1.167,-7.5 0,0 -2.583,6 -4.108,4.75 C 0.073,9.463 3.802,3.687 3.802,3.687 2.141,2.606 0.91,1.352 0,0" />
    </g>
    <g
       transform="matrix(0.35277777,0,0,-0.35277777,23.375251,287.25304)"
       id="g10992">
      <path
         inkscape:connector-curvature="0"
         id="path10994"
         style="fill:#feb01b;fill-opacity:1;fill-rule:nonzero;stroke:none"
         d="m 0,0 c 0,0 -5.878,1.296 -7.21,2.814 l 1.065,1.758 c 0,0 -2.48,0.511 -3.688,-1.989 -1.209,-2.5 -0.186,-2.957 1.49,-4.417 1.676,-1.459 2.51,-3.207 3.76,-3.875 C -3.333,-6.375 -0.625,-2.918 0,0" />
    </g>
    <g
       transform="matrix(0.35277777,0,0,-0.35277777,23.073451,287.16484)"
       id="g10996">
      <path
         inkscape:connector-curvature="0"
         id="path10998"
         style="fill:#feb01b;fill-opacity:1;fill-rule:nonzero;stroke:none"
         d="M 0,0 C 0,0 5.878,1.296 7.21,2.814 L 6.145,4.572 c 0,0 2.48,0.511 3.688,-1.989 1.209,-2.5 0.186,-2.957 -1.49,-4.417 C 6.667,-3.293 5.833,-5.041 4.583,-5.709 3.333,-6.375 0.625,-2.918 0,0" />
    </g>
    <g
       transform="matrix(0.35277777,0,0,-0.35277777,16.942381,273.11762)"
       id="g11000">
      <path
         inkscape:connector-curvature="0"
         id="path11002"
         style="fill:#2c2945;fill-opacity:1;fill-rule:nonzero;stroke:none"
         d="m 0,0 c -0.128,0.197 1.901,5.395 4.366,5.806 1.349,0.067 1.462,-0.591 1.462,-0.591 0,0 1.759,2.099 2.907,0.703 0.337,-0.613 -0.8,-1.622 -0.8,-1.622 0,0 2,0.464 0.916,-1.244 C 7.767,1.345 2.921,2.231 0.378,0.091" />
    </g>
    <g
       transform="matrix(0.35277777,0,0,-0.35277777,29.073601,273.11762)"
       id="g11004">
      <path
         inkscape:connector-curvature="0"
         id="path11006"
         style="fill:#2c2945;fill-opacity:1;fill-rule:nonzero;stroke:none"
         d="m 0,0 c 0.128,0.197 -1.901,5.395 -4.366,5.806 -1.349,0.067 -1.462,-0.591 -1.462,-0.591 0,0 -1.759,2.099 -2.907,0.703 -0.337,-0.613 0.8,-1.622 0.8,-1.622 0,0 -2,0.464 -0.916,-1.244 1.084,-1.707 5.93,-0.821 8.473,-2.961" />
    </g>
    <g
       transform="matrix(0.35277777,0,0,-0.35277777,20.702711,272.91093)"
       id="g11008">
      <path
         inkscape:connector-curvature="0"
         id="path11010"
         style="fill:#3793b5;fill-opacity:1;fill-rule:nonzero;stroke:none"
         d="m 0,0 c -0.286,0 -0.589,-0.01 -0.911,-0.03 -6.485,-0.407 -10.56,-1.803 -10.837,-2.407 -0.261,-2.308 -0.384,-8.579 2.2,-9.884 0.898,-0.454 2.84,-0.737 5.068,-0.737 h 0.001 c 4.298,0 7.823,0.968 8.027,2.204 0.561,3.403 0.665,8.38 0.666,8.43 0.006,0.073 0.064,0.711 -0.477,1.31 C 3.079,-0.385 1.786,0 0,0 M -4.479,-14.058 H -4.48 c -2.411,0 -4.474,0.316 -5.52,0.844 -3.732,1.886 -2.779,10.524 -2.737,10.891 0.049,1.85 7.242,3.007 11.763,3.291 C -0.629,0.989 -0.305,1 0,1 2.126,1 3.642,0.506 4.502,-0.47 5.335,-1.412 5.216,-2.452 5.21,-2.496 c 0,-0.154 -0.103,-5.048 -0.675,-8.521 -0.37,-2.244 -5.087,-3.041 -9.014,-3.041" />
    </g>
    <g
       transform="matrix(0.35277777,0,0,-0.35277777,30.601161,273.74602)"
       id="g11012">
      <path
         inkscape:connector-curvature="0"
         id="path11014"
         style="fill:#3793b5;fill-opacity:1;fill-rule:nonzero;stroke:none"
         d="m 0,0 c -0.053,1.895 -7.245,3.051 -11.767,3.335 -0.344,0.021 -0.668,0.032 -0.973,0.032 -2.127,0 -3.642,-0.494 -4.503,-1.47 -0.829,-0.939 -0.714,-1.974 -0.712,-1.973 0.003,-0.124 0.042,-1.945 0.197,-4.127 0.053,0.021 0.104,0.046 0.168,0.055 0.007,10e-4 0.015,10e-4 0.023,0.002 0.254,0.074 0.525,0.091 0.804,0.067 -0.153,2.184 -0.193,4.013 -0.195,4.074 -0.001,0.007 -0.063,0.642 0.465,1.24 0.654,0.741 1.951,1.132 3.753,1.132 0.285,0 0.589,-0.01 0.911,-0.03 6.485,-0.407 10.56,-1.803 10.832,-2.408 0.267,-2.306 0.392,-8.576 -2.195,-9.883 -0.899,-0.454 -2.841,-0.736 -5.068,-0.736 -4.298,0 -7.824,0.968 -8.029,2.204 -0.03,0.186 -0.059,0.381 -0.087,0.576 -0.109,-0.276 -0.268,-0.524 -0.483,-0.727 -0.089,-0.12 -0.2,-0.227 -0.302,-0.34 0.761,-1.989 5.176,-2.713 8.901,-2.713 2.41,0 4.473,0.315 5.519,0.843 C 0.992,-8.961 0.039,-0.323 0,0" />
    </g>
    <g
       transform="matrix(0.35277777,0,0,-0.35277777,22.317231,275.25256)"
       id="g11016">
      <path
         inkscape:connector-curvature="0"
         id="path11018"
         style="fill:#3793b5;fill-opacity:1;fill-rule:nonzero;stroke:none"
         d="m 0,0 -0.484,0.875 c 0.142,0.078 3.507,1.901 6.927,0 L 5.957,0.001 C 3.034,1.626 0.031,0.016 0,0" />
    </g>
  </g>
</svg>
