<?xml version="1.0" encoding="UTF-8" standalone="no"?>
<!-- Created with Inkscape (http://www.inkscape.org/) -->

<svg
   xmlns:dc="http://purl.org/dc/elements/1.1/"
   xmlns:cc="http://creativecommons.org/ns#"
   xmlns:rdf="http://www.w3.org/1999/02/22-rdf-syntax-ns#"
   xmlns:svg="http://www.w3.org/2000/svg"
   xmlns="http://www.w3.org/2000/svg"
   xmlns:xlink="http://www.w3.org/1999/xlink"
   xmlns:sodipodi="http://sodipodi.sourceforge.net/DTD/sodipodi-0.dtd"
   xmlns:inkscape="http://www.inkscape.org/namespaces/inkscape"
   width="174"
   height="174"
   viewBox="0 0 46.037499 46.037501"
   version="1.1"
   id="svg25058"
   inkscape:version="0.92.0 r15299"
   sodipodi:docname="avatar_cli_12.svg">
  <defs
     id="defs25052">
    <clipPath
       id="SVGID_2_">
      <use
         height="100%"
         width="100%"
         y="0"
         x="0"
         xlink:href="#SVGID_1_"
         style="overflow:visible"
         id="use16139" />
    </clipPath>
    <clipPath
       id="clipPath25264">
      <use
         height="100%"
         width="100%"
         y="0"
         x="0"
         xlink:href="#SVGID_1_"
         style="overflow:visible"
         id="use25262" />
    </clipPath>
    <radialGradient
       id="SVGID_3_"
       cx="75.133301"
       cy="77.205597"
       r="2.615"
       gradientUnits="userSpaceOnUse">
      <stop
         offset="0"
         style="stop-color:#2E4962"
         id="stop16170" />
      <stop
         offset="0.0185"
         style="stop-color:#314E68"
         id="stop16172" />
      <stop
         offset="0.1059"
         style="stop-color:#3C627D"
         id="stop16174" />
      <stop
         offset="0.209"
         style="stop-color:#44728E"
         id="stop16176" />
      <stop
         offset="0.3362"
         style="stop-color:#4A7D9A"
         id="stop16178" />
      <stop
         offset="0.514"
         style="stop-color:#4D83A1"
         id="stop16180" />
      <stop
         offset="1"
         style="stop-color:#4E85A3"
         id="stop16182" />
    </radialGradient>
    <radialGradient
       id="SVGID_4_"
       cx="456.70871"
       cy="77.205597"
       r="2.6150999"
       gradientTransform="matrix(-1,0,0,1,557.3896,0)"
       gradientUnits="userSpaceOnUse">
      <stop
         offset="0"
         style="stop-color:#2E4962"
         id="stop16199" />
      <stop
         offset="0.0185"
         style="stop-color:#314E68"
         id="stop16201" />
      <stop
         offset="0.1059"
         style="stop-color:#3C627D"
         id="stop16203" />
      <stop
         offset="0.209"
         style="stop-color:#44728E"
         id="stop16205" />
      <stop
         offset="0.3362"
         style="stop-color:#4A7D9A"
         id="stop16207" />
      <stop
         offset="0.514"
         style="stop-color:#4D83A1"
         id="stop16209" />
      <stop
         offset="1"
         style="stop-color:#4E85A3"
         id="stop16211" />
    </radialGradient>
    <ellipse
       id="SVGID_1_"
       cx="87"
       cy="87"
       rx="86.957001"
       ry="87" />
    <clipPath
       id="SVGID_2_-5">
      <use
         height="100%"
         width="100%"
         y="0"
         x="0"
         xlink:href="#SVGID_1_"
         style="overflow:visible"
         id="use16139-5" />
    </clipPath>
  </defs>
  <sodipodi:namedview
     id="base"
     pagecolor="#ffffff"
     bordercolor="#666666"
     borderopacity="1.0"
     inkscape:pageopacity="0.0"
     inkscape:pageshadow="2"
     inkscape:zoom="0.98994949"
     inkscape:cx="222.50571"
     inkscape:cy="101.9999"
     inkscape:document-units="mm"
     inkscape:current-layer="layer1"
     showgrid="false"
     units="px"
     inkscape:window-width="732"
     inkscape:window-height="453"
     inkscape:window-x="314"
     inkscape:window-y="154"
     inkscape:window-maximized="0" />
  <metadata
     id="metadata25055">
    <rdf:RDF>
      <cc:Work
         rdf:about="">
        <dc:format>image/svg+xml</dc:format>
        <dc:type
           rdf:resource="http://purl.org/dc/dcmitype/StillImage" />
        <dc:title></dc:title>
      </cc:Work>
    </rdf:RDF>
  </metadata>
  <g
     inkscape:label="Layer 1"
     inkscape:groupmode="layer"
     id="layer1"
     transform="translate(0,-250.96248)">
    <ellipse
       transform="matrix(0.26458333,0,0,0.26458333,-0.03357034,250.99605)"
       style="fill:#d6dde6;fill-opacity:1"
       cx="87"
       cy="87"
       rx="86.957001"
       ry="87"
       clip-path="url(#SVGID_2_-5)"
       id="ellipse16142-2" />
    <g
       transform="matrix(0.35277777,0,0,-0.35277777,17.209457,296.03608)"
       id="g11784">
      <path
         inkscape:connector-curvature="0"
         id="path11786"
         style="fill:#000000;fill-opacity:1;fill-rule:nonzero;stroke:none"
         d="m 0,0 c 0.147,2.752 0.295,5.504 0.441,8.256 0.021,0.387 -0.579,0.385 -0.599,0 C -0.306,5.504 -0.453,2.752 -0.6,0 -0.62,-0.387 -0.021,-0.385 0,0" />
    </g>
    <g
       transform="matrix(0.35277777,0,0,-0.35277777,29.543945,296.03745)"
       id="g11788">
      <path
         inkscape:connector-curvature="0"
         id="path11790"
         style="fill:#000000;fill-opacity:1;fill-rule:nonzero;stroke:none"
         d="m 0,0 -0.296,8.262 c -0.014,0.386 -0.613,0.386 -0.6,0 L -0.6,0 C -0.586,-0.385 0.014,-0.387 0,0" />
    </g>
    <g
       transform="matrix(0.35277777,0,0,-0.35277777,23.524002,288.30252)"
       id="g11792">
      <path
         inkscape:connector-curvature="0"
         id="path11794"
         style="fill:#e95f33;fill-opacity:1;fill-rule:nonzero;stroke:none"
         d="M 0,0 C 5.468,0 8.611,1.947 10.561,4.51 9.758,4.641 8.918,4.744 8,4.779 L -8,4.641 c 0,0 -1.079,-0.086 -2.641,-0.371 C -9.183,2.373 -6.143,0 0,0" />
    </g>
    <g
       transform="matrix(0.35277777,0,0,-0.35277777,31.466654,292.52622)"
       id="g11796">
      <path
         inkscape:connector-curvature="0"
         id="path11798"
         style="fill:#feb01b;fill-opacity:1;fill-rule:nonzero;stroke:none"
         d="m 0,0 -0.945,6.465 -0.376,2.576 c 0,0 -0.87,2.287 -3.45,4.371 -1.631,1.318 -3.965,2.541 -7.183,3.07 -1.949,-2.562 -5.093,-4.509 -10.561,-4.509 -6.142,0 -9.182,2.373 -10.64,4.269 -2.384,-0.431 -5.893,-1.328 -8.442,-3.08 -1.603,-1.103 -2.826,-2.547 -3.14,-4.43 -0.15,-0.888 -0.309,-1.863 -0.472,-2.877 -0.351,-2.183 -0.721,-4.554 -1.05,-6.691 -0.577,-3.748 -1.028,-6.773 -1.028,-6.773 0,0 25.184,-11.414 48.375,0.164 z" />
    </g>
    <g
       transform="matrix(0.35277777,0,0,-0.35277777,17.417208,275.73206)"
       id="g11800">
      <path
         inkscape:connector-curvature="0"
         id="path11802"
         style="fill:#6b4e45;fill-opacity:1;fill-rule:nonzero;stroke:none"
         d="m 0,0 c 0.012,-3.465 -2.665,-6.281 -5.979,-6.293 -3.313,-0.012 -6.009,2.789 -6.021,6.254 -0.012,3.463 2.666,6.281 5.979,6.293 C -2.707,6.264 -0.012,3.465 0,0" />
    </g>
    <g
       transform="matrix(0.35277777,0,0,-0.35277777,33.468597,275.67763)"
       id="g11804">
      <path
         inkscape:connector-curvature="0"
         id="path11806"
         style="fill:#6b4e45;fill-opacity:1;fill-rule:nonzero;stroke:none"
         d="M 0,0 C 0.012,-3.465 -2.666,-6.283 -5.979,-6.293 -9.293,-6.305 -11.988,-3.506 -12,-0.041 -12.012,3.424 -9.334,6.24 -6.021,6.252 -2.707,6.264 -0.012,3.463 0,0" />
    </g>
    <g
       transform="matrix(0.35277777,0,0,-0.35277777,20.701782,286.66542)"
       id="g11808">
      <path
         inkscape:connector-curvature="0"
         id="path11810"
         style="fill:#826459;fill-opacity:1;fill-rule:nonzero;stroke:none"
         d="M 0,0 C 0,0 2.092,-2.574 7.759,-2.557 13.426,-2.537 16,0.139 16,0.139 c 0,0 -2.02,1.892 -3.332,5.017 C 9.402,3.693 5.744,2.871 2.067,2.691 1.548,1.682 0.874,0.734 0,0" />
    </g>
    <g
       transform="matrix(0.35277777,0,0,-0.35277777,22.039515,283.38776)"
       id="g11812">
      <path
         inkscape:connector-curvature="0"
         id="path11814"
         style="fill:#6b4e45;fill-opacity:1;fill-rule:nonzero;stroke:none"
         d="M 0,0 C 0,0 -0.169,-3.574 -1.725,-6.6 1.952,-6.42 5.61,-5.598 8.876,-4.135 8.351,-2.883 7.936,-1.439 7.813,0.168 7.813,0.168 3.321,-0.895 0,0" />
    </g>
    <g
       transform="matrix(0.35277777,0,0,-0.35277777,13.813302,275.81267)"
       id="g11816">
      <path
         inkscape:connector-curvature="0"
         id="path11818"
         style="fill:#000000;fill-opacity:1;fill-rule:nonzero;stroke:none"
         d="M 0,0 C 0.014,-0.002 0.026,-0.004 0.04,-0.006 0.129,-0.02 0.194,0.006 0.248,0.08 0.754,0.783 1.292,1.215 2.145,1.449 3.442,1.807 4.219,0.83 4.82,-0.135 4.977,-0.385 5.422,-0.301 5.401,0.021 5.316,1.361 3.951,2.229 2.713,2.313 2.009,2.359 1.257,2.01 0.711,1.6 0.566,1.492 -0.146,0.322 0,0.344 -0.17,0.318 -0.17,0.025 0,0" />
    </g>
    <g
       transform="matrix(0.35277777,0,0,-0.35277777,14.551595,276.35701)"
       id="g11820">
      <path
         inkscape:connector-curvature="0"
         id="path11822"
         style="fill:#000000;fill-opacity:1;fill-rule:nonzero;stroke:none"
         d="M 0,0 C 0.419,0.187 0.826,0.455 1.213,0.705 1.696,1.016 2.28,0.924 2.831,0.922 3.339,0.92 3.339,1.711 2.831,1.709 2.249,1.707 1.682,1.744 1.139,1.512 0.822,1.377 0.521,1.117 0.255,0.9 0.02,0.707 -0.002,0.451 -0.196,0.254 -0.333,0.115 -0.161,-0.072 0,0" />
    </g>
    <g
       transform="matrix(0.35277777,0,0,-0.35277777,32.69104,275.62803)"
       id="g11824">
      <path
         inkscape:connector-curvature="0"
         id="path11826"
         style="fill:#000000;fill-opacity:1;fill-rule:nonzero;stroke:none"
         d="m 0,0 c 0.138,-0.021 -0.571,1.143 -0.719,1.252 -0.605,0.449 -1.26,0.652 -2.006,0.699 -1.23,0.076 -2.607,-1.09 -2.675,-2.306 -0.019,-0.321 0.425,-0.409 0.581,-0.157 0.515,0.838 1.024,1.576 2.094,1.668 1.045,0.09 1.907,-0.638 2.476,-1.42 0.054,-0.074 0.118,-0.099 0.208,-0.086 L 0,-0.344 C 0.17,-0.318 0.17,-0.025 0,0" />
    </g>
    <g
       transform="matrix(0.35277777,0,0,-0.35277777,32.025454,276.20888)"
       id="g11828">
      <path
         inkscape:connector-curvature="0"
         id="path11830"
         style="fill:#000000;fill-opacity:1;fill-rule:nonzero;stroke:none"
         d="m 0,0 c -0.155,0.156 -0.187,0.393 -0.349,0.557 -0.236,0.242 -0.561,0.429 -0.842,0.611 -0.544,0.352 -1.227,0.269 -1.843,0.268 -0.508,-0.002 -0.508,-0.793 0,-0.788 0.477,0.004 1.033,0.1 1.471,-0.117 0.47,-0.232 0.887,-0.572 1.367,-0.785 C -0.035,-0.326 0.138,-0.139 0,0" />
    </g>
    <g
       transform="matrix(0.35277777,0,0,-0.35277777,17.209457,296.03608)"
       id="g11832">
      <path
         inkscape:connector-curvature="0"
         id="path11834"
         style="fill:#000000;fill-opacity:1;fill-rule:nonzero;stroke:none"
         d="m 0,0 c 0.147,2.752 0.295,5.504 0.441,8.256 0.021,0.387 -0.579,0.385 -0.599,0 C -0.306,5.504 -0.453,2.752 -0.6,0 -0.62,-0.387 -0.021,-0.385 0,0" />
    </g>
    <g
       transform="matrix(0.35277777,0,0,-0.35277777,29.543945,296.03745)"
       id="g11836">
      <path
         inkscape:connector-curvature="0"
         id="path11838"
         style="fill:#000000;fill-opacity:1;fill-rule:nonzero;stroke:none"
         d="m 0,0 -0.296,8.262 c -0.014,0.386 -0.613,0.386 -0.6,0 L -0.6,0 C -0.586,-0.385 0.014,-0.387 0,0" />
    </g>
    <g
       transform="matrix(0.35277777,0,0,-0.35277777,18.38943,276.71945)"
       id="g11840">
      <path
         inkscape:connector-curvature="0"
         id="path11842"
         style="fill:#826459;fill-opacity:1;fill-rule:nonzero;stroke:none"
         d="m 0,0 c 3.584,-4.918 6.167,-6.834 9.834,-5.334 3.666,1.5 4.919,1.715 6.75,1.84 2.25,0.154 3.721,-1.674 5.971,-2.174 2.25,-0.5 4.029,4.492 7.029,7.58 2.749,2.83 3.871,3.545 5.854,3.268 C 35.281,18.131 31.223,31.736 13.729,31.666 -1.643,31.604 -7.551,18.271 -7.795,5.445 -5.771,4.783 -2.376,3.26 0,0" />
    </g>
    <g
       transform="matrix(0.35277777,0,0,-0.35277777,30.60711,277.39675)"
       id="g11844">
      <path
         inkscape:connector-curvature="0"
         id="path11846"
         style="fill:#2c2945;fill-opacity:1;fill-rule:nonzero;stroke:none"
         d="M 0,0 C 0.532,2.078 0.819,4.268 0.812,6.531 0.812,6.721 0.807,6.91 0.805,7.1 -1.178,7.377 -2.3,6.662 -5.049,3.832 c -3,-3.088 -4.779,-8.08 -7.029,-7.58 -2.25,0.5 -3.721,2.328 -5.971,2.174 -1.831,-0.125 -3.084,-0.34 -6.75,-1.84 -3.667,-1.5 -6.25,0.416 -9.834,5.334 -2.376,3.26 -5.771,4.783 -7.795,5.445 -0.006,-0.326 -0.011,-0.654 -0.01,-0.978 0.033,-9.608 5.258,-17.86 12.744,-21.575 C -17.937,-15.498 -7.17,-9.133 0,0" />
    </g>
    <g
       transform="matrix(0.35277777,0,0,-0.35277777,20.131586,282.75456)"
       id="g11848">
      <path
         inkscape:connector-curvature="0"
         id="path11850"
         style="fill:#1e1d35;fill-opacity:1;fill-rule:nonzero;stroke:none"
         d="M 0,0 C 2.733,-1.357 5.767,-2.113 8.962,-2.104 18.842,-2.07 27.144,5.238 29.694,15.188 22.524,6.055 11.758,-0.311 0,0" />
    </g>
    <g
       transform="matrix(0.35277777,0,0,-0.35277777,20.489904,275.2284)"
       id="g11852">
      <path
         inkscape:connector-curvature="0"
         id="path11854"
         style="fill:#000000;fill-opacity:1;fill-rule:nonzero;stroke:none"
         d="m 0,0 c 0,-0.922 -0.582,-1.67 -1.3,-1.67 -0.719,0 -1.301,0.748 -1.301,1.67 0,0.924 0.582,1.67 1.301,1.67 C -0.582,1.67 0,0.924 0,0" />
    </g>
    <g
       transform="matrix(0.35277777,0,0,-0.35277777,27.726327,275.2284)"
       id="g11856">
      <path
         inkscape:connector-curvature="0"
         id="path11858"
         style="fill:#000000;fill-opacity:1;fill-rule:nonzero;stroke:none"
         d="m 0,0 c 0,-0.922 -0.582,-1.67 -1.3,-1.67 -0.718,0 -1.3,0.748 -1.3,1.67 0,0.924 0.582,1.67 1.3,1.67 C -0.582,1.67 0,0.924 0,0" />
    </g>
    <g
       transform="matrix(0.35277777,0,0,-0.35277777,17.476474,269.76447)"
       id="g11860">
      <path
         inkscape:connector-curvature="0"
         id="path11862"
         style="fill:#feb01b;fill-opacity:1;fill-rule:nonzero;stroke:none"
         d="M 0,0 C 0.062,0.412 0.107,0.73 0.136,0.936 0.045,0.941 -0.047,0.943 -0.137,0.949 -0.115,0.744 -0.075,0.396 0,0" />
    </g>
    <g
       transform="matrix(0.35277777,0,0,-0.35277777,17.41929,269.42891)"
       id="g11864">
      <path
         inkscape:connector-curvature="0"
         id="path11866"
         style="fill:#feb01b;fill-opacity:1;fill-rule:nonzero;stroke:none"
         d="M 0,0 C 0.008,0 0.018,0 0.025,-0.002 0.001,0.238 0,0.291 0,0" />
    </g>
    <g
       transform="matrix(0.35277777,0,0,-0.35277777,30.975727,266.34211)"
       id="g11868">
      <path
         inkscape:connector-curvature="0"
         id="path11870"
         style="fill:#2c2945;fill-opacity:1;fill-rule:nonzero;stroke:none"
         d="M 0,0 C 3.396,4.334 -4.367,9.25 -19.264,8.666 -34.16,8.084 -41.607,2.25 -41.607,2.25 l -2.232,-2.5 -0.688,-2.666 c -4.943,-4.75 -2.671,-18.148 -2.671,-18.148 1.612,0.103 3.604,-2.907 3.604,-2.907 2.822,0.754 4.54,10.772 5.059,14.27 -0.073,0.396 -0.112,0.744 -0.133,0.949 -0.008,0.002 -0.018,0.002 -0.024,0.002 0,0.291 10e-4,0.238 0.024,-0.002 0.087,-0.006 0.176,-0.008 0.265,-0.014 0.021,0.166 0.035,0.266 0.035,0.266 0.142,-0.102 0.305,-0.195 0.467,-0.291 13.116,-0.781 26.988,2.102 37.934,8.758 C 0.013,-0.012 0,0 0,0" />
    </g>
    <g
       transform="matrix(0.35277777,0,0,-0.35277777,17.604956,269.44341)"
       id="g11872">
      <path
         inkscape:connector-curvature="0"
         id="path11874"
         style="fill:#1e1d35;fill-opacity:1;fill-rule:nonzero;stroke:none"
         d="m 0,0 c 6.956,-4.088 30.363,-1.629 30.458,-2.125 0.68,-3.551 5.569,-13.385 7.203,-13.32 0.506,2.679 1.481,3.791 1.481,3.791 0.669,5.636 -1.566,13.695 -1.566,13.695 3.112,3.723 0.677,6.397 0.359,6.717 C 26.988,2.102 13.116,-0.781 0,0" />
    </g>
    <g
       transform="matrix(0.35277777,0,0,-0.35277777,23.291804,278.90568)"
       id="g11876">
      <path
         inkscape:connector-curvature="0"
         id="path11878"
         style="fill:#000000;fill-opacity:1;fill-rule:nonzero;stroke:none"
         d="m 0,0 c -0.24,-0.734 0.352,-1.871 0.905,-2.338 0.531,-0.445 1.837,-0.695 2.444,-0.324 0.204,0.125 0.208,0.426 0,0.551 C 2.818,-1.793 2.096,-2.07 1.512,-1.799 0.88,-1.504 0.681,-0.52 0.355,0.047 0.269,0.197 0.051,0.156 0,0" />
    </g>
    <g
       transform="matrix(0.35277777,0,0,-0.35277777,24.484477,277.34436)"
       id="g11880">
      <path
         inkscape:connector-curvature="0"
         id="path11882"
         style="fill:#000000;fill-opacity:1;fill-rule:nonzero;stroke:none"
         d="m 0,0 c 1.408,0.957 3.821,4.055 1.583,5.365 -1.271,0.744 -4.171,-3.574 -4.519,0.428 -0.126,1.455 -0.047,2.936 -0.047,4.395 0,1.382 -0.228,4.269 0.485,5.421 0.169,0.272 -0.168,0.616 -0.442,0.442 -0.791,-0.502 -0.68,-2.91 -0.741,-3.662 -0.18,-2.256 -0.55,-5.522 0.105,-7.711 0.246,-0.821 0.455,-1.815 1.497,-1.815 0.506,0 1.115,0.528 1.465,0.778 C 0.178,4.58 0.876,4.293 1.481,2.777 1.094,1.809 0.512,0.996 -0.265,0.342 -0.44,0.172 -0.208,-0.141 0,0" />
    </g>
    <g
       transform="matrix(0.35277777,0,0,-0.35277777,17.272533,273.52582)"
       id="g11884">
      <path
         inkscape:connector-curvature="0"
         id="path11886"
         style="fill:#2c2945;fill-opacity:1;fill-rule:nonzero;stroke:none"
         d="M 0,0 C 0,0 4.475,5.697 7.82,6.529 9.479,7.145 9.697,5.988 9.479,5.52 c 0,0 0.845,-1 -0.359,-1.813 0,0 -0.298,-0.937 -1.86,-1.219 C 5.697,2.207 -0.823,-1.553 0,0" />
    </g>
    <g
       transform="matrix(0.35277777,0,0,-0.35277777,29.436453,273.52582)"
       id="g11888">
      <path
         inkscape:connector-curvature="0"
         id="path11890"
         style="fill:#2c2945;fill-opacity:1;fill-rule:nonzero;stroke:none"
         d="M 0,0 C 0,0 -4.475,5.697 -7.82,6.529 -9.479,7.145 -9.697,5.988 -9.479,5.52 c 0,0 -0.845,-1 0.359,-1.813 0,0 0.298,-0.937 1.86,-1.219 C -5.697,2.207 0.823,-1.553 0,0" />
    </g>
    <g
       transform="matrix(0.35277777,0,0,-0.35277777,13.980376,269.96224)"
       id="g11892">
      <path
         inkscape:connector-curvature="0"
         id="path11894"
         style="fill:#bf674f;fill-opacity:1;fill-rule:nonzero;stroke:none"
         d="M 0,0 C 0,0 -1.635,11.742 1.536,14.352 4.707,16.959 27.445,25.775 40.152,24.783 48.178,25.154 49.539,9.184 49.726,9.881 49.913,10.576 0,0 0,0" />
    </g>
    <g
       transform="matrix(0.35277777,0,0,-0.35277777,29.235264,267.30124)"
       id="g11896">
      <path
         inkscape:connector-curvature="0"
         id="path11898"
         style="fill:#cd7659;fill-opacity:1;fill-rule:nonzero;stroke:none"
         d="m 0,0 c -19.191,0.613 -38.559,-6.863 -47.184,-13.781 -4.4,-3.53 -1.802,-6.666 1.796,-8.893 0.201,1.344 0.776,3.346 2.417,3.875 3.842,1.235 4.827,-2.588 4.827,-2.588 l 0.427,7.606 c 10.583,5.834 30.575,11.777 40.033,7.949 2.667,-1.08 2.391,-13.025 2.391,-13.025 0,0 4.994,1.191 8.9,3.439 C 16.76,-7.289 15.464,-0.494 0,0" />
    </g>
    <g
       transform="matrix(0.35277777,0,0,-0.35277777,36.740753,267.5927)"
       id="g11900">
      <path
         inkscape:connector-curvature="0"
         id="path11902"
         style="fill:#d67b63;fill-opacity:1;fill-rule:nonzero;stroke:none"
         d="m 0,0 c -6.833,10.369 -38.334,4.131 -55.664,-2.037 -17.33,-6.166 -23.17,-9.666 -22.003,-15.205 1.167,-5.537 10.892,-5.869 10.892,-5.869 0,0 0.003,0.537 0.112,1.263 -3.599,2.227 -6.196,5.364 -1.796,8.893 8.625,6.918 27.992,14.394 47.184,13.781 C -5.812,0.332 -4.516,-6.463 -7.668,-14.592 -2.028,-11.346 4.037,-6.127 0,0" />
    </g>
  </g>
</svg>
