<?xml version="1.0" encoding="UTF-8" standalone="no"?>
<!-- Created with Inkscape (http://www.inkscape.org/) -->

<svg
   xmlns:dc="http://purl.org/dc/elements/1.1/"
   xmlns:cc="http://creativecommons.org/ns#"
   xmlns:rdf="http://www.w3.org/1999/02/22-rdf-syntax-ns#"
   xmlns:svg="http://www.w3.org/2000/svg"
   xmlns="http://www.w3.org/2000/svg"
   xmlns:xlink="http://www.w3.org/1999/xlink"
   xmlns:sodipodi="http://sodipodi.sourceforge.net/DTD/sodipodi-0.dtd"
   xmlns:inkscape="http://www.inkscape.org/namespaces/inkscape"
   width="174"
   height="174"
   viewBox="0 0 46.037499 46.037501"
   version="1.1"
   id="svg21790"
   inkscape:version="0.92.0 r15299"
   sodipodi:docname="avatar_cli_9.svg">
  <defs
     id="defs21784">
    <clipPath
       id="SVGID_2_">
      <use
         xlink:href="#SVGID_1_"
         style="overflow:visible;"
         id="use16139" />
    </clipPath>
    <clipPath
       id="SVGID_2_-3">
      <use
         xlink:href="#SVGID_1_"
         style="overflow:visible;"
         id="use16139-2" />
    </clipPath>
    <clipPath
       id="SVGID_2_-6">
      <use
         height="100%"
         width="100%"
         y="0"
         x="0"
         xlink:href="#SVGID_1_"
         style="overflow:visible"
         id="use16139-4" />
    </clipPath>
    <clipPath
       id="clipPath21835">
      <use
         height="100%"
         width="100%"
         y="0"
         x="0"
         xlink:href="#SVGID_1_"
         style="overflow:visible"
         id="use21833" />
    </clipPath>
    <radialGradient
       id="SVGID_3_"
       cx="75.133301"
       cy="77.205597"
       r="2.615"
       gradientUnits="userSpaceOnUse">
      <stop
         offset="0"
         style="stop-color:#2E4962"
         id="stop16170" />
      <stop
         offset="0.0185"
         style="stop-color:#314E68"
         id="stop16172" />
      <stop
         offset="0.1059"
         style="stop-color:#3C627D"
         id="stop16174" />
      <stop
         offset="0.209"
         style="stop-color:#44728E"
         id="stop16176" />
      <stop
         offset="0.3362"
         style="stop-color:#4A7D9A"
         id="stop16178" />
      <stop
         offset="0.514"
         style="stop-color:#4D83A1"
         id="stop16180" />
      <stop
         offset="1"
         style="stop-color:#4E85A3"
         id="stop16182" />
    </radialGradient>
    <radialGradient
       id="SVGID_4_"
       cx="456.70871"
       cy="77.205597"
       r="2.6150999"
       gradientTransform="matrix(-1,0,0,1,557.3896,0)"
       gradientUnits="userSpaceOnUse">
      <stop
         offset="0"
         style="stop-color:#2E4962"
         id="stop16199" />
      <stop
         offset="0.0185"
         style="stop-color:#314E68"
         id="stop16201" />
      <stop
         offset="0.1059"
         style="stop-color:#3C627D"
         id="stop16203" />
      <stop
         offset="0.209"
         style="stop-color:#44728E"
         id="stop16205" />
      <stop
         offset="0.3362"
         style="stop-color:#4A7D9A"
         id="stop16207" />
      <stop
         offset="0.514"
         style="stop-color:#4D83A1"
         id="stop16209" />
      <stop
         offset="1"
         style="stop-color:#4E85A3"
         id="stop16211" />
    </radialGradient>
    <ellipse
       id="SVGID_1_"
       cx="87"
       cy="87"
       rx="86.957001"
       ry="87" />
  </defs>
  <sodipodi:namedview
     id="base"
     pagecolor="#ffffff"
     bordercolor="#666666"
     borderopacity="1.0"
     inkscape:pageopacity="0.0"
     inkscape:pageshadow="2"
     inkscape:zoom="1.31"
     inkscape:cx="158.23467"
     inkscape:cy="89.725136"
     inkscape:document-units="mm"
     inkscape:current-layer="layer1"
     showgrid="false"
     units="px"
     inkscape:window-width="732"
     inkscape:window-height="453"
     inkscape:window-x="313"
     inkscape:window-y="189"
     inkscape:window-maximized="0" />
  <metadata
     id="metadata21787">
    <rdf:RDF>
      <cc:Work
         rdf:about="">
        <dc:format>image/svg+xml</dc:format>
        <dc:type
           rdf:resource="http://purl.org/dc/dcmitype/StillImage" />
        <dc:title></dc:title>
      </cc:Work>
    </rdf:RDF>
  </metadata>
  <g
     inkscape:label="Layer 1"
     inkscape:groupmode="layer"
     id="layer1"
     transform="translate(0,-250.96248)">
    <ellipse
       style="fill:#d4e283;fill-opacity:1"
       cx="87"
       cy="87"
       rx="86.957001"
       ry="87"
       clip-path="url(#SVGID_2_)"
       id="ellipse16142"
       transform="matrix(0.26458333,0,0,0.26458333,0.1889881,250.96248)" />
    <g
       transform="matrix(0.35277777,0,0,-0.35277777,17.744186,296.03745)"
       id="g11020">
      <path
         inkscape:connector-curvature="0"
         id="path11022"
         style="fill:#000000;fill-opacity:1;fill-rule:nonzero;stroke:none"
         d="m 0,0 c 0.147,2.752 0.294,5.504 0.441,8.256 0.021,0.387 -0.579,0.385 -0.599,0 C -0.306,5.504 -0.453,2.752 -0.6,0 -0.621,-0.387 -0.021,-0.385 0,0" />
    </g>
    <g
       transform="matrix(0.35277777,0,0,-0.35277777,30.078637,296.03883)"
       id="g11024">
      <path
         inkscape:connector-curvature="0"
         id="path11026"
         style="fill:#000000;fill-opacity:1;fill-rule:nonzero;stroke:none"
         d="m 0,0 -0.296,8.262 c -0.014,0.386 -0.614,0.386 -0.6,0 L -0.6,0 C -0.586,-0.385 0.014,-0.387 0,0" />
    </g>
    <g
       transform="matrix(0.35277777,0,0,-0.35277777,18.405644,287.32617)"
       id="g11028">
      <path
         inkscape:connector-curvature="0"
         id="path11030"
         style="fill:#fcceb6;fill-opacity:1;fill-rule:nonzero;stroke:none"
         d="m 0,0 c -1.079,-0.428 -2.132,-0.945 -3.058,-1.582 -1.603,-1.104 -2.826,-2.547 -3.14,-4.43 -0.15,-0.888 -0.309,-1.863 -0.472,-2.877 -0.351,-2.183 -0.721,-4.554 -1.05,-6.691 -0.577,-3.748 -1.028,-6.774 -1.028,-6.774 0,0 2.506,-1.132 6.66,-2.324 l 0.133,6.674 C -0.018,-13.379 0.061,-4.092 0,0" />
    </g>
    <g
       transform="matrix(0.35277777,0,0,-0.35277777,32.001348,292.52759)"
       id="g11032">
      <path
         inkscape:connector-curvature="0"
         id="path11034"
         style="fill:#fcceb6;fill-opacity:1;fill-rule:nonzero;stroke:none"
         d="m 0,0 -0.945,6.465 -0.376,2.576 c 0,0 -0.87,2.287 -3.45,4.371 -0.339,0.274 -0.717,0.541 -1.119,0.803 -0.596,0.387 -1.285,0.742 -2.026,1.068 C -7.99,11.531 -7.998,1.582 -5.971,-3.26 l 0.14,-6.972 c 2.309,0.728 4.623,1.64 6.919,2.787 z" />
    </g>
    <g
       transform="matrix(0.35277777,0,0,-0.35277777,29.234264,289.52482)"
       id="g11036">
      <path
         inkscape:connector-curvature="0"
         id="path11038"
         style="fill:#3793b5;fill-opacity:1;fill-rule:nonzero;stroke:none"
         d="m 0,0 c -0.118,2.766 -0.102,5.27 -0.072,6.771 -1.161,0.514 -2.483,0.944 -4.038,1.2 -0.803,0.131 -1.643,0.234 -2.561,0.269 l -16,-0.138 c 0,0 -1.079,-0.086 -2.641,-0.372 -1.161,-0.21 -2.591,-0.535 -4.045,-1.009 -0.447,-0.147 -0.894,-0.313 -1.338,-0.489 0.02,-1.357 0.023,-3.289 -0.05,-5.429 C -20.851,-1.93 -10.178,-2.115 0,0" />
    </g>
    <g
       transform="matrix(0.35277777,0,0,-0.35277777,29.866618,293.60381)"
       id="g11040">
      <path
         inkscape:connector-curvature="0"
         id="path11042"
         style="fill:#3793b5;fill-opacity:1;fill-rule:nonzero;stroke:none"
         d="M 0,0 C -0.687,1.736 -1.129,4.07 -1.411,6.529 -11.972,3.43 -22.867,1.92 -33.115,5.262 c -0.295,-2.08 -0.716,-4.01 -1.327,-5.471 l -0.005,-0.234 C -23.728,-4.631 -11.438,-3.541 0,0" />
    </g>
    <g
       transform="matrix(0.35277777,0,0,-0.35277777,29.866618,293.60381)"
       id="g11044">
      <path
         inkscape:connector-curvature="0"
         id="path11046"
         style="fill:#64ad99;fill-opacity:1;fill-rule:nonzero;stroke:none"
         d="m 0,0 c -11.438,-3.541 -23.728,-4.631 -34.447,-0.443 l -0.129,-6.44 c 7.719,-2.213 21.136,-4.613 34.797,-0.299 l -0.14,6.973 C 0.053,-0.143 0.027,-0.068 0,0" />
    </g>
    <g
       transform="matrix(0.35277777,0,0,-0.35277777,29.368955,291.30042)"
       id="g11048">
      <path
         inkscape:connector-curvature="0"
         id="path11050"
         style="fill:#64ad99;fill-opacity:1;fill-rule:nonzero;stroke:none"
         d="M 0,0 C -0.191,1.672 -0.312,3.396 -0.382,5.033 -10.56,2.918 -21.232,3.104 -31.127,5.836 -31.205,3.561 -31.375,1.053 -31.704,-1.268 -21.457,-4.609 -10.561,-3.1 0,0" />
    </g>
    <g
       transform="matrix(0.35277777,0,0,-0.35277777,17.951902,275.73343)"
       id="g11052">
      <path
         inkscape:connector-curvature="0"
         id="path11054"
         style="fill:#f9b28f;fill-opacity:1;fill-rule:nonzero;stroke:none"
         d="m 0,0 c 0.012,-3.465 -2.665,-6.281 -5.979,-6.293 -3.313,-0.012 -6.009,2.789 -6.021,6.254 -0.012,3.463 2.666,6.281 5.979,6.293 C -2.707,6.264 -0.012,3.465 0,0" />
    </g>
    <g
       transform="matrix(0.35277777,0,0,-0.35277777,34.003291,275.679)"
       id="g11056">
      <path
         inkscape:connector-curvature="0"
         id="path11058"
         style="fill:#f9b28f;fill-opacity:1;fill-rule:nonzero;stroke:none"
         d="M 0,0 C 0.012,-3.465 -2.666,-6.283 -5.979,-6.293 -9.293,-6.305 -11.988,-3.506 -12,-0.041 -12.012,3.424 -9.334,6.24 -6.021,6.252 -2.707,6.264 -0.012,3.463 0,0" />
    </g>
    <g
       transform="matrix(0.35277777,0,0,-0.35277777,21.236473,286.66679)"
       id="g11060">
      <path
         inkscape:connector-curvature="0"
         id="path11062"
         style="fill:#fcceb6;fill-opacity:1;fill-rule:nonzero;stroke:none"
         d="M 0,0 C 0,0 2.092,-2.574 7.759,-2.557 13.426,-2.537 16,0.139 16,0.139 c 0,0 -2.02,1.892 -3.332,5.017 C 9.402,3.693 5.744,2.871 2.067,2.691 1.548,1.682 0.874,0.734 0,0" />
    </g>
    <g
       transform="matrix(0.35277777,0,0,-0.35277777,22.574207,283.38913)"
       id="g11064">
      <path
         inkscape:connector-curvature="0"
         id="path11066"
         style="fill:#f9b28f;fill-opacity:1;fill-rule:nonzero;stroke:none"
         d="M 0,0 C 0,0 -0.169,-3.574 -1.725,-6.6 1.952,-6.42 5.61,-5.598 8.876,-4.135 8.351,-2.883 7.936,-1.439 7.813,0.168 7.813,0.168 3.321,-0.895 0,0" />
    </g>
    <g
       transform="matrix(0.35277777,0,0,-0.35277777,14.348171,275.81404)"
       id="g11068">
      <path
         inkscape:connector-curvature="0"
         id="path11070"
         style="fill:#000000;fill-opacity:1;fill-rule:nonzero;stroke:none"
         d="M 0,0 0.04,-0.006 C 0.129,-0.02 0.194,0.004 0.248,0.078 0.753,0.783 1.292,1.215 2.145,1.449 3.44,1.805 4.218,0.828 4.82,-0.135 4.976,-0.385 5.421,-0.301 5.401,0.021 5.316,1.363 3.95,2.227 2.712,2.313 2.008,2.361 1.256,2.01 0.71,1.6 0.566,1.49 -0.146,0.32 0,0.344 -0.171,0.316 -0.171,0.025 0,0" />
    </g>
    <g
       transform="matrix(0.35277777,0,0,-0.35277777,15.086111,276.35905)"
       id="g11072">
      <path
         inkscape:connector-curvature="0"
         id="path11074"
         style="fill:#000000;fill-opacity:1;fill-rule:nonzero;stroke:none"
         d="M 0,0 C 0.42,0.189 0.826,0.457 1.213,0.707 1.698,1.018 2.28,0.924 2.832,0.922 3.339,0.92 3.339,1.711 2.832,1.709 2.25,1.707 1.683,1.746 1.139,1.514 0.823,1.379 0.52,1.119 0.255,0.9 0.021,0.709 -0.002,0.453 -0.196,0.254 -0.332,0.115 -0.161,-0.072 0,0" />
    </g>
    <g
       transform="matrix(0.35277777,0,0,-0.35277777,33.225591,275.6294)"
       id="g11076">
      <path
         inkscape:connector-curvature="0"
         id="path11078"
         style="fill:#000000;fill-opacity:1;fill-rule:nonzero;stroke:none"
         d="m 0,0 c 0.139,-0.021 -0.57,1.141 -0.718,1.252 -0.606,0.447 -1.26,0.65 -2.006,0.699 -1.231,0.078 -2.608,-1.092 -2.676,-2.306 -0.018,-0.323 0.426,-0.411 0.581,-0.159 0.514,0.838 1.025,1.578 2.095,1.67 1.046,0.088 1.906,-0.64 2.475,-1.422 0.054,-0.074 0.119,-0.097 0.208,-0.084 0.014,0.002 0.027,0.004 0.041,0.006 0.171,0.026 0.171,0.317 0,0.344" />
    </g>
    <g
       transform="matrix(0.35277777,0,0,-0.35277777,32.560148,276.21092)"
       id="g11080">
      <path
         inkscape:connector-curvature="0"
         id="path11082"
         style="fill:#000000;fill-opacity:1;fill-rule:nonzero;stroke:none"
         d="m 0,0 c -0.155,0.156 -0.186,0.393 -0.349,0.559 -0.237,0.24 -0.561,0.427 -0.842,0.609 -0.544,0.352 -1.227,0.271 -1.843,0.269 -0.508,-0.001 -0.508,-0.792 0,-0.787 0.477,0.004 1.033,0.1 1.471,-0.117 0.47,-0.232 0.888,-0.572 1.367,-0.787 C -0.035,-0.324 0.137,-0.139 0,0" />
    </g>
    <g
       transform="matrix(0.35277777,0,0,-0.35277777,17.744186,296.03745)"
       id="g11084">
      <path
         inkscape:connector-curvature="0"
         id="path11086"
         style="fill:#000000;fill-opacity:1;fill-rule:nonzero;stroke:none"
         d="m 0,0 c 0.147,2.752 0.294,5.504 0.441,8.256 0.021,0.387 -0.579,0.385 -0.599,0 C -0.306,5.504 -0.453,2.752 -0.6,0 -0.621,-0.387 -0.021,-0.385 0,0" />
    </g>
    <g
       transform="matrix(0.35277777,0,0,-0.35277777,30.078637,296.03883)"
       id="g11088">
      <path
         inkscape:connector-curvature="0"
         id="path11090"
         style="fill:#000000;fill-opacity:1;fill-rule:nonzero;stroke:none"
         d="m 0,0 -0.296,8.262 c -0.014,0.386 -0.614,0.386 -0.6,0 L -0.6,0 C -0.586,-0.385 0.014,-0.387 0,0" />
    </g>
    <g
       transform="matrix(0.35277777,0,0,-0.35277777,31.425683,274.8935)"
       id="g11092">
      <path
         inkscape:connector-curvature="0"
         id="path11094"
         style="fill:#fcceb6;fill-opacity:1;fill-rule:nonzero;stroke:none"
         d="M 0,0 C -0.156,12.949 -4.215,26.555 -21.709,26.484 -37.08,26.424 -42.988,13.09 -43.232,0.266 c -0.006,-0.327 -0.012,-0.655 -0.01,-0.979 0.032,-9.607 5.258,-17.859 12.743,-21.574 11.758,-0.311 22.524,6.055 29.694,15.187 0.533,2.079 0.82,4.268 0.813,6.532 C 0.007,-0.379 0.002,-0.189 0,0" />
    </g>
    <g
       transform="matrix(0.35277777,0,0,-0.35277777,20.666315,282.7559)"
       id="g11096">
      <path
         inkscape:connector-curvature="0"
         id="path11098"
         style="fill:#f9b28f;fill-opacity:1;fill-rule:nonzero;stroke:none"
         d="M 0,0 C 2.733,-1.357 5.767,-2.113 8.962,-2.104 18.842,-2.07 27.144,5.238 29.694,15.188 22.524,6.055 11.758,-0.311 0,0" />
    </g>
    <g
       transform="matrix(0.35277777,0,0,-0.35277777,21.024595,275.22977)"
       id="g11100">
      <path
         inkscape:connector-curvature="0"
         id="path11102"
         style="fill:#000000;fill-opacity:1;fill-rule:nonzero;stroke:none"
         d="m 0,0 c 0,-0.922 -0.582,-1.67 -1.3,-1.67 -0.719,0 -1.301,0.748 -1.301,1.67 0,0.924 0.582,1.67 1.301,1.67 C -0.582,1.67 0,0.924 0,0" />
    </g>
    <g
       transform="matrix(0.35277777,0,0,-0.35277777,28.26102,275.22977)"
       id="g11104">
      <path
         inkscape:connector-curvature="0"
         id="path11106"
         style="fill:#000000;fill-opacity:1;fill-rule:nonzero;stroke:none"
         d="m 0,0 c 0,-0.922 -0.582,-1.67 -1.3,-1.67 -0.718,0 -1.3,0.748 -1.3,1.67 0,0.924 0.582,1.67 1.3,1.67 C -0.582,1.67 0,0.924 0,0" />
    </g>
    <g
       transform="matrix(0.35277777,0,0,-0.35277777,18.011168,269.76584)"
       id="g11108">
      <path
         inkscape:connector-curvature="0"
         id="path11110"
         style="fill:#feb01b;fill-opacity:1;fill-rule:nonzero;stroke:none"
         d="M 0,0 C 0.062,0.412 0.107,0.73 0.136,0.936 0.045,0.941 -0.047,0.943 -0.137,0.949 -0.115,0.742 -0.075,0.396 0,0" />
    </g>
    <g
       transform="matrix(0.35277777,0,0,-0.35277777,17.953983,269.43028)"
       id="g11112">
      <path
         inkscape:connector-curvature="0"
         id="path11114"
         style="fill:#feb01b;fill-opacity:1;fill-rule:nonzero;stroke:none"
         d="M 0,0 C 0.008,0 0.018,-0.002 0.025,-0.002 0.001,0.236 0,0.291 0,0" />
    </g>
    <g
       transform="matrix(0.35277777,0,0,-0.35277777,23.73347,277.73019)"
       id="g11116">
      <path
         inkscape:connector-curvature="0"
         id="path11118"
         style="fill:#000000;fill-opacity:1;fill-rule:nonzero;stroke:none"
         d="m 0,0 c -0.241,-0.734 0.352,-1.871 0.905,-2.338 0.531,-0.445 1.837,-0.695 2.443,-0.324 0.205,0.125 0.208,0.426 0,0.551 C 2.818,-1.793 2.096,-2.07 1.512,-1.799 0.88,-1.504 0.681,-0.52 0.355,0.047 0.268,0.197 0.051,0.156 0,0" />
    </g>
    <g
       transform="matrix(0.35277777,0,0,-0.35277777,24.077818,272.50054)"
       id="g11120">
      <path
         inkscape:connector-curvature="0"
         id="path11122"
         style="fill:#000000;fill-opacity:1;fill-rule:nonzero;stroke:none"
         d="m 0,0 c 0.1,-0.01 -0.934,-9.15 0.306,-10.299 0.347,-0.32 0.963,-0.861 1.457,-0.244 0.121,0.152 1.814,2.35 1.939,0.963 0.113,-1.248 -1.034,-2.275 -1.892,-3.01 0.253,-0.105 0.507,-0.209 0.761,-0.314 -0.001,0.041 -0.002,0.082 -0.003,0.125 -0.013,0.57 -0.873,0.57 -0.886,0 -10e-4,-0.043 -0.002,-0.084 -0.003,-0.125 -0.01,-0.416 0.481,-0.555 0.761,-0.317 0.685,0.584 3.875,4.83 1.23,5.176 -1.159,0.15 -1.671,-0.777 -2.208,-1.668 -0.923,0.764 -1.319,1.684 -1.189,2.762 -0.016,0.885 0.1,1.789 0.166,2.672 0.111,1.47 0.015,3.029 -0.081,4.5 C 0.351,0.336 0.257,0.467 0.125,0.453 0.083,0.449 0.042,0.445 0,0.441 -0.284,0.41 -0.284,0.029 0,0" />
    </g>
    <g
       transform="matrix(0.35277777,0,0,-0.35277777,18.186534,273.10139)"
       id="g11124">
      <path
         inkscape:connector-curvature="0"
         id="path11126"
         style="fill:#feb01b;fill-opacity:1;fill-rule:nonzero;stroke:none"
         d="m 0,0 c -0.128,0.197 1.901,5.395 4.366,5.807 1.349,0.066 1.462,-0.592 1.462,-0.592 0,0 1.759,2.101 2.907,0.703 0.337,-0.613 -0.8,-1.621 -0.8,-1.621 0,0 2,0.465 0.916,-1.244 C 7.767,1.346 2.921,2.232 0.378,0.092" />
    </g>
    <g
       transform="matrix(0.35277777,0,0,-0.35277777,29.877977,273.10139)"
       id="g11128">
      <path
         inkscape:connector-curvature="0"
         id="path11130"
         style="fill:#feb01b;fill-opacity:1;fill-rule:nonzero;stroke:none"
         d="m 0,0 c 0.128,0.197 -1.901,5.395 -4.366,5.807 -1.349,0.066 -1.462,-0.592 -1.462,-0.592 0,0 -1.759,2.101 -2.907,0.703 -0.337,-0.613 0.8,-1.621 0.8,-1.621 0,0 -2,0.465 -0.916,-1.244 1.084,-1.707 5.93,-0.821 8.473,-2.961" />
    </g>
    <g
       transform="matrix(0.35277777,0,0,-0.35277777,32.76497,268.27754)"
       id="g11132">
      <path
         inkscape:connector-curvature="0"
         id="path11134"
         style="fill:#feb01b;fill-opacity:1;fill-rule:nonzero;stroke:none"
         d="M 0,0 C -0.088,-0.441 -0.147,-0.871 -0.194,-1.295 0.197,-1.215 0.593,-1.123 1,-1 Z" />
    </g>
    <g
       transform="matrix(0.35277777,0,0,-0.35277777,32.696567,268.73436)"
       id="g11136">
      <path
         inkscape:connector-curvature="0"
         id="path11138"
         style="fill:#f79c0b;fill-opacity:1;fill-rule:nonzero;stroke:none"
         d="m 0,0 c -9.21,-1.891 -14.01,7.539 -18.806,13.295 -4,-9 -17,-13 -27,-10 0,-5.998 -1.125,-12.559 -5.059,-17.152 0.527,-0.129 0.864,-0.172 0.864,-0.172 1.7,1.07 3.308,-0.414 3.308,-0.414 4.111,0.939 6.196,15.613 6.196,15.613 0,0 4.691,-1 11.191,-2.943 6.5,-1.944 13.5,3.539 13.5,3.539 0,0 1.25,-1.971 3.233,-6.721 1.983,-4.75 7.642,-2.875 8.166,-3.846 0.524,-0.969 0.804,-8.658 1.601,-6.564 0.796,2.094 4.506,0.328 4.506,0.328 1.649,1.08 2.639,2.383 3.185,3.762 C 1.554,-8.602 -0.524,-4.803 0,0" />
    </g>
    <g
       transform="matrix(0.35277777,0,0,-0.35277777,26.062193,264.04421)"
       id="g11140">
      <path
         inkscape:connector-curvature="0"
         id="path11142"
         style="fill:#feb01b;fill-opacity:1;fill-rule:nonzero;stroke:none"
         d="m 0,0 c 4.796,-5.756 9.596,-15.186 18.806,-13.295 0.047,0.424 0.106,0.854 0.194,1.295 l 1,-1 c -0.407,-0.123 -0.803,-0.215 -1.194,-0.295 -0.524,-4.803 1.554,-8.601 4.885,-11.275 2.062,5.215 -2.316,11.57 -2.316,11.57 0,0 1.75,0.5 2.125,4.375 0.375,3.875 -6.25,4.355 -6.25,4.355 0,0 2.625,4.895 -0.405,8.395 -3.03,3.5 -8.845,1.125 -16.22,0 -7.375,-1.125 -7.25,2 -17.505,1.75 -10.256,-0.25 -14.315,-9.625 -14.315,-9.625 0,0 -1.055,-1.875 -3.403,-4.25 -2.347,-2.375 -5.027,-10.25 -3.402,-14.475 1.211,-3.148 4.397,-4.296 5.941,-4.677 3.934,4.593 5.059,11.154 5.059,17.152 10,-3 23,1 27,10" />
    </g>
  </g>
</svg>
