<?xml version="1.0" encoding="UTF-8" standalone="no"?>
<!-- Created with Inkscape (http://www.inkscape.org/) -->

<svg
   xmlns:dc="http://purl.org/dc/elements/1.1/"
   xmlns:cc="http://creativecommons.org/ns#"
   xmlns:rdf="http://www.w3.org/1999/02/22-rdf-syntax-ns#"
   xmlns:svg="http://www.w3.org/2000/svg"
   xmlns="http://www.w3.org/2000/svg"
   xmlns:sodipodi="http://sodipodi.sourceforge.net/DTD/sodipodi-0.dtd"
   xmlns:inkscape="http://www.inkscape.org/namespaces/inkscape"
   width="1720.1575"
   height="173.38583"
   viewBox="0 0 455.125 45.875"
   version="1.1"
   id="svg17275"
   inkscape:version="0.92.0 r15299"
   sodipodi:docname="footer-paws.svg">
  <defs
     id="defs17269">
    <clipPath
       clipPathUnits="userSpaceOnUse"
       id="clipPath878">
      <path
         inkscape:connector-curvature="0"
         d="M 9526.75,7940.2 H 2473.25 V 6643.64 h 7053.5 z"
         id="path876" />
    </clipPath>
    <radialGradient
       fx="0"
       fy="0"
       cx="0"
       cy="0"
       r="1"
       gradientUnits="userSpaceOnUse"
       gradientTransform="matrix(-6.23e-5,-1424.93,-3373.57,1.475e-4,5874.56,8450.18)"
       spreadMethod="pad"
       id="radialGradient884">
      <stop
         style="stop-opacity:1;stop-color:#505256"
         offset="0"
         id="stop880" />
      <stop
         style="stop-opacity:1;stop-color:#211c1c"
         offset="1"
         id="stop882" />
    </radialGradient>
    <clipPath
       clipPathUnits="userSpaceOnUse"
       id="clipPath852">
      <path
         inkscape:connector-curvature="0"
         d="m 9526.1,6644.24 c -92.06,2.01 -184.88,5.77 -278.97,11.98 -45.98,0.2 -91.93,0.2 -138.44,0.2 -152.2,0 -307.07,0 -464.22,0 -31.42,0 -62.95,0 -94.59,0 h -0.1 -0.09 c -98.37,3.87 -199.46,5.76 -299.18,5.76 -95.14,0 -189.03,-1.72 -278.11,-5.08 h -0.05 -0.09 c -32.57,-0.36 -65.17,-0.52 -97.88,-0.68 -475.6,0 -964.74,0 -1456.93,0 -32.81,0 -65.63,0 -98.47,0 h -0.37 l -0.37,0.05 c -173.99,26.15 -338.35,82.41 -499.91,82.41 -0.07,0 -0.16,0 -0.23,0 -95.34,-0.01 -189.64,-19.43 -284.99,-76.01 l -0.87,-0.52 -1.01,-0.14 c -33.13,-4.44 -66.12,-5.43 -98.96,-5.79 h -0.05 c -294.91,0 -588.38,0 -878.19,0 -138.72,0 -276.6,0 -413.37,0 h -0.03 -0.04 c -265,3.78 -528.41,5.67 -790.34,5.67 -261.94,0 -522.4,-1.89 -781.5,-5.67 h -0.03 -0.04 c -32,0 -63.8,0 -95.43,0 0,3.33 0,6.66 0,10 31.61,0 63.38,0 95.35,0 v 0 c 259.16,3.78 519.66,5.67 781.65,5.67 261.98,0 525.43,-1.89 790.48,-5.67 136.75,0 274.61,0 413.3,0 289.79,0 583.24,0 878.13,0 v 0 c 32.37,0.35 64.62,1.33 96.73,5.57 96.64,57.16 192.72,76.89 289.06,76.89 0.05,0 0.1,0 0.15,0 163.82,-0.05 328.49,-56.55 501.26,-82.46 32.71,0 65.4,0 98.09,0 492.19,0 981.33,0 1456.91,0 32.66,0.16 65.22,0.32 97.72,0.67 89.21,3.37 183.19,5.09 278.43,5.09 99.81,0 201,-1.89 299.49,-5.76 31.6,0 63.09,0 94.47,0 157.15,0 312.02,0 464.22,0 46.56,0 92.59,0 138.65,-0.2 h 0.16 l 0.15,-0.02 c 93.9,-6.19 186.54,-9.95 278.45,-11.96 v -10 m -1553.89,17.86 v 0 m -2441.65,5.07 v 0"
         id="path850" />
    </clipPath>
    <clipPath
       clipPathUnits="userSpaceOnUse"
       id="clipPath1134">
      <path
         inkscape:connector-curvature="0"
         d="m 2473.25,1594.2 h 7053.5 v 3918.57 h -7053.5 z"
         id="path1132" />
    </clipPath>
  </defs>
  <sodipodi:namedview
     id="base"
     pagecolor="#ffffff"
     bordercolor="#666666"
     borderopacity="1.0"
     inkscape:pageopacity="0.0"
     inkscape:pageshadow="2"
     inkscape:zoom="0.27"
     inkscape:cx="921.00655"
     inkscape:cy="26.224561"
     inkscape:document-units="mm"
     inkscape:current-layer="layer1"
     showgrid="false"
     units="mm"
     inkscape:window-width="751"
     inkscape:window-height="466"
     inkscape:window-x="307"
     inkscape:window-y="205"
     inkscape:window-maximized="0"
     showguides="false" />
  <metadata
     id="metadata17272">
    <rdf:RDF>
      <cc:Work
         rdf:about="">
        <dc:format>image/svg+xml</dc:format>
        <dc:type
           rdf:resource="http://purl.org/dc/dcmitype/StillImage" />
        <dc:title></dc:title>
      </cc:Work>
    </rdf:RDF>
  </metadata>
  <g
     inkscape:label="Layer 1"
     inkscape:groupmode="layer"
     id="layer1"
     transform="translate(0,-251.12498)">
    <path
       d="m 415.26599,269.54385 c -1.14965,1.52481 -1.30353,1.89799 -1.09842,3.31435 0.2049,1.41672 0.4608,1.74525 2.01035,2.97796 1.54912,1.23254 7.21333,2.19919 6.86492,-0.20468 -0.3478,-2.40401 -1.07387,-1.9663 -1.30933,-3.59254 -0.23567,-1.62589 0.59222,-1.35655 0.24411,-3.76049 -0.348,-2.40368 -5.56198,-0.25941 -6.71162,1.2654"
       style="fill:#efedec;fill-opacity:1;fill-rule:nonzero;stroke:none;stroke-width:0.03028004"
       id="path990"
       inkscape:connector-curvature="0" />
    <path
       d="m 410.82095,277.74556 c -1.2407,0.41895 -4.3766,0.2291 -4.73045,-0.55422 -0.35429,-0.7835 1.80306,-2.76026 3.04386,-3.17893 1.23999,-0.41905 2.73486,0.32481 3.08903,1.10804 0.35394,0.78359 -0.16226,2.20661 -1.40244,2.62511"
       style="fill:#efedec;fill-opacity:1;fill-rule:nonzero;stroke:none;stroke-width:0.03028004"
       id="path992"
       inkscape:connector-curvature="0" />
    <path
       d="m 416.315,280.26627 c -0.79835,0.92117 -3.57948,2.18926 -4.35778,1.68471 -0.7786,-0.50445 -0.1509,-3.16731 0.64806,-4.08774 0.79826,-0.92143 2.52254,-0.97072 3.30061,-0.46583 0.77892,0.50439 1.20776,1.94851 0.40911,2.86886"
       style="fill:#efedec;fill-opacity:1;fill-rule:nonzero;stroke:none;stroke-width:0.03028004"
       id="path994"
       inkscape:connector-curvature="0" />
    <path
       d="m 409.52948,268.83531 c -1.32172,-0.14128 -4.30662,0.71108 -4.42585,1.54569 -0.11913,0.83489 2.53492,2.29052 3.85696,2.43173 1.3211,0.14144 2.55759,-0.8978 2.67713,-1.73249 0.11986,-0.83477 -0.78652,-2.10364 -2.10824,-2.24493"
       style="fill:#efedec;fill-opacity:1;fill-rule:nonzero;stroke:none;stroke-width:0.03028004"
       id="path996"
       inkscape:connector-curvature="0" />
    <path
       d="m 414.13472,265.22108 c -1.03648,-0.72259 -4.09291,-1.35838 -4.70357,-0.70366 -0.61088,0.65508 0.75735,3.10158 1.79427,3.82347 1.03688,0.72279 2.72107,0.40298 3.33196,-0.2521 0.61055,-0.65498 0.61457,-2.14589 -0.42266,-2.86771"
       style="fill:#efedec;fill-opacity:1;fill-rule:nonzero;stroke:none;stroke-width:0.03028004"
       id="path998"
       inkscape:connector-curvature="0" />
    <path
       d="m 11.623337,269.27754 c -0.197304,0.15323 -1.073762,1.46506 -2.136727,1.80767 -1.0632094,0.34246 -2.1871127,0.42561 -2.0953613,1.21445 0.091947,0.7886 0.4844396,0.98454 0.4630357,1.38189 -0.021449,0.39693 -0.4328081,0.55566 -0.6088174,1.33162 -0.1763413,0.77647 0.9330996,0.96344 1.9540709,1.40332 1.0209601,0.43988 1.7524541,1.82627 1.9322961,1.99705 0.18,0.17055 1.151265,0.0536 1.151265,0.0536 l 2.51e-4,-0.002 c 0.937178,0.0437 1.735183,-0.62804 1.78184,-1.5002 0.0032,-0.0583 0.0025,-0.11622 -0.0013,-0.1733 -0.01782,-0.63603 -0.311033,-1.04285 -0.295541,-1.33088 0.01502,-0.2831 0.344137,-0.74703 0.435119,-1.30197 0.01097,-0.0609 0.01946,-0.1226 0.02291,-0.18568 0.0021,-0.0422 0.0012,-0.0834 -4.5e-5,-0.12485 l 0.0069,0.005 c 0.03951,-0.7388 -0.314263,-1.19027 -0.297419,-1.5045 0.0096,-0.17707 0.142454,-0.42612 0.263201,-0.72224 0.108331,-0.1951 0.175855,-0.41325 0.188612,-0.64656 l -2.55e-4,-0.0664 0.0067,-0.0524 c 0.0011,-0.0308 -0.003,-0.0537 -0.0098,-0.0726 -0.05954,-0.7865 -0.741118,-1.42633 -1.608954,-1.46685 l -0.04111,-7e-5 c -0.183475,-0.0371 -0.937792,-0.17935 -1.110899,-0.0452"
       style="fill:#efedec;fill-opacity:1;fill-rule:nonzero;stroke:none;stroke-width:0.03029859"
       id="path1000"
       inkscape:connector-curvature="0" />
    <path
       d="m 3.3022467,277.13044 c -1.0875098,-0.13839 -3.43910825,-1.30293 -3.32176459,-2.10239 0.11782177,-0.79957 2.71908189,-1.33381 3.80659539,-1.19545 1.0870637,0.13848 1.4308157,1.04756 1.3131739,1.84688 -0.1176242,0.79931 -0.7105277,1.58935 -1.7980331,1.45096"
       style="fill:#efedec;fill-opacity:1;fill-rule:nonzero;stroke:none;stroke-width:0.03029859"
       id="path1002"
       inkscape:connector-curvature="0" />
    <path
       d="m 8.3744972,280.32459 c -1.0701305,0.22566 -3.7115452,-0.0967 -3.9034887,-0.88346 -0.1913345,-0.78711 2.0426284,-2.13698 3.1131853,-2.36274 1.0703851,-0.2255 1.7348719,0.51351 1.9267281,1.29987 0.1911635,0.78737 -0.065693,1.72033 -1.1364247,1.94633"
       style="fill:#efedec;fill-opacity:1;fill-rule:nonzero;stroke:none;stroke-width:0.03029859"
       id="path1004"
       inkscape:connector-curvature="0" />
    <path
       d="m 9.1056087,266.74584 c -1.0409703,-0.3239 -3.7037525,-0.24891 -3.9789175,0.51609 -0.2753483,0.76521 1.802737,2.31612 2.8438026,2.64043 1.0405509,0.324 1.7812197,-0.34974 2.0566522,-1.11455 0.274651,-0.76532 0.119702,-1.71789 -0.9215346,-2.04196"
       style="fill:#efedec;fill-opacity:1;fill-rule:nonzero;stroke:none;stroke-width:0.03029859"
       id="path1006"
       inkscape:connector-curvature="0" />
    <path
       d="m 3.7154043,269.4525 c -1.0968624,0.0367 -3.56170345,0.97684 -3.53069584,1.78328 0.0311904,0.8062 2.56208244,1.57968 3.65898854,1.54291 1.0969656,-0.0362 1.536002,-0.90925 1.505079,-1.71529 -0.03119,-0.8062 -0.5362182,-1.64746 -1.6333717,-1.6109"
       style="fill:#efedec;fill-opacity:1;fill-rule:nonzero;stroke:none;stroke-width:0.03029859"
       id="path1008"
       inkscape:connector-curvature="0" />
    <path
       d="m 436.51625,259.93297 c -0.0431,0.22746 0.22505,1.69699 -0.35924,2.56999 -0.58396,0.87271 -1.40567,1.59172 -0.75852,2.1128 0.6468,0.5211 1.09789,0.43411 1.37049,0.7359 0.27261,0.30179 0.0652,0.65848 0.49244,1.32737 0.42764,0.66888 1.43434,0.15511 2.55569,-0.12275 1.12136,-0.27786 2.70552,0.30376 2.97127,0.32262 0.26544,0.0191 0.9419,-0.63539 0.9419,-0.63539 l -9.2e-4,-0.002 c 0.76668,-0.51743 0.90313,-1.47459 0.30452,-2.13758 -0.0401,-0.0442 -0.0824,-0.0859 -0.12735,-0.12527 -0.47745,-0.45297 -1.00409,-0.57768 -1.2018,-0.79699 -0.19411,-0.2148 -0.2739,-0.74603 -0.6074,-1.20377 -0.0355,-0.0507 -0.0735,-0.10079 -0.11725,-0.14865 -0.029,-0.0318 -0.0599,-0.0614 -0.0909,-0.0909 l 0.01,5.7e-4 c -0.50742,-0.56192 -1.11353,-0.68353 -1.32913,-0.92226 -0.12149,-0.13429 -0.199,-0.39413 -0.32048,-0.681 -0.0567,-0.20523 -0.16285,-0.4037 -0.32277,-0.58106 l -0.0486,-0.049 -0.0333,-0.042 -0.0603,-0.0468 c -0.62012,-0.53855 -1.62064,-0.60527 -2.33129,-0.12584 l -0.0319,0.0239 c -0.17132,0.0802 -0.86601,0.4189 -0.90444,0.61765"
       style="fill:#efedec;fill-opacity:1;fill-rule:nonzero;stroke:none;stroke-width:0.03028004"
       id="path1010"
       inkscape:connector-curvature="0" />
    <path
       d="m 435.71179,270.53303 c -0.95459,0.53629 -3.64773,1.06583 -4.13821,0.4144 -0.49017,-0.65117 1.16076,-2.56521 2.1147,-3.10207 0.95395,-0.53659 1.88574,-0.0752 2.37624,0.57627 0.49048,0.65143 0.60025,1.57482 -0.35273,2.1114"
       style="fill:#efedec;fill-opacity:1;fill-rule:nonzero;stroke:none;stroke-width:0.03028004"
       id="path1012"
       inkscape:connector-curvature="0" />
    <path
       d="m 442.01813,269.88778 c -0.67549,0.79163 -2.98202,2.10492 -3.70602,1.64407 -0.72336,-0.46113 0.0453,-2.75438 0.72074,-3.5463 0.67483,-0.7919 1.73463,-0.64299 2.45864,-0.18186 0.72367,0.46142 1.20179,1.29189 0.52664,2.08409"
       style="fill:#efedec;fill-opacity:1;fill-rule:nonzero;stroke:none;stroke-width:0.03028004"
       id="path1014"
       inkscape:connector-curvature="0" />
    <path
       d="m 432.69623,259.56361 c -1.05263,0.37386 -3.08689,1.98923 -2.74523,2.70851 0.34164,0.71872 3.10252,0.63145 4.15482,0.25759 1.05263,-0.37414 1.14284,-1.29922 0.80119,-2.01766 -0.34197,-0.71899 -1.15848,-1.3223 -2.21078,-0.94844"
       style="fill:#efedec;fill-opacity:1;fill-rule:nonzero;stroke:none;stroke-width:0.03028004"
       id="path1016"
       inkscape:connector-curvature="0" />
    <path
       d="m 430.44018,264.69544 c -0.83344,0.66917 -2.08181,2.79915 -1.47017,3.36866 0.61197,0.56952 3.16115,-0.34993 3.99491,-1.01995 0.83377,-0.66945 0.54228,-1.56271 -0.0693,-2.13223 -0.61229,-0.56922 -1.62129,-0.88622 -2.45537,-0.21648"
       style="fill:#efedec;fill-opacity:1;fill-rule:nonzero;stroke:none;stroke-width:0.03028004"
       id="path1018"
       inkscape:connector-curvature="0" />
    <path
       d="m 361.86304,267.1009 c -2.01374,1.60494 -3.44124,3.57896 -2.96476,4.75571 0.47616,1.17704 3.01655,1.95037 5.74908,2.119 2.73222,0.1692 2.06585,-2.44555 1.33044,-4.26109 -0.73508,-1.81579 -2.10069,-4.21856 -4.11476,-2.61362"
       style="fill:#efedec;fill-opacity:1;fill-rule:nonzero;stroke:none;stroke-width:0.03028004"
       id="path1020"
       inkscape:connector-curvature="0" />
    <path
       d="m 361.06021,274.7695 c 0.81065,-0.6641 3.81481,0.68549 3.55361,1.9819 -0.26055,1.29639 -2.89115,3.53587 -4.10142,2.48693 -1.21091,-1.04921 -0.77579,-3.38414 0.54781,-4.46883"
       style="fill:#efedec;fill-opacity:1;fill-rule:nonzero;stroke:none;stroke-width:0.03028004"
       id="path1022"
       inkscape:connector-curvature="0" />
    <path
       d="m 361.20481,279.33039 c -0.4553,0.44002 -2.32345,0.57149 -3.1227,0.32206 0,0 0.80249,-0.33669 1.18355,-0.52784 0.38073,-0.1906 1.18682,-0.67988 1.51707,-0.45889 0.32959,0.22129 0.42208,0.66467 0.42208,0.66467"
       style="fill:#efedec;fill-opacity:1;fill-rule:nonzero;stroke:none;stroke-width:0.03028004"
       id="path1024"
       inkscape:connector-curvature="0" />
    <path
       d="m 355.63845,277.93772 c -1.10311,0.15033 -2.69411,-2.43346 -1.62909,-3.37345 0.58949,-0.5211 1.99093,-1.20912 3.1556,-1.21758 0.93831,-0.006 1.71607,0.52701 1.85416,1.17704 0.31038,1.45743 -1.57862,3.16878 -3.38067,3.41399"
       style="fill:#efedec;fill-opacity:1;fill-rule:nonzero;stroke:none;stroke-width:0.03028004"
       id="path1026"
       inkscape:connector-curvature="0" />
    <path
       d="m 354.38324,276.59825 c -0.5198,0.38201 -2.39121,0.29362 -3.14454,-0.0464 0,0 0.84779,-0.24014 1.25522,-0.38456 0.40744,-0.1447 1.28289,-0.53489 1.57504,-0.27729 0.29214,0.25759 0.31428,0.7083 0.31428,0.7083"
       style="fill:#efedec;fill-opacity:1;fill-rule:nonzero;stroke:none;stroke-width:0.03028004"
       id="path1028"
       inkscape:connector-curvature="0" />
    <path
       d="m 352.12296,269.25622 c -0.97089,0.47773 -0.35012,3.35487 1.16043,3.51562 0.83735,0.0889 2.42834,-0.12838 3.34549,-0.7497 0.73801,-0.50025 0.96078,-1.33749 0.59992,-1.91996 -0.80934,-1.30652 -3.52072,-1.62521 -5.10584,-0.84596"
       style="fill:#efedec;fill-opacity:1;fill-rule:nonzero;stroke:none;stroke-width:0.03028004"
       id="path1030"
       inkscape:connector-curvature="0" />
    <path
       d="m 352.10798,270.98052 c -0.68232,-0.0186 -2.08149,1.05908 -2.42444,1.73107 0,0 0.83573,-0.26913 1.25846,-0.37611 0.42308,-0.1067 1.38875,-0.27336 1.43141,-0.63202 0.0424,-0.35893 -0.26543,-0.72294 -0.26543,-0.72294"
       style="fill:#efedec;fill-opacity:1;fill-rule:nonzero;stroke:none;stroke-width:0.03028004"
       id="path1032"
       inkscape:connector-curvature="0" />
    <path
       d="m 359.17642,267.96038 c 1.08096,-0.24126 1.9675,-2.5196 0.55791,-3.01677 -1.40926,-0.49716 -5.66766,-0.0431 -5.10845,1.35778 0.91324,2.28734 2.78368,2.05228 4.55054,1.65899"
       style="fill:#efedec;fill-opacity:1;fill-rule:nonzero;stroke:none;stroke-width:0.03028004"
       id="path1034"
       inkscape:connector-curvature="0" />
    <path
       d="m 354.94799,266.0711 c -0.67287,0.0999 -1.79325,1.39859 -1.97434,2.11647 0,0 0.75626,-0.40877 1.14612,-0.58669 0.38952,-0.17764 1.29721,-0.50871 1.25554,-0.86737 -0.0417,-0.35893 -0.42732,-0.66241 -0.42732,-0.66241"
       style="fill:#efedec;fill-opacity:1;fill-rule:nonzero;stroke:none;stroke-width:0.03028004"
       id="path1036"
       inkscape:connector-curvature="0" />
    <path
       d="m 381.31775,274.93999 c 1.51968,0.85554 4.5323,0.23337 5.35988,-0.26181 0.82694,-0.4952 3.42561,-0.80431 4.78341,-0.44199 1.35813,0.36175 2.87844,1.15255 4.89871,1.05429 2.02058,-0.098 3.67997,-2.01455 2.29024,-4.05135 -1.38939,-2.03708 -7.81785,-2.20739 -10.58426,-1.39972 -2.76609,0.80713 -8.59658,4.05924 -6.74798,5.10058"
       style="fill:#efedec;fill-opacity:1;fill-rule:nonzero;stroke:none;stroke-width:0.03028004"
       id="path1038"
       inkscape:connector-curvature="0" />
    <path
       d="m 381.97044,276.1539 c 0.99107,-0.35189 4.24993,-0.80064 5.4439,-0.54614 1.19399,0.25448 3.54319,0.22915 5.39799,0.20156 1.85481,-0.0276 5.23124,0.48618 5.6784,1.52133 0.44783,1.03487 0.0179,4.09668 -2.95139,4.33315 -2.96867,0.23648 -10.298,-0.98362 -12.79994,-3.08996 -2.50163,-2.10689 -0.76896,-2.41994 -0.76896,-2.41994"
       style="fill:#efedec;fill-opacity:1;fill-rule:nonzero;stroke:none;stroke-width:0.03028004"
       id="path1040"
       inkscape:connector-curvature="0" />
    <path
       d="m 292.60397,288.49667 c 0.45108,0.52758 7.20458,0.24296 7.20458,0.24296 0,0 -4.7225,4.18282 -4.56421,4.8244 0.51231,2.08494 7.62244,1.95599 12.28111,-1.20547 4.65833,-3.16146 2.97746,-5.848 2.13946,-7.45576 -0.83735,-1.60804 -2.05054,-4.47645 -7.87714,-3.55644 -5.82626,0.92001 -10.65038,5.43671 -9.1838,7.15031"
       style="fill:#efedec;fill-opacity:1;fill-rule:nonzero;stroke:none;stroke-width:0.03028004"
       id="path1042"
       inkscape:connector-curvature="0" />
    <path
       d="m 330.29004,278.71769 c 1.47178,0.49519 2.83675,1.13594 1.90364,2.74228 -0.93309,1.60607 -4.85765,0.78038 -5.38528,0.12669 -0.52793,-0.65369 0.16123,-2.57901 1.49069,-2.94189 1.32914,-0.36316 1.29885,-0.1599 1.99095,0.0729"
       style="fill:#efedec;fill-opacity:1;fill-rule:nonzero;stroke:none;stroke-width:0.03028004"
       id="path1044"
       inkscape:connector-curvature="0" />
    <path
       d="m 325.98669,277.05418 c 0.50809,0.53602 1.01289,2.48836 0.25014,3.31997 -0.76244,0.83133 -2.429,1.0115 -3.36731,0.25759 -0.93831,-0.7539 -2.02319,-1.78371 -1.46789,-2.65952 0.55531,-0.87608 1.85546,-1.57229 2.86932,-1.53231 1.01356,0.04 1.71574,0.61427 1.71574,0.61427"
       style="fill:#efedec;fill-opacity:1;fill-rule:nonzero;stroke:none;stroke-width:0.03028004"
       id="path1046"
       inkscape:connector-curvature="0" />
    <path
       d="m 326.64687,270.66032 c 0.69307,-1.2263 1.19398,-2.49765 -0.75202,-3.13107 -1.94567,-0.63369 -4.18219,2.27356 -4.05777,3.0635 0.12507,0.78966 2.14206,1.8006 3.40378,1.28852 1.26172,-0.51237 1.07999,-0.64384 1.40601,-1.22095"
       style="fill:#efedec;fill-opacity:1;fill-rule:nonzero;stroke:none;stroke-width:0.03028004"
       id="path1048"
       inkscape:connector-curvature="0" />
    <path
       d="m 324.78913,274.40537 c -0.0472,-0.69169 -1.20798,-2.42247 -2.42052,-2.5866 -1.21255,-0.16412 -2.57882,0.68015 -2.67718,1.78399 -0.0984,1.1044 -0.0877,2.49736 1.00736,2.81547 1.09563,0.3184 2.59705,0.0678 3.31096,-0.55543 0.7136,-0.62357 0.77938,-1.45743 0.77938,-1.45743"
       style="fill:#efedec;fill-opacity:1;fill-rule:nonzero;stroke:none;stroke-width:0.03028004"
       id="path1050"
       inkscape:connector-curvature="0" />
    <path
       d="m 327.36664,267.74659 c 0.81129,0.82034 0.31526,1.96585 -0.31494,3.08095 -0.39148,0.69226 -0.17327,0.85019 -1.68773,1.46503 -0.34067,0.1385 -0.72824,0.18074 -1.12461,0.15736 0.6351,0.69395 1.07771,1.53598 1.1093,1.99626 0,0 -0.0658,0.81219 -0.70543,1.52048 l 0.0153,0.0261 c 1.02364,0.14639 1.70758,0.70323 1.70758,0.70323 0.33774,0.35668 0.6732,1.23531 0.75039,2.11759 0.27325,-0.24943 0.59112,-0.44565 0.95035,-0.54362 1.59524,-0.43579 1.55877,-0.1917 2.3896,0.0879 1.25651,0.42256 2.44756,0.93436 2.62701,1.88871 l 0.20616,0.04 c 0,0 6.82679,-2.07705 3.85618,-8.64687 -2.97031,-6.56983 -9.61763,-4.09499 -9.61763,-4.09499 l -0.16155,0.20185"
       style="fill:#efedec;fill-opacity:1;fill-rule:nonzero;stroke:none;stroke-width:0.03028004"
       id="path1052"
       inkscape:connector-curvature="0" />
    <path
       d="m 100.88354,273.28235 c -2.628774,0.24579 -5.052728,1.11351 -5.474899,2.34712 -0.421525,1.23305 1.018028,3.24495 3.010414,4.85909 1.993005,1.61327 3.232475,-0.91535 3.883625,-2.81824 0.65083,-1.90319 1.20963,-4.63318 -1.41914,-4.38797"
       style="fill:#efedec;fill-opacity:1;fill-rule:nonzero;stroke:none;stroke-width:0.03029859"
       id="path1226"
       inkscape:connector-curvature="0" />
    <path
       d="m 95.122178,279.21228 c 1.070173,-0.11369 2.481133,2.62622 1.410029,3.56115 -1.07016,0.93465 -4.599471,1.3742 -4.829083,-0.14875 -0.229932,-1.52354 1.671365,-3.22654 3.419054,-3.4124"
       style="fill:#efedec;fill-opacity:1;fill-rule:nonzero;stroke:none;stroke-width:0.03029859"
       id="path1228"
       inkscape:connector-curvature="0" />
    <path
       d="m 92.175223,283.07446 c -0.646115,0.11954 -2.174252,-0.77915 -2.623112,-1.41686 0,0 0.844012,0.15343 1.26617,0.20019 0.421845,0.047 1.37045,0.0763 1.47693,0.43752 0.105858,0.36152 -0.119988,0.77915 -0.119988,0.77915"
       style="fill:#efedec;fill-opacity:1;fill-rule:nonzero;stroke:none;stroke-width:0.03029859"
       id="path1230"
       inkscape:connector-curvature="0" />
    <path
       d="m 88.818355,278.9168 c -0.951117,-0.47024 -0.444773,-3.47174 1.006401,-3.67778 0.804434,-0.11427 2.345757,0.0708 3.249131,0.69207 0.72747,0.50063 0.969334,1.3625 0.639839,1.97655 -0.738155,1.37682 -3.341794,1.77751 -4.895371,1.00916"
       style="fill:#efedec;fill-opacity:1;fill-rule:nonzero;stroke:none;stroke-width:0.03029859"
       id="path1232"
       inkscape:connector-curvature="0" />
    <path
       d="m 88.749253,277.12847 c -0.657112,0.0365 -2.040439,-1.0457 -2.392871,-1.73426 0,0 0.814479,0.25748 1.225649,0.35743 0.41085,0.0999 1.347204,0.24842 1.399977,0.61988 0.05244,0.37088 -0.232755,0.75695 -0.232755,0.75695"
       style="fill:#efedec;fill-opacity:1;fill-rule:nonzero;stroke:none;stroke-width:0.03029859"
       id="path1234"
       inkscape:connector-curvature="0" />
    <path
       d="m 91.930216,269.81793 c -1.068271,-0.12773 -2.519453,2.59437 -1.46248,3.54246 0.585187,0.52548 1.957516,1.20352 3.081082,1.18248 0.904308,-0.017 1.63713,-0.59154 1.749888,-1.26987 0.252548,-1.52003 -1.623624,-3.24699 -3.36849,-3.45507"
       style="fill:#efedec;fill-opacity:1;fill-rule:nonzero;stroke:none;stroke-width:0.03029859"
       id="path1236"
       inkscape:connector-curvature="0" />
    <path
       d="m 90.762685,271.24005 c -0.513253,-0.38314 -2.314659,-0.24345 -3.029885,0.12918 0,0 0.825163,0.22708 1.222193,0.36649 0.397663,0.1397 1.253918,0.52227 1.527507,0.24755 0.273587,-0.27502 0.280185,-0.74322 0.280185,-0.74322"
       style="fill:#efedec;fill-opacity:1;fill-rule:nonzero;stroke:none;stroke-width:0.03029859"
       id="path1238"
       inkscape:connector-curvature="0" />
    <path
       d="m 98.236236,272.54674 c 0.995095,0.38257 3.206094,-1.02962 2.453184,-2.20217 -0.75291,-1.17253 -4.339707,-3.09267 -4.848249,-1.62846 -0.829872,2.39009 0.769569,3.20403 2.395065,3.83063"
       style="fill:#efedec;fill-opacity:1;fill-rule:nonzero;stroke:none;stroke-width:0.03029859"
       id="path1240"
       inkscape:connector-curvature="0" />
    <path
       d="m 96.243859,268.69858 c -0.585498,-0.28029 -2.320003,0.19318 -2.941304,0.69119 0,0 0.85751,0.0684 1.276846,0.13122 0.419646,0.0629 1.340924,0.27794 1.549487,-0.0421 0.208574,-0.32031 0.114971,-0.78032 0.114971,-0.78032"
       style="fill:#efedec;fill-opacity:1;fill-rule:nonzero;stroke:none;stroke-width:0.03029859"
       id="path1242"
       inkscape:connector-curvature="0" />
    <path
       d="m 115.58867,282.9767 c 0.59744,1.52968 3.3374,2.63763 4.30705,2.67357 0.96964,0.0351 3.1797,1.18015 3.98382,2.21328 0.80412,1.03255 1.44584,2.50875 3.06883,3.51675 1.623,1.008 4.18736,0.313 4.482,-2.12648 0.29495,-2.43947 -4.54576,-6.04799 -7.21976,-6.86982 -2.67306,-0.82211 -9.34815,-1.2681 -8.62194,0.5927"
       style="fill:#efedec;fill-opacity:1;fill-rule:nonzero;stroke:none;stroke-width:0.03029859"
       id="path1244"
       inkscape:connector-curvature="0" />
    <path
       d="m 115.2777,284.336 c 0.99982,0.24228 3.81296,1.62787 4.56242,2.48273 0.74977,0.85515 2.57725,2.10133 4.02591,3.07865 1.44804,0.9776 3.70585,3.22506 3.35687,4.32484 -0.34896,1.10005 -2.73367,3.40859 -5.18089,2.00371 -2.44721,-1.40488 -7.2785,-6.37035 -7.79395,-9.4677 -0.51575,-3.09706 1.02964,-2.42223 1.02964,-2.42223"
       style="fill:#efedec;fill-opacity:1;fill-rule:nonzero;stroke:none;stroke-width:0.03029859"
       id="path1246"
       inkscape:connector-curvature="0" />
    <path
       d="m 27.383289,266.83928 c -0.0062,0.68155 5.39071,4.08781 5.39071,4.08781 0,0 -6.445173,0.92325 -6.75394,1.54079 -1.002946,2.00636 4.5643,5.73382 10.275095,5.62334 5.71078,-0.11077 6.216812,-3.24611 6.649022,-5.03181 0.432841,-1.78657 1.421025,-4.82051 -3.686672,-7.19949 -5.108014,-2.37898 -11.855365,-1.23303 -11.874215,0.97936"
       style="fill:#efedec;fill-opacity:1;fill-rule:nonzero;stroke:none;stroke-width:0.03029859"
       id="path1248"
       inkscape:connector-curvature="0"
       inkscape:transform-center-x="-25.50766"
       inkscape:transform-center-y="-3.3904842" />
    <path
       d="m 62.691899,276.09645 c 0.802226,1.20468 1.424791,2.47279 -0.371281,3.30222 -1.796375,0.82914 -4.267777,-1.97245 -4.236364,-2.79925 0.03143,-0.82738 1.854179,-2.0534 3.122227,-1.63723 1.268057,0.4156 1.108483,0.56757 1.485418,1.13426"
       style="fill:#efedec;fill-opacity:1;fill-rule:nonzero;stroke:none;stroke-width:0.03029859"
       id="path1250"
       inkscape:connector-curvature="0" />
    <path
       d="m 60.490319,272.39529 c 0.03232,0.71866 -0.887979,2.61104 -2.033217,2.88956 -1.145238,0.27852 -2.550556,-0.47112 -2.768549,-1.60245 -0.217672,-1.13133 -0.363419,-2.57128 0.65209,-2.99858 1.01551,-0.42728 2.484909,-0.30365 3.239393,0.27648 0.754173,0.57984 0.910283,1.43499 0.910283,1.43499"
       style="fill:#efedec;fill-opacity:1;fill-rule:nonzero;stroke:none;stroke-width:0.03029859"
       id="path1252"
       inkscape:connector-curvature="0" />
    <path
       d="m 65.287055,267.44619 c 1.356632,-0.64384 2.595468,-1.42827 1.520276,-3.00354 -1.075191,-1.57497 -4.748673,-0.36911 -5.182147,0.35334 -0.433465,0.72276 0.443206,2.64932 1.759006,2.90475 1.316735,0.25544 1.264593,0.048 1.902865,-0.25455"
       style="fill:#efedec;fill-opacity:1;fill-rule:nonzero;stroke:none;stroke-width:0.03029859"
       id="path1254"
       inkscape:connector-curvature="0" />
    <path
       d="m 61.343752,269.55132 c 0.427499,-0.59912 0.693234,-2.661 -0.131305,-3.45126 -0.824842,-0.79028 -2.443756,-0.82681 -3.260121,0.0362 -0.816045,0.86333 -1.742346,2.02477 -1.111626,2.87933 0.631041,0.85485 1.956582,1.45691 2.924972,1.3248 0.96839,-0.13239 1.57808,-0.78909 1.57808,-0.78909"
       style="fill:#efedec;fill-opacity:1;fill-rule:nonzero;stroke:none;stroke-width:0.03029859"
       id="path1256"
       inkscape:connector-curvature="0" />
    <path
       d="m 67.795826,265.41705 c 0.07542,1.11788 -1.075503,1.80089 -2.309005,2.38598 -0.766104,0.36358 -0.70391,0.61258 -2.282925,0.30542 -0.355886,-0.069 -0.682871,-0.24257 -0.972797,-0.4755 0.02448,0.91797 -0.198832,1.85554 -0.483719,2.25418 0,0 -0.594927,0.638 -1.563006,0.88145 l -0.0062,0.0295 c 0.690723,0.67366 0.844635,1.50484 0.844635,1.50484 0.02137,0.47814 -0.309399,1.38823 -0.841812,2.16154 0.377878,-0.0593 0.754493,-0.0509 1.096863,0.0616 1.522172,0.4983 1.330562,0.68155 1.783509,1.36134 0.685381,1.02875 1.260195,2.09549 0.75825,2.98366 l 0.131929,0.14468 c 0,0 6.654992,1.9587 8.771139,-5.09466 2.116138,-7.05306 -4.667639,-8.58449 -4.667639,-8.58449 l -0.259458,0.0804"
       style="fill:#efedec;fill-opacity:1;fill-rule:nonzero;stroke:none;stroke-width:0.03029859"
       id="path1258"
       inkscape:connector-curvature="0" />
  </g>
</svg>
