<?xml version="1.0" encoding="UTF-8" standalone="no"?>
<!-- Generator: Adobe Illustrator 19.0.0, SVG Export Plug-In . SVG Version: 6.00 Build 0)  -->

<svg
   xmlns:dc="http://purl.org/dc/elements/1.1/"
   xmlns:cc="http://creativecommons.org/ns#"
   xmlns:rdf="http://www.w3.org/1999/02/22-rdf-syntax-ns#"
   xmlns:svg="http://www.w3.org/2000/svg"
   xmlns="http://www.w3.org/2000/svg"
   xmlns:sodipodi="http://sodipodi.sourceforge.net/DTD/sodipodi-0.dtd"
   xmlns:inkscape="http://www.inkscape.org/namespaces/inkscape"
   version="1.1"
   id="Layer_1"
   x="0px"
   y="0px"
   viewBox="0 0 512 512"
   style="enable-background:new 0 0 512 512;"
   xml:space="preserve"
   sodipodi:docname="image.svg"
   inkscape:version="0.92.0 r15299"><metadata
   id="metadata3745"><rdf:RDF><cc:Work
       rdf:about=""><dc:format>image/svg+xml</dc:format><dc:type
         rdf:resource="http://purl.org/dc/dcmitype/StillImage" /><dc:title></dc:title></cc:Work></rdf:RDF></metadata><defs
   id="defs3743" /><sodipodi:namedview
   pagecolor="#ffffff"
   bordercolor="#666666"
   borderopacity="1"
   objecttolerance="10"
   gridtolerance="10"
   guidetolerance="10"
   inkscape:pageopacity="0"
   inkscape:pageshadow="2"
   inkscape:window-width="732"
   inkscape:window-height="480"
   id="namedview3741"
   showgrid="false"
   inkscape:zoom="0.4609375"
   inkscape:cx="459.29412"
   inkscape:cy="256"
   inkscape:window-x="313"
   inkscape:window-y="165"
   inkscape:window-maximized="0"
   inkscape:current-layer="Layer_1" />
<rect
   style="fill:#efece8;fill-opacity:1;stroke-width:0.9965862"
   id="rect3899"
   width="508.3028"
   height="512.20905"
   x="2.3389831"
   y="2" /><g
   id="g3684"
   transform="matrix(0.22033898,0,0,0.21396723,214.77966,202.30913)"
   style="fill:#c6c3bd;fill-opacity:1">
	<g
   id="g3682"
   style="fill:#c6c3bd;fill-opacity:1">
		<path
   d="M 489.396,44.856 H 22.604 C 10.14,44.856 0,54.996 0,67.46 v 377.08 c 0,12.464 10.14,22.604 22.604,22.604 H 489.396 C 501.86,467.144 512,457.004 512,444.54 V 67.46 C 512,54.996 501.86,44.856 489.396,44.856 Z m 0,399.684 -466.791,0.015 c 0,0 -0.001,-0.005 -0.001,-0.015 V 67.46 h 466.792 z"
   id="path3680"
   inkscape:connector-curvature="0"
   style="fill:#c6c3bd;fill-opacity:1" />
	</g>
</g>
<g
   id="g3690"
   transform="matrix(0.22033898,0,0,0.21396723,214.77966,202.30913)"
   style="fill:#c6c3bd;fill-opacity:1">
	<g
   id="g3688"
   style="fill:#c6c3bd;fill-opacity:1">
		<path
   d="M 446.975,98.58 H 65.024 c -6.241,0 -11.302,5.061 -11.302,11.302 v 249.8 c 0,6.241 5.061,11.301 11.302,11.301 h 381.95 c 6.241,0 11.302,-5.061 11.302,-11.302 V 109.882 c 10e-4,-6.241 -5.06,-11.302 -11.301,-11.302 z M 76.326,121.184 h 359.346 v 191.334 l -71.228,-71.22 c -4.412,-4.412 -11.568,-4.412 -15.983,0 l -43.421,43.421 -99.56,-99.56 c -4.413,-4.41 -11.569,-4.412 -15.983,0 L 76.327,298.319 V 121.184 Z m 0,227.194 v -18.095 l 121.162,-121.15 139.244,139.245 z m 359.348,0.001 h -66.973 v -0.001 l -47.676,-47.676 35.429,-35.43 76.622,76.612 c 0.788,0.788 1.666,1.43 2.597,1.936 v 4.559 z"
   id="path3686"
   inkscape:connector-curvature="0"
   style="fill:#c6c3bd;fill-opacity:1" />
	</g>
</g>
<g
   id="g3696"
   transform="matrix(0.22033898,0,0,0.21396723,214.77966,202.30913)"
   style="fill:#c6c3bd;fill-opacity:1">
	<g
   id="g3694"
   style="fill:#c6c3bd;fill-opacity:1">
		<path
   d="m 304.345,142.629 c -23.56,0 -42.729,19.168 -42.729,42.729 0,23.561 19.168,42.729 42.729,42.729 23.561,0 42.729,-19.168 42.729,-42.729 0,-23.561 -19.169,-42.729 -42.729,-42.729 z m 0,62.854 c -11.098,0 -20.125,-9.027 -20.125,-20.125 0,-11.097 9.028,-20.124 20.125,-20.124 11.096,0 20.124,9.027 20.124,20.124 0,11.098 -9.027,20.125 -20.124,20.125 z"
   id="path3692"
   inkscape:connector-curvature="0"
   style="fill:#c6c3bd;fill-opacity:1" />
	</g>
</g>
<g
   id="g3702"
   transform="matrix(0.22033898,0,0,0.21396723,214.77966,202.30913)"
   style="fill:#c6c3bd;fill-opacity:1">
	<g
   id="g3700"
   style="fill:#c6c3bd;fill-opacity:1">
		<path
   d="M 163.332,396.458 H 65.024 c -6.241,0 -11.302,5.061 -11.302,11.302 0,6.242 5.061,11.302 11.302,11.302 h 98.308 c 6.242,0 11.302,-5.061 11.302,-11.302 0,-6.241 -5.06,-11.302 -11.302,-11.302 z"
   id="path3698"
   inkscape:connector-curvature="0"
   style="fill:#c6c3bd;fill-opacity:1" />
	</g>
</g>
<g
   id="g3708"
   transform="matrix(0.22033898,0,0,0.21396723,214.77966,202.30913)"
   style="fill:#c6c3bd;fill-opacity:1">
	<g
   id="g3706"
   style="fill:#c6c3bd;fill-opacity:1">
		<path
   d="m 240.689,396.458 h -25.785 c -6.241,0 -11.302,5.061 -11.302,11.302 0,6.241 5.061,11.302 11.302,11.302 h 25.785 c 6.242,0 11.302,-5.061 11.302,-11.302 0,-6.241 -5.061,-11.302 -11.302,-11.302 z"
   id="path3704"
   inkscape:connector-curvature="0"
   style="fill:#c6c3bd;fill-opacity:1" />
	</g>
</g>
<g
   id="g3710"
   transform="matrix(0.22033898,0,0,0.21396723,214.77966,202.30913)"
   style="fill:#808080">
</g>
<g
   id="g3712"
   transform="matrix(0.22033898,0,0,0.21396723,214.77966,202.30913)"
   style="fill:#808080">
</g>
<g
   id="g3714"
   transform="matrix(0.22033898,0,0,0.21396723,214.77966,202.30913)"
   style="fill:#808080">
</g>
<g
   id="g3716"
   transform="matrix(0.22033898,0,0,0.21396723,214.77966,202.30913)"
   style="fill:#808080">
</g>
<g
   id="g3718"
   transform="matrix(0.22033898,0,0,0.21396723,214.77966,202.30913)"
   style="fill:#808080">
</g>
<g
   id="g3720"
   transform="matrix(0.22033898,0,0,0.21396723,214.77966,202.30913)"
   style="fill:#808080">
</g>
<g
   id="g3722"
   transform="matrix(0.22033898,0,0,0.21396723,214.77966,202.30913)"
   style="fill:#808080">
</g>
<g
   id="g3724"
   transform="matrix(0.22033898,0,0,0.21396723,214.77966,202.30913)"
   style="fill:#808080">
</g>
<g
   id="g3726"
   transform="matrix(0.22033898,0,0,0.21396723,214.77966,202.30913)"
   style="fill:#808080">
</g>
<g
   id="g3728"
   transform="matrix(0.22033898,0,0,0.21396723,214.77966,202.30913)"
   style="fill:#808080">
</g>
<g
   id="g3730"
   transform="matrix(0.22033898,0,0,0.21396723,214.77966,202.30913)"
   style="fill:#808080">
</g>
<g
   id="g3732"
   transform="matrix(0.22033898,0,0,0.21396723,214.77966,202.30913)"
   style="fill:#808080">
</g>
<g
   id="g3734"
   transform="matrix(0.22033898,0,0,0.21396723,214.77966,202.30913)"
   style="fill:#808080">
</g>
<g
   id="g3736"
   transform="matrix(0.22033898,0,0,0.21396723,214.77966,202.30913)"
   style="fill:#808080">
</g>
<g
   id="g3738"
   transform="matrix(0.22033898,0,0,0.21396723,214.77966,202.30913)"
   style="fill:#808080">
</g>
</svg>