<?xml version="1.0" encoding="UTF-8" standalone="no"?>
<!-- Created with Inkscape (http://www.inkscape.org/) -->

<svg
   xmlns:dc="http://purl.org/dc/elements/1.1/"
   xmlns:cc="http://creativecommons.org/ns#"
   xmlns:rdf="http://www.w3.org/1999/02/22-rdf-syntax-ns#"
   xmlns:svg="http://www.w3.org/2000/svg"
   xmlns="http://www.w3.org/2000/svg"
   xmlns:sodipodi="http://sodipodi.sourceforge.net/DTD/sodipodi-0.dtd"
   xmlns:inkscape="http://www.inkscape.org/namespaces/inkscape"
   width="77mm"
   height="68mm"
   viewBox="0 0 77 68"
   version="1.1"
   id="svg4424"
   inkscape:version="0.92.0 r15299"
   sodipodi:docname="logo-vet-pets-v1.svg">
  <defs
     id="defs4418">
    <clipPath
       clipPathUnits="userSpaceOnUse"
       id="clipPath4126">
      <path
         d="M 0,800 H 800 V 0 H 0 Z"
         id="path4124"
         inkscape:connector-curvature="0" />
    </clipPath>
  </defs>
  <sodipodi:namedview
     id="base"
     pagecolor="#ffffff"
     bordercolor="#666666"
     borderopacity="1.0"
     inkscape:pageopacity="0.0"
     inkscape:pageshadow="2"
     inkscape:zoom="1.5273506"
     inkscape:cx="151.5202"
     inkscape:cy="145.77884"
     inkscape:document-units="mm"
     inkscape:current-layer="layer1"
     showgrid="false"
     units="mm"
     width="104mm"
     inkscape:window-width="548"
     inkscape:window-height="500"
     inkscape:window-x="320"
     inkscape:window-y="180"
     inkscape:window-maximized="0" />
  <metadata
     id="metadata4421">
    <rdf:RDF>
      <cc:Work
         rdf:about="">
        <dc:format>image/svg+xml</dc:format>
        <dc:type
           rdf:resource="http://purl.org/dc/dcmitype/StillImage" />
        <dc:title></dc:title>
      </cc:Work>
    </rdf:RDF>
  </metadata>
  <g
     inkscape:label="Layer 1"
     inkscape:groupmode="layer"
     id="layer1"
     transform="translate(0,-229)">
    <g
       transform="matrix(0.35277777,0,0,-0.35277777,-161.8251,338.42024)"
       id="g4120">
      <g
         id="g4122"
         clip-path="url(#clipPath4126)">
        <g
           id="g4128"
           transform="translate(513.1567,260.165)">
          <path
             d="M 0,0 C 7.644,7.289 17.8,11.492 28.807,12.069 21.384,24.62 7.719,33.048 -7.92,33.048 c -23.554,0 -42.645,-19.096 -42.645,-42.647 0,-14.03 7.37,-31.058 27.241,-46.355 10.52,-8.1 9.885,-6.995 19.794,-13.559 l 1.78,1.882 C -18.031,-46.096 -17.646,-16.826 0,0"
             style="fill:#ffffff;fill-opacity:1;fill-rule:nonzero;stroke:none"
             id="path4130"
             inkscape:connector-curvature="0" />
        </g>
        <g
           id="g4132"
           transform="translate(561.2729,207.0937)">
          <path
             d="m 0,0 c -10.823,-9.42 -20.138,-16.899 -28.259,-6.955 -8.115,9.944 -8.268,26.822 2.551,36.241 10.823,9.421 28.523,7.818 36.638,-2.129 C 19.051,17.213 10.82,9.422 0,0 m -37.178,25.66 c -2.908,-0.124 -5.385,3.346 -5.534,7.75 -0.153,4.411 2.078,8.088 4.982,8.214 2.902,0.132 5.38,-3.34 5.532,-7.749 0.151,-4.407 -2.078,-8.086 -4.98,-8.215 m -3.77,-21.239 c -2.636,-0.709 -5.526,1.626 -6.458,5.204 -0.932,3.582 0.452,7.056 3.087,7.761 2.633,0.704 5.525,-1.629 6.457,-5.209 0.929,-3.578 -0.45,-7.056 -3.086,-7.756 M -28.9,46.647 c 1.113,2.685 5.33,3.525 9.423,1.873 4.089,-1.648 6.502,-5.164 5.392,-7.85 -1.115,-2.685 -5.334,-3.521 -9.427,-1.871 -4.09,1.65 -6.504,5.166 -5.388,7.848 m 24.465,-0.918 c 1.569,2.238 5.314,2.353 8.367,0.25 3.048,-2.096 4.255,-5.61 2.683,-7.846 -1.562,-2.24 -5.314,-2.349 -8.364,-0.249 -3.053,2.095 -4.255,5.609 -2.686,7.845 m 24.206,-2.34 C 1.125,62.33 -27.273,64.82 -44.058,48.815 -60.841,32.81 -59.705,4.323 -41.668,-15.2 l -0.016,-0.015 30.171,-31.638 0.261,0.21 c 11.246,9.031 18.471,23.981 24.276,35.994 6.971,14.425 11.34,29.682 14.692,42.707 l 0.609,2.363 z"
             style="fill:#e29d39;fill-opacity:1;fill-rule:nonzero;stroke:none"
             id="path4134"
             inkscape:connector-curvature="0" />
        </g>
        <g
           id="g4136"
           transform="translate(600.2124,189.5586)">
          <path
             d="M 0,0 C 3.979,9.922 7.263,20.041 10.056,30.288 L -7.426,48.614 C -11.256,33.734 -15.697,19.018 -22.385,5.18 -28.731,-7.955 -36.048,-22.78 -47.736,-32.166 l 16.354,-17.147 C -15.677,-39.978 -6.223,-15.523 0,0"
             style="fill:#ffffff;fill-opacity:1;fill-rule:nonzero;stroke:none"
             id="path4138"
             inkscape:connector-curvature="0" />
        </g>
        <g
           id="g4140"
           transform="translate(632.7065,196.3252)">
          <path
             d="m 0,0 -19.154,20.08 c -3.305,-11.88 -7.348,-23.54 -12.453,-34.757 -2.714,-5.96 -5.712,-12.875 -9.286,-19.607 C -25.671,-26.422 -11.552,-14.344 0,0"
             style="fill:#ffffff;fill-opacity:1;fill-rule:nonzero;stroke:none"
             id="path4142"
             inkscape:connector-curvature="0" />
        </g>
        <g
           id="g4144"
           transform="translate(591.9526,157.7197)">
          <path
             d="M 0,0 C -0.124,0.056 -0.406,-0.204 0,0"
             style="fill:#88ccea;fill-opacity:1;fill-rule:nonzero;stroke:none"
             id="path4146"
             inkscape:connector-curvature="0" />
        </g>
        <g
           id="g4148"
           transform="translate(646.7808,181.5723)">
          <path
             d="m 0,0 -11.364,11.912 c -12.241,-15.069 -30.103,-29.138 -46.31,-37.214 -4.844,-8.215 -10.144,-14.2 -17.542,-18.894 l 11.347,-11.899 c 0,0 17.888,-2.55 40.526,19.041 C 2.492,-12.42 0,0 0,0"
             style="fill:#ffffff;fill-opacity:1;fill-rule:nonzero;stroke:none"
             id="path4150"
             inkscape:connector-curvature="0" />
        </g>
        <g
           id="g4152"
           transform="translate(623.436,304.0107)">
          <path
             d="m 0,0 c -26.012,0 -47.414,-17.506 -50.114,-39.978 4.277,-2.596 8.298,-5.75 11.913,-9.423 L 9.443,-99.345 c 2.913,1.92 5.837,3.876 8.764,5.879 23.486,16.065 32.199,33.947 32.199,48.681 C 50.406,-20.051 27.839,0 0,0"
             style="fill:#ffffff;fill-opacity:1;fill-rule:nonzero;stroke:none"
             id="path4154"
             inkscape:connector-curvature="0" />
        </g>
      </g>
    </g>
    <text
       y="242.82542"
       x="49.896523"
       style="font-variant:normal;font-weight:900;font-stretch:normal;font-size:8.46666622px;font-family:'Alegreya Sans Black';-inkscape-font-specification:AlegreyaSans-Black;writing-mode:lr-tb;fill:#f7f2dc;fill-opacity:1;fill-rule:nonzero;stroke:none;stroke-width:0.35277775"
       id="text4158">
      <tspan
         style="stroke-width:0.35277775"
         x="49.896523 54.968056 59.353798"
         y="242.82542"
         sodipodi:role="line"
         id="tspan4156">Pet</tspan>
    </text>
    <text
       y="249.5282"
       x="52.677536"
       style="font-variant:normal;font-weight:bold;font-stretch:normal;font-size:7.76111078px;font-family:'Alegreya Sans';-inkscape-font-specification:AlegreyaSans-Bold;writing-mode:lr-tb;fill:#f7f2dc;fill-opacity:1;fill-rule:nonzero;stroke:none;stroke-width:0.35277775"
       id="text4162">
      <tspan
         style="stroke-width:0.35277775"
         x="52.677536"
         sodipodi:role="line"
         id="tspan4160"
         y="249.5282">Vet</tspan>
    </text>
  </g>
</svg>
