<?xml version="1.0" encoding="UTF-8" standalone="no"?>
<!-- Created with Inkscape (http://www.inkscape.org/) -->

<svg
   xmlns:dc="http://purl.org/dc/elements/1.1/"
   xmlns:cc="http://creativecommons.org/ns#"
   xmlns:rdf="http://www.w3.org/1999/02/22-rdf-syntax-ns#"
   xmlns:svg="http://www.w3.org/2000/svg"
   xmlns="http://www.w3.org/2000/svg"
   xmlns:sodipodi="http://sodipodi.sourceforge.net/DTD/sodipodi-0.dtd"
   xmlns:inkscape="http://www.inkscape.org/namespaces/inkscape"
   width="76mm"
   height="77mm"
   viewBox="0 0 76 77"
   version="1.1"
   id="svg4170"
   inkscape:version="0.92.0 r15299"
   sodipodi:docname="logo-login.svg">
  <defs
     id="defs4164">
    <clipPath
       clipPathUnits="userSpaceOnUse"
       id="clipPath4126">
      <path
         d="M 0,800 H 800 V 0 H 0 Z"
         id="path4124"
         inkscape:connector-curvature="0" />
    </clipPath>
  </defs>
  <sodipodi:namedview
     id="base"
     pagecolor="#ffffff"
     bordercolor="#666666"
     borderopacity="1.0"
     inkscape:pageopacity="0.0"
     inkscape:pageshadow="2"
     inkscape:zoom="0.98994949"
     inkscape:cx="154.71636"
     inkscape:cy="138.60261"
     inkscape:document-units="mm"
     inkscape:current-layer="g4120"
     showgrid="false"
     inkscape:window-width="864"
     inkscape:window-height="519"
     inkscape:window-x="111"
     inkscape:window-y="220"
     inkscape:window-maximized="0"
     showguides="false" />
  <metadata
     id="metadata4167">
    <rdf:RDF>
      <cc:Work
         rdf:about="">
        <dc:format>image/svg+xml</dc:format>
        <dc:type
           rdf:resource="http://purl.org/dc/dcmitype/StillImage" />
        <dc:title></dc:title>
      </cc:Work>
    </rdf:RDF>
  </metadata>
  <g
     inkscape:label="Layer 1"
     inkscape:groupmode="layer"
     id="layer1"
     transform="translate(0,-220)">
    <g
       transform="matrix(0.35277777,0,0,-0.35277777,-162.42987,343.18277)"
       id="g4120">
      <g
         id="g4122"
         clip-path="url(#clipPath4126)">
        <g
           id="g4128"
           transform="translate(513.1567,305.165)">
          <path
             d="M 0,0 C 7.644,7.289 17.8,11.492 28.807,12.069 21.384,24.62 7.719,33.048 -7.92,33.048 c -23.554,0 -42.645,-19.096 -42.645,-42.647 0,-14.03 7.37,-31.058 27.241,-46.355 10.52,-8.1 9.885,-6.995 19.794,-13.559 l 1.78,1.882 C -18.031,-46.096 -17.646,-16.826 0,0"
             style="fill:#9f81ea;fill-opacity:0.99215686;fill-rule:nonzero;stroke:none"
             id="path4130"
             inkscape:connector-curvature="0" />
        </g>
        <g
           id="g4132"
           transform="translate(561.2729,252.0937)">
          <path
             d="m 0,0 c -10.823,-9.42 -20.138,-16.899 -28.259,-6.955 -8.115,9.944 -8.268,26.822 2.551,36.241 10.823,9.421 28.523,7.818 36.638,-2.129 C 19.051,17.213 10.82,9.422 0,0 m -37.178,25.66 c -2.908,-0.124 -5.385,3.346 -5.534,7.75 -0.153,4.411 2.078,8.088 4.982,8.214 2.902,0.132 5.38,-3.34 5.532,-7.749 0.151,-4.407 -2.078,-8.086 -4.98,-8.215 m -3.77,-21.239 c -2.636,-0.709 -5.526,1.626 -6.458,5.204 -0.932,3.582 0.452,7.056 3.087,7.761 2.633,0.704 5.525,-1.629 6.457,-5.209 0.929,-3.578 -0.45,-7.056 -3.086,-7.756 M -28.9,46.647 c 1.113,2.685 5.33,3.525 9.423,1.873 4.089,-1.648 6.502,-5.164 5.392,-7.85 -1.115,-2.685 -5.334,-3.521 -9.427,-1.871 -4.09,1.65 -6.504,5.166 -5.388,7.848 m 24.465,-0.918 c 1.569,2.238 5.314,2.353 8.367,0.25 3.048,-2.096 4.255,-5.61 2.683,-7.846 -1.562,-2.24 -5.314,-2.349 -8.364,-0.249 -3.053,2.095 -4.255,5.609 -2.686,7.845 m 24.206,-2.34 C 1.125,62.33 -27.273,64.82 -44.058,48.815 -60.841,32.81 -59.705,4.323 -41.668,-15.2 l -0.016,-0.015 30.171,-31.638 0.261,0.21 c 11.246,9.031 18.471,23.981 24.276,35.994 6.971,14.425 11.34,29.682 14.692,42.707 l 0.609,2.363 z"
             style="fill:#e29d39;fill-opacity:1;fill-rule:nonzero;stroke:none"
             id="path4134"
             inkscape:connector-curvature="0" />
        </g>
        <g
           id="g4136"
           transform="translate(600.2124,234.5586)">
          <path
             d="M 0,0 C 3.979,9.922 7.263,20.041 10.056,30.288 L -7.426,48.614 C -11.256,33.734 -15.697,19.018 -22.385,5.18 -28.731,-7.955 -36.048,-22.78 -47.736,-32.166 l 16.354,-17.147 C -15.677,-39.978 -6.223,-15.523 0,0"
             style="fill:#d0d8ef;fill-opacity:1;fill-rule:nonzero;stroke:none"
             id="path4138"
             inkscape:connector-curvature="0" />
        </g>
        <g
           id="g4140"
           transform="translate(632.7065,241.3252)">
          <path
             d="m 0,0 -19.154,20.08 c -3.305,-11.88 -7.348,-23.54 -12.453,-34.757 -2.714,-5.96 -5.712,-12.875 -9.286,-19.607 C -25.671,-26.422 -11.552,-14.344 0,0"
             style="fill:#d0d8ef;fill-opacity:1;fill-rule:nonzero;stroke:none"
             id="path4142"
             inkscape:connector-curvature="0" />
        </g>
        <g
           id="g4144"
           transform="translate(591.9526,202.7197)">
          <path
             d="M 0,0 C -0.124,0.056 -0.406,-0.204 0,0"
             style="fill:#88ccea;fill-opacity:1;fill-rule:nonzero;stroke:none"
             id="path4146"
             inkscape:connector-curvature="0" />
        </g>
        <g
           id="g4148"
           transform="translate(646.7808,226.5723)">
          <path
             d="m 0,0 -11.364,11.912 c -12.241,-15.069 -30.103,-29.138 -46.31,-37.214 -4.844,-8.215 -10.144,-14.2 -17.542,-18.894 l 11.347,-11.899 c 0,0 17.888,-2.55 40.526,19.041 C 2.492,-12.42 0,0 0,0"
             style="fill:#d0d8ef;fill-opacity:1;fill-rule:nonzero;stroke:none"
             id="path4150"
             inkscape:connector-curvature="0" />
        </g>
        <g
           id="g4152"
           transform="translate(623.436,349.0107)">
          <path
             d="m 0,0 c -26.012,0 -47.414,-17.506 -50.114,-39.978 4.277,-2.596 8.298,-5.75 11.913,-9.423 L 9.443,-99.345 c 2.913,1.92 5.837,3.876 8.764,5.879 23.486,16.065 32.199,33.947 32.199,48.681 C 50.406,-20.051 27.839,0 0,0"
             style="fill:#a081ea;fill-opacity:0.9906977;fill-rule:nonzero;stroke:none"
             id="path4154"
             inkscape:connector-curvature="0" />
        </g>
        <text
           y="-135.13586"
           x="589.82617"
           style="font-variant:normal;font-weight:normal;font-stretch:normal;font-size:38px;font-family:'ChunkFive Roman';-inkscape-font-specification:ChunkFive-Roman;writing-mode:lr-tb;fill:#e29d39;fill-opacity:1;fill-rule:nonzero;stroke:none;stroke-width:0.99999994"
           id="text3906"
           transform="scale(1,-1)">
          <tspan
             style="stroke-width:0.99999994"
             x="589.82617 614.14618 638.96014 665.59814"
             y="-135.13586"
             sodipodi:role="line"
             id="tspan3904">PET</tspan>
        </text>
        <text
           y="-134.39348"
           x="492.79102"
           style="font-variant:normal;font-weight:bold;font-stretch:normal;font-size:38px;font-family:Tienne;-inkscape-font-specification:Tienne-Bold;writing-mode:lr-tb;fill:#e29d39;fill-opacity:1;fill-rule:nonzero;stroke:none;stroke-width:0.99999994"
           id="text3910"
           transform="scale(1,-1)">
          <tspan
             style="stroke-width:0.99999994"
             x="492.79102 524.10303 550.24701"
             y="-134.39348"
             sodipodi:role="line"
             id="tspan3908">VET</tspan>
        </text>
      </g>
    </g>
    <text
       y="238.06299"
       x="54.054264"
       style="font-variant:normal;font-weight:900;font-stretch:normal;font-size:8.46666622px;font-family:'Alegreya Sans Black';-inkscape-font-specification:AlegreyaSans-Black;writing-mode:lr-tb;fill:#f7f2dc;fill-opacity:1;fill-rule:nonzero;stroke:none;stroke-width:0.35277775"
       id="text4158">
      <tspan
         style="font-style:normal;font-variant:normal;font-weight:bold;font-stretch:normal;font-family:'Alegreya Sans Black';-inkscape-font-specification:'Alegreya Sans Black,  Bold';stroke-width:0.35277775"
         x="59.125805 59.125805 59.125805 59.125805 59.125805 59.125805 59.125805 59.125805 59.125805 63.511528"
         sodipodi:role="line"
         id="tspan4156" />
    </text>
    <text
       y="229.68202"
       x="50.485279"
       style="font-variant:normal;font-weight:bold;font-stretch:normal;font-size:7.76111078px;font-family:'Alegreya Sans';-inkscape-font-specification:AlegreyaSans-Bold;writing-mode:lr-tb;fill:#f7f2dc;fill-opacity:1;fill-rule:nonzero;stroke:none;stroke-width:0.35277775"
       id="text4162">
      <tspan
         style="stroke-width:0.35277775"
         x="50.485279"
         sodipodi:role="line"
         id="tspan4160"
         y="229.68202">Vet</tspan>
    </text>
    <text
       xml:space="preserve"
       style="font-style:normal;font-variant:normal;font-weight:bold;font-stretch:normal;font-size:10.58333302px;line-height:6.61458302px;font-family:sans-serif;-inkscape-font-specification:'sans-serif Bold';letter-spacing:0px;word-spacing:0px;fill:#f7f2dc;fill-opacity:1;stroke:none;stroke-width:0.26458332"
       x="65.76442"
       y="231.62117"
       id="text5057"><tspan
         sodipodi:role="line"
         id="tspan5055"
         x="65.76442"
         y="231.62117"
         style="font-style:normal;font-variant:normal;font-weight:bold;font-stretch:normal;font-size:4.23333311px;font-family:sans-serif;-inkscape-font-specification:'sans-serif Bold';fill:#f7f2dc;fill-opacity:1;stroke-width:0.26458332">v1</tspan></text>
    <text
       xml:space="preserve"
       style="font-style:normal;font-weight:normal;font-size:10.58333302px;line-height:6.61458302px;font-family:sans-serif;letter-spacing:0px;word-spacing:0px;fill:#000000;fill-opacity:1;stroke:none;stroke-width:0.26458332"
       x="65.481033"
       y="236.86435"
       id="text5091"><tspan
         sodipodi:role="line"
         id="tspan5089"
         x="65.481033"
         y="243.21255"
         style="stroke-width:0.26458332" /></text>
    <text
       xml:space="preserve"
       style="font-style:normal;font-variant:normal;font-weight:bold;font-stretch:normal;font-size:8.46666622px;line-height:6.61458302px;font-family:sans-serif;-inkscape-font-specification:'sans-serif Bold';letter-spacing:0px;word-spacing:0px;fill:#f7f2dc;fill-opacity:1;stroke:none;stroke-width:0.26458332"
       x="51.669147"
       y="237.43655"
       id="text5095"><tspan
         sodipodi:role="line"
         id="tspan5093"
         x="51.669147"
         y="237.43655"
         style="font-style:normal;font-variant:normal;font-weight:bold;font-stretch:normal;font-size:8.46666622px;font-family:sans-serif;-inkscape-font-specification:'sans-serif Bold';fill:#f7f2dc;fill-opacity:1;stroke-width:0.26458332">Pet</tspan></text>
    <circle
       style="fill:#a081ea;fill-opacity:0.99215686;stroke-width:0.26458332"
       id="path5103"
       cx="42.624119"
       cy="291.24835"
       r="0.93544334" />
  </g>
</svg>
