<?xml version="1.0" encoding="UTF-8" standalone="no"?>
<svg
   xmlns:dc="http://purl.org/dc/elements/1.1/"
   xmlns:cc="http://creativecommons.org/ns#"
   xmlns:rdf="http://www.w3.org/1999/02/22-rdf-syntax-ns#"
   xmlns:svg="http://www.w3.org/2000/svg"
   xmlns="http://www.w3.org/2000/svg"
   xmlns:sodipodi="http://sodipodi.sourceforge.net/DTD/sodipodi-0.dtd"
   xmlns:inkscape="http://www.inkscape.org/namespaces/inkscape"
   viewBox="1 1 511.999 511.999"
   version="1.1"
   id="svg3787"
   sodipodi:docname="pets-no.svg"
   inkscape:version="0.92.0 r15299">
  <metadata
     id="metadata3793">
    <rdf:RDF>
      <cc:Work
         rdf:about="">
        <dc:format>image/svg+xml</dc:format>
        <dc:type
           rdf:resource="http://purl.org/dc/dcmitype/StillImage" />
        <dc:title></dc:title>
      </cc:Work>
    </rdf:RDF>
  </metadata>
  <defs
     id="defs3791" />
  <sodipodi:namedview
     pagecolor="#ffffff"
     bordercolor="#666666"
     borderopacity="1"
     objecttolerance="10"
     gridtolerance="10"
     guidetolerance="10"
     inkscape:pageopacity="0"
     inkscape:pageshadow="2"
     inkscape:window-width="640"
     inkscape:window-height="480"
     id="namedview3789"
     showgrid="false"
     inkscape:zoom="0.46093841"
     inkscape:cx="255.9995"
     inkscape:cy="255.9995"
     inkscape:window-x="346"
     inkscape:window-y="225"
     inkscape:window-maximized="0"
     inkscape:current-layer="svg3787" />
  <path
     d="m437.039062 436.996094c48.339844-48.347656 74.960938-112.625 74.960938-180.996094 0-68.382812-26.628906-132.667969-74.980469-181.019531-48.351562-48.351563-112.640625-74.980469-181.019531-74.980469s-132.664062 26.628906-181.015625 74.976562c0 0-.003906.003907-.003906.003907-.003907.003906-.003907.007812-.007813.007812-48.347656 48.351563-74.972656 112.636719-74.972656 181.011719 0 68.382812 26.628906 132.667969 74.980469 181.019531 48.351562 48.351563 112.636719 74.980469 181.019531 74.980469 68.371094 0 132.648438-26.625 181-74.964844.007812-.007812.015625-.011718.019531-.019531.007813-.003906.011719-.011719.019531-.019531zm44.960938-180.996094c0 56.921875-21.160156 108.988281-56.019531 148.765625l-95.476563-95.476563-93.746094-93.742187-20.167968-20.167969h.003906l-109.359375-109.359375c39.777344-34.859375 91.84375-56.019531 148.765625-56.019531 124.617188 0 226 101.382812 226 226zm-385.808594 159.808594c-42.683594-42.6875-66.191406-99.441406-66.191406-159.808594 0-56.921875 21.160156-108.988281 56.019531-148.765625l22.324219 22.324219c-6.539062 2.734375-12.472656 7.382812-17.167969 13.648437-6.992187 9.320313-10.84375 21.480469-10.84375 34.242188s3.851563 24.925781 10.839844 34.246093c7.84375 10.460938 19.121094 16.460938 30.9375 16.460938 11.8125 0 23.089844-6 30.933594-16.457031 5.65625-7.542969 9.253906-16.945313 10.425781-27.019531l39.375 39.378906c-56.492188 21.492187-96.742188 76.207031-96.742188 140.148437.003907 13.148438 3.804688 25.90625 10.992188 36.886719 12.523438 19.144531 33.632812 30.570312 56.46875 30.570312 18.101562 0 32.015625-4.121093 45.476562-8.109374 11.9375-3.535157 23.207032-6.875 36.960938-6.875 13.75 0 25.019531 3.339843 36.953125 6.875 13.460937 3.988281 27.375 8.109374 45.480469 8.109374 19.230468 0 37.238281-8.105468 49.925781-22.097656l16.410156 16.410156c-39.78125 34.863282-91.847656 56.023438-148.773437 56.023438-60.363282 0-117.117188-23.507812-159.804688-66.191406zm0 0"
     id="path3779"
     style="fill:#f3f2f1" />
  <path
     d="m358.953125 211.699219c7.84375 10.460937 19.117187 16.457031 30.933594 16.457031 11.816406 0 23.09375-5.996094 30.9375-16.457031 6.992187-9.324219 10.84375-21.484375 10.84375-34.25 0-12.757813-3.851563-24.921875-10.847657-34.242188-7.84375-10.460937-19.117187-16.457031-30.933593-16.457031-11.816407 0-23.089844 5.996094-30.9375 16.457031-6.988281 9.320313-10.84375 21.484375-10.84375 34.246094.003906 12.761719 3.855469 24.921875 10.847656 34.246094zm0 0"
     id="path3781"
     style="fill:#f3f2f1" />
  <path
     d="m279.859375 216.222656 124.121094 124.121094c-10.214844-63.574219-60.546875-113.90625-124.121094-124.121094zm0 0"
     id="path3783"
     style="fill:#f3f2f1" />
  <path
     d="m244.304688 177.476562c6.140624-8.1875 10.152343-18.308593 11.691406-29.199218 1.542968 10.890625 5.558594 21.011718 11.695312 29.199218 8.839844 11.785157 21.496094 18.546876 34.71875 18.546876h.003906c13.226563 0 25.882813-6.757813 34.722657-18.546876 8.003906-10.671874 12.410156-24.628906 12.410156-39.296874 0-14.667969-4.40625-28.621094-12.410156-39.292969-8.839844-11.789063-21.496094-18.550781-34.722657-18.550781-13.226562 0-25.882812 6.761718-34.722656 18.546874-6.140625 8.1875-10.152344 18.308594-11.695312 29.199219-1.539063-10.890625-5.554688-21.011719-11.691406-29.195312-8.839844-11.789063-21.496094-18.550781-34.726563-18.550781-13.222656 0-25.878906 6.761718-34.71875 18.550781-1.773437 2.367187-3.363281 4.898437-4.773437 7.5625l72.808593 72.808593c.476563-.582031.953125-1.171874 1.410157-1.78125zm0 0"
     id="path3785"
     style="fill:#f3f2f1" />
</svg>
