<?xml version="1.0" encoding="UTF-8" standalone="no"?>
<!-- Created with Inkscape (http://www.inkscape.org/) -->

<svg
   xmlns:dc="http://purl.org/dc/elements/1.1/"
   xmlns:cc="http://creativecommons.org/ns#"
   xmlns:rdf="http://www.w3.org/1999/02/22-rdf-syntax-ns#"
   xmlns:svg="http://www.w3.org/2000/svg"
   xmlns="http://www.w3.org/2000/svg"
   xmlns:sodipodi="http://sodipodi.sourceforge.net/DTD/sodipodi-0.dtd"
   xmlns:inkscape="http://www.inkscape.org/namespaces/inkscape"
   width="79mm"
   height="56mm"
   viewBox="0 0 79 56"
   version="1.1"
   id="svg8967"
   inkscape:version="0.92.0 r15299"
   sodipodi:docname="paws.svg">
  <defs
     id="defs8961" />
  <sodipodi:namedview
     id="base"
     pagecolor="#ffffff"
     bordercolor="#666666"
     borderopacity="1.0"
     inkscape:pageopacity="0.0"
     inkscape:pageshadow="2"
     inkscape:zoom="0.76095916"
     inkscape:cx="169.04947"
     inkscape:cy="53.702436"
     inkscape:document-units="mm"
     inkscape:current-layer="layer1"
     showgrid="false"
     inkscape:window-width="497"
     inkscape:window-height="453"
     inkscape:window-x="359"
     inkscape:window-y="213"
     inkscape:window-maximized="0" />
  <metadata
     id="metadata8964">
    <rdf:RDF>
      <cc:Work
         rdf:about="">
        <dc:format>image/svg+xml</dc:format>
        <dc:type
           rdf:resource="http://purl.org/dc/dcmitype/StillImage" />
        <dc:title></dc:title>
      </cc:Work>
    </rdf:RDF>
  </metadata>
  <g
     inkscape:label="Layer 1"
     inkscape:groupmode="layer"
     id="layer1"
     transform="translate(0,-241)">
    <path
       d="m 12.28311,254.69833 4.99e-4,-0.004 -4.99e-4,0.004"
       style="fill:#f2e9e0;fill-opacity:1;fill-rule:nonzero;stroke:none;stroke-width:0.03109251"
       id="path242"
       inkscape:connector-curvature="0" />
    <path
       d="m 12.477619,253.1421 -2.07e-4,-0.004 0.0031,-0.0193 -0.0033,0.0238"
       style="fill:#f2e9e0;fill-opacity:1;fill-rule:nonzero;stroke:none;stroke-width:0.03109251"
       id="path258"
       inkscape:connector-curvature="0" />
    <path
       d="m 15.942492,265.93719 c -0.04659,-0.67132 0.306691,-1.2652 0.789618,-1.32635 0.48278,-0.0611 0.912362,0.43324 0.95918,1.10452 0.04663,0.67092 -0.306642,1.26484 -0.789434,1.32587 -0.48234,0.0612 -0.912324,-0.43324 -0.95923,-1.10419"
       style="fill:#f2e9e0;fill-opacity:1;fill-rule:nonzero;stroke:none;stroke-width:0.03109251"
       id="path1386"
       inkscape:connector-curvature="0" />
    <path
       d="m 18.73379,265.4786 c -0.436571,0.0553 -0.754166,0.62077 -0.709333,1.26302 0.04483,0.64223 0.434732,1.11813 0.871814,1.06265 0.436859,-0.055 0.754648,-0.62097 0.709987,-1.26329 -0.04496,-0.64257 -0.435168,-1.11825 -0.872301,-1.06243"
       style="fill:#f2e9e0;fill-opacity:1;fill-rule:nonzero;stroke:none;stroke-width:0.03109251"
       id="path1388"
       inkscape:connector-curvature="0" />
    <path
       d="m 15.686188,267.65121 c 0.356862,-0.3118 0.288614,-0.97646 -0.152121,-1.4847 -0.440957,-0.50777 -1.087633,-0.66721 -1.444506,-0.35488 -0.356729,0.31215 -0.288622,0.97649 0.152119,1.48473 0.441117,0.50768 1.087422,0.66705 1.444502,0.35486"
       style="fill:#f2e9e0;fill-opacity:1;fill-rule:nonzero;stroke:none;stroke-width:0.03109251"
       id="path1390"
       inkscape:connector-curvature="0" />
    <path
       d="m 14.700265,268.27533 c -0.419945,-0.48259 -1.036597,-0.6331 -1.37663,-0.33681 -0.340143,0.29627 -0.27523,0.92792 0.144906,1.41009 0.420306,0.48251 1.036559,0.63305 1.376663,0.33671 0.340136,-0.29625 0.275698,-0.92774 -0.144916,-1.41007"
       style="fill:#f2e9e0;fill-opacity:1;fill-rule:nonzero;stroke:none;stroke-width:0.03109251"
       id="path1392"
       inkscape:connector-curvature="0" />
    <path
       d="m 16.378063,267.47965 -0.08355,0.0387 c 0,0 -1.547454,1.04133 -0.776537,2.95142 0.442886,1.12588 1.181404,0.21069 1.181404,0.21069 0,0 0.234636,-0.58226 0.562545,-0.73426 l 0.08005,-0.0476 c 0.328233,-0.15215 0.880385,0.0624 0.880385,0.0624 0,0 1.128707,0.0628 0.675719,-1.05927 -0.754567,-1.91769 -2.519946,-1.42211 -2.519946,-1.42211"
       style="fill:#f2e9e0;fill-opacity:1;fill-rule:nonzero;stroke:none;stroke-width:0.03109251"
       id="path1394"
       inkscape:connector-curvature="0" />
    <path
       d="m 16.844759,254.66426 c -0.04685,-0.67151 0.306415,-1.26541 0.789193,-1.32649 0.483099,-0.0612 0.911921,0.43308 0.95918,1.10454 0.04675,0.6712 -0.306525,1.2651 -0.789435,1.3259 -0.482545,0.0617 -0.91214,-0.43316 -0.958944,-1.10396"
       style="fill:#f2e9e0;fill-opacity:1;fill-rule:nonzero;stroke:none;stroke-width:0.03109251"
       id="path1396"
       inkscape:connector-curvature="0" />
    <path
       d="m 19.635925,254.2054 c -0.436563,0.0553 -0.754475,0.62089 -0.709654,1.26314 0.04496,0.64254 0.435161,1.11828 0.871924,1.06294 0.436615,-0.0556 0.75437,-0.62118 0.709983,-1.26329 -0.04495,-0.64255 -0.435525,-1.11844 -0.872257,-1.06279"
       style="fill:#f2e9e0;fill-opacity:1;fill-rule:nonzero;stroke:none;stroke-width:0.03109251"
       id="path1398"
       inkscape:connector-curvature="0" />
    <path
       d="m 16.588338,256.37797 c 0.356358,-0.3116 0.288621,-0.97647 -0.152173,-1.48433 -0.441199,-0.50838 -1.087847,-0.66733 -1.444943,-0.35501 -0.356358,0.31161 -0.288012,0.97653 0.152285,1.48464 0.440963,0.5078 1.087741,0.66608 1.444845,0.35466"
       style="fill:#f2e9e0;fill-opacity:1;fill-rule:nonzero;stroke:none;stroke-width:0.03109251"
       id="path1400"
       inkscape:connector-curvature="0" />
    <path
       d="m 15.60253,257.00238 c -0.419966,-0.48262 -1.036766,-0.63319 -1.376934,-0.33701 -0.339918,0.29586 -0.275095,0.92748 0.144796,1.4098 0.420288,0.48248 1.036068,0.63393 1.376936,0.33701 0.339682,-0.29643 0.275354,-0.92765 -0.144796,-1.40981"
       style="fill:#f2e9e0;fill-opacity:1;fill-rule:nonzero;stroke:none;stroke-width:0.03109251"
       id="path1402"
       inkscape:connector-curvature="0" />
    <path
       d="m 17.279799,256.20629 -0.08385,0.0388 c 0,0 -1.546783,1.04137 -0.776428,2.95172 0.442889,1.12587 1.181718,0.21053 1.181718,0.21053 0,0 0.234629,-0.58233 0.562866,-0.73445 l 0.07961,-0.0478 c 0.328232,-0.15215 0.880396,0.0624 0.880396,0.0624 0,0 1.128821,0.0629 0.675946,-1.05872 -0.754683,-1.91796 -2.520174,-1.42266 -2.520174,-1.42266"
       style="fill:#f2e9e0;fill-opacity:1;fill-rule:nonzero;stroke:none;stroke-width:0.03109251"
       id="path1404"
       inkscape:connector-curvature="0" />
    <path
       d="m 4.4278542,253.98543 c -0.046691,-0.67157 0.3066891,-1.26519 0.789684,-1.32668 0.482768,-0.0611 0.9117983,0.43304 0.9588605,1.10469 0.046854,0.6715 -0.3065275,1.2651 -0.789766,1.32602 -0.4821995,0.0615 -0.9118984,-0.43307 -0.9589423,-1.10397"
       style="fill:#f2e9e0;fill-opacity:1;fill-rule:nonzero;stroke:none;stroke-width:0.03109251"
       id="path1406"
       inkscape:connector-curvature="0" />
    <path
       d="m 7.21914,253.52687 c -0.4363612,0.0548 -0.7544781,0.62088 -0.7096597,1.26315 0.044844,0.64225 0.4354129,1.11815 0.8722509,1.06278 0.4366261,-0.0556 0.7543842,-0.62118 0.709538,-1.26344 -0.044945,-0.64254 -0.4352779,-1.11856 -0.8721333,-1.0625"
       style="fill:#f2e9e0;fill-opacity:1;fill-rule:nonzero;stroke:none;stroke-width:0.03109251"
       id="path1408"
       inkscape:connector-curvature="0" />
    <path
       d="m 4.1715474,255.69945 c 0.3567239,-0.31213 0.2886539,-0.97645 -0.1520085,-1.48442 -0.4407566,-0.50826 -1.0880196,-0.66742 -1.4449395,-0.355 -0.3565402,0.31166 -0.2886546,0.97646 0.1522729,1.48464 0.4411191,0.50769 1.0874315,0.66705 1.4445088,0.35487"
       style="fill:#f2e9e0;fill-opacity:1;fill-rule:nonzero;stroke:none;stroke-width:0.03109251"
       id="path1410"
       inkscape:connector-curvature="0" />
    <path
       d="m 3.185908,256.32343 c -0.4202686,-0.48243 -1.0368828,-0.63291 -1.3767817,-0.33707 -0.3406294,0.29649 -0.2751571,0.92817 0.1447037,1.41053 0.4199538,0.48263 1.0365452,0.63307 1.3763376,0.33694 0.3405046,-0.29682 0.275695,-0.92778 -0.1444283,-1.41033"
       style="fill:#f2e9e0;fill-opacity:1;fill-rule:nonzero;stroke:none;stroke-width:0.03109251"
       id="path1412"
       inkscape:connector-curvature="0" />
    <path
       d="m 4.8632941,255.52764 -0.083557,0.0388 c 0,0 -1.5474588,1.04132 -0.7764142,2.95169 0.442888,1.12588 1.1812731,0.21038 1.1812731,0.21038 0,0 0.234743,-0.58203 0.5626503,-0.73401 l 0.080054,-0.0476 c 0.3279096,-0.152 0.879966,0.0623 0.879966,0.0623 0,0 1.1291518,0.0628 0.6758292,-1.05902 -0.754403,-1.91773 -2.5197833,-1.42249 -2.5197833,-1.42249"
       style="fill:#f2e9e0;fill-opacity:1;fill-rule:nonzero;stroke:none;stroke-width:0.03109251"
       id="path1414"
       inkscape:connector-curvature="0" />
    <path
       d="m 6.9396545,242.99287 c -0.046759,-0.67124 0.3065304,-1.26512 0.7892978,-1.3262 0.482995,-0.0616 0.9121148,0.43316 0.9593432,1.10445 0.046596,0.67132 -0.306689,1.26519 -0.7897602,1.32603 -0.4826673,0.0614 -0.9121147,-0.43316 -0.9590653,-1.10427"
       style="fill:#f2e9e0;fill-opacity:1;fill-rule:nonzero;stroke:none;stroke-width:0.03109251"
       id="path1416"
       inkscape:connector-curvature="0" />
    <path
       d="m 9.7310457,242.5346 c -0.4367749,0.0546 -0.7547085,0.62031 -0.7097385,1.26289 0.045122,0.64249 0.4351635,1.11826 0.8719225,1.06295 0.4369323,-0.0557 0.7549703,-0.62114 0.7103053,-1.26346 -0.04497,-0.64257 -0.435843,-1.11831 -0.8722973,-1.06243"
       style="fill:#f2e9e0;fill-opacity:1;fill-rule:nonzero;stroke:none;stroke-width:0.03109251"
       id="path1418"
       inkscape:connector-curvature="0" />
    <path
       d="m 6.6834586,244.70718 c 0.3561453,-0.31215 0.2885266,-0.97679 -0.1522735,-1.48463 -0.4410847,-0.50811 -1.0876324,-0.6672 -1.4447553,-0.35537 -0.3564054,0.312 -0.2882027,0.97665 0.1521088,1.48472 0.4410984,0.50808 1.0876376,0.66721 1.4450715,0.35525"
       style="fill:#f2e9e0;fill-opacity:1;fill-rule:nonzero;stroke:none;stroke-width:0.03109251"
       id="path1420"
       inkscape:connector-curvature="0" />
    <path
       d="m 5.697423,245.331 c -0.4199744,-0.48264 -1.0365622,-0.63304 -1.3768087,-0.33664 -0.3398182,0.29611 -0.2750641,0.92743 0.1449056,1.41009 0.4203027,0.48251 1.0360721,0.63393 1.3767084,0.33641 0.3399212,-0.29586 0.2754965,-0.92734 -0.144801,-1.4098"
       style="fill:#f2e9e0;fill-opacity:1;fill-rule:nonzero;stroke:none;stroke-width:0.03109251"
       id="path1422"
       inkscape:connector-curvature="0" />
    <path
       d="m 7.3749367,244.53548 -0.083884,0.0389 c 0,0 -1.5469993,1.04085 -0.7765322,2.95143 0.4430038,1.12617 1.1817194,0.21053 1.1817194,0.21053 0,0 0.2346354,-0.58228 0.5628718,-0.73443 l 0.07962,-0.0478 c 0.3282292,-0.15214 0.880383,0.0624 0.880383,0.0624 0,0 1.1289633,0.0631 0.6758091,-1.05904 -0.7546842,-1.91796 -2.5199449,-1.42209 -2.5199449,-1.42209"
       style="fill:#f2e9e0;fill-opacity:1;fill-rule:nonzero;stroke:none;stroke-width:0.03109251"
       id="path1424"
       inkscape:connector-curvature="0" />
    <path
       d="m 27.320281,280.24055 c -0.04659,-0.67133 0.306699,-1.2652 0.789632,-1.32638 0.482775,-0.0612 0.912358,0.43325 0.959171,1.10454 0.04663,0.67092 -0.306639,1.26484 -0.789433,1.32586 -0.48234,0.0612 -0.91233,-0.43322 -0.959234,-1.10417"
       style="fill:#f2e9e0;fill-opacity:1;fill-rule:nonzero;stroke:none;stroke-width:0.03109251"
       id="path1386-6"
       inkscape:connector-curvature="0" />
    <path
       d="m 30.111581,279.78196 c -0.436567,0.0553 -0.754159,0.62076 -0.709327,1.263 0.04483,0.64224 0.434723,1.11815 0.871807,1.06267 0.436857,-0.055 0.754645,-0.62097 0.709989,-1.26329 -0.04496,-0.64258 -0.435161,-1.11828 -0.872293,-1.06245"
       style="fill:#f2e9e0;fill-opacity:1;fill-rule:nonzero;stroke:none;stroke-width:0.03109251"
       id="path1388-4"
       inkscape:connector-curvature="0" />
    <path
       d="m 27.063977,281.95456 c 0.356867,-0.31181 0.28862,-0.97647 -0.152112,-1.48471 -0.440961,-0.50777 -1.087636,-0.6672 -1.444508,-0.35488 -0.356727,0.31213 -0.288614,0.97646 0.152121,1.48471 0.44112,0.50768 1.087419,0.66706 1.444502,0.35487"
       style="fill:#f2e9e0;fill-opacity:1;fill-rule:nonzero;stroke:none;stroke-width:0.03109251"
       id="path1390-7"
       inkscape:connector-curvature="0" />
    <path
       d="m 26.078061,282.57867 c -0.419949,-0.48257 -1.036594,-0.6331 -1.376631,-0.33681 -0.340138,0.29626 -0.275237,0.92794 0.144907,1.41009 0.4203,0.48252 1.036558,0.63306 1.37666,0.33672 0.340137,-0.29626 0.275699,-0.92774 -0.144909,-1.41009"
       style="fill:#f2e9e0;fill-opacity:1;fill-rule:nonzero;stroke:none;stroke-width:0.03109251"
       id="path1392-7"
       inkscape:connector-curvature="0" />
    <path
       d="m 27.755852,281.78302 -0.0836,0.0387 c 0,0 -1.547454,1.04132 -0.776533,2.95141 0.442884,1.12589 1.181399,0.2107 1.181399,0.2107 0,0 0.234639,-0.58229 0.562546,-0.73428 l 0.08004,-0.0476 c 0.328232,-0.15214 0.880386,0.0624 0.880386,0.0624 0,0 1.128708,0.0628 0.675713,-1.05927 -0.754561,-1.91767 -2.51994,-1.4221 -2.51994,-1.4221"
       style="fill:#f2e9e0;fill-opacity:1;fill-rule:nonzero;stroke:none;stroke-width:0.03109251"
       id="path1394-6"
       inkscape:connector-curvature="0" />
    <path
       d="m 28.222552,268.9676 c -0.04685,-0.67151 0.306418,-1.26542 0.789192,-1.32648 0.483099,-0.0612 0.911921,0.43308 0.959181,1.10454 0.04674,0.67122 -0.306524,1.2651 -0.789431,1.32589 -0.482553,0.0617 -0.912141,-0.43316 -0.958948,-1.10395"
       style="fill:#f2e9e0;fill-opacity:1;fill-rule:nonzero;stroke:none;stroke-width:0.03109251"
       id="path1396-5"
       inkscape:connector-curvature="0" />
    <path
       d="m 31.013718,268.50875 c -0.436567,0.0553 -0.754476,0.62089 -0.709648,1.26312 0.04494,0.64257 0.435161,1.11829 0.871918,1.06298 0.436622,-0.0556 0.75437,-0.6212 0.709982,-1.26331 -0.04493,-0.64255 -0.435522,-1.11845 -0.872255,-1.06279"
       style="fill:#f2e9e0;fill-opacity:1;fill-rule:nonzero;stroke:none;stroke-width:0.03109251"
       id="path1398-7"
       inkscape:connector-curvature="0" />
    <path
       d="m 27.966128,270.68134 c 0.356365,-0.31162 0.288622,-0.97649 -0.152166,-1.48436 -0.441201,-0.50837 -1.087845,-0.66733 -1.444945,-0.355 -0.356363,0.31162 -0.288022,0.97657 0.152284,1.48464 0.440966,0.5078 1.08774,0.66609 1.444844,0.35466"
       style="fill:#f2e9e0;fill-opacity:1;fill-rule:nonzero;stroke:none;stroke-width:0.03109251"
       id="path1400-3"
       inkscape:connector-curvature="0" />
    <path
       d="m 26.980322,271.30573 c -0.419966,-0.48262 -1.036766,-0.63319 -1.376932,-0.337 -0.339921,0.29585 -0.275094,0.92747 0.144784,1.40982 0.420301,0.48245 1.036075,0.63392 1.376936,0.337 0.339696,-0.29646 0.275355,-0.92765 -0.144788,-1.40982"
       style="fill:#f2e9e0;fill-opacity:1;fill-rule:nonzero;stroke:none;stroke-width:0.03109251"
       id="path1402-7"
       inkscape:connector-curvature="0" />
    <path
       d="m 28.6576,270.50962 -0.08387,0.0389 c 0,0 -1.546775,1.04135 -0.776424,2.9517 0.442888,1.12588 1.181714,0.21054 1.181714,0.21054 0,0 0.234632,-0.58233 0.562869,-0.73446 l 0.07962,-0.0478 c 0.328226,-0.15213 0.880392,0.0624 0.880392,0.0624 0,0 1.128835,0.0628 0.675938,-1.05872 -0.754675,-1.91797 -2.520169,-1.42266 -2.520169,-1.42266"
       style="fill:#f2e9e0;fill-opacity:1;fill-rule:nonzero;stroke:none;stroke-width:0.03109251"
       id="path1404-9"
       inkscape:connector-curvature="0" />
    <path
       d="m 39.031936,291.87378 c -0.04659,-0.67133 0.306688,-1.2652 0.789628,-1.32637 0.482777,-0.0611 0.912361,0.43325 0.959174,1.10455 0.04663,0.67089 -0.30664,1.26482 -0.789435,1.32585 -0.482337,0.0612 -0.912327,-0.43324 -0.959232,-1.10418"
       style="fill:#f2e9e0;fill-opacity:1;fill-rule:nonzero;stroke:none;stroke-width:0.03109251"
       id="path1386-6-8"
       inkscape:connector-curvature="0" />
    <path
       d="m 41.823233,291.4152 c -0.436564,0.0553 -0.754158,0.62075 -0.709323,1.26299 0.04482,0.64225 0.434722,1.11814 0.871804,1.06267 0.43686,-0.055 0.754648,-0.62098 0.709989,-1.26329 -0.04496,-0.64257 -0.435162,-1.11827 -0.872293,-1.06244"
       style="fill:#f2e9e0;fill-opacity:1;fill-rule:nonzero;stroke:none;stroke-width:0.03109251"
       id="path1388-4-3"
       inkscape:connector-curvature="0" />
    <path
       d="m 38.775631,293.58779 c 0.356866,-0.3118 0.288617,-0.97646 -0.152113,-1.48471 -0.440962,-0.50775 -1.087638,-0.66719 -1.444508,-0.35488 -0.356725,0.31213 -0.288613,0.97646 0.15212,1.48472 0.44112,0.50768 1.08742,0.66707 1.444503,0.35486"
       style="fill:#f2e9e0;fill-opacity:1;fill-rule:nonzero;stroke:none;stroke-width:0.03109251"
       id="path1390-7-7"
       inkscape:connector-curvature="0" />
    <path
       d="m 37.789714,294.2119 c -0.419946,-0.48259 -1.036592,-0.6331 -1.376632,-0.3368 -0.340136,0.29625 -0.275234,0.92793 0.144911,1.41009 0.420297,0.48251 1.036554,0.63306 1.37666,0.33671 0.340132,-0.29624 0.275699,-0.92775 -0.144913,-1.41008"
       style="fill:#f2e9e0;fill-opacity:1;fill-rule:nonzero;stroke:none;stroke-width:0.03109251"
       id="path1392-7-9"
       inkscape:connector-curvature="0" />
    <path
       d="m 39.467505,293.41625 -0.08362,0.0388 c 0,0 -1.547457,1.04134 -0.776531,2.95141 0.442882,1.1259 1.181399,0.2107 1.181399,0.2107 0,0 0.234636,-0.58227 0.562545,-0.73427 l 0.08004,-0.0476 c 0.328228,-0.15213 0.880384,0.0624 0.880384,0.0624 0,0 1.128707,0.0628 0.675715,-1.05927 -0.75456,-1.9177 -2.519942,-1.42211 -2.519942,-1.42211"
       style="fill:#f2e9e0;fill-opacity:1;fill-rule:nonzero;stroke:none;stroke-width:0.03109251"
       id="path1394-6-0"
       inkscape:connector-curvature="0" />
    <path
       d="m 39.934204,280.60083 c -0.04685,-0.67149 0.306418,-1.2654 0.789192,-1.32647 0.483101,-0.0612 0.911925,0.43307 0.959184,1.10452 0.04674,0.67122 -0.306526,1.26511 -0.789433,1.32591 -0.482554,0.0617 -0.91214,-0.43317 -0.958948,-1.10397"
       style="fill:#f2e9e0;fill-opacity:1;fill-rule:nonzero;stroke:none;stroke-width:0.03109251"
       id="path1396-5-4"
       inkscape:connector-curvature="0" />
    <path
       d="m 42.725372,280.14198 c -0.436567,0.0553 -0.754478,0.6209 -0.709649,1.26314 0.04494,0.64256 0.435159,1.11828 0.871921,1.06294 0.436617,-0.0555 0.754367,-0.62117 0.709981,-1.2633 -0.04494,-0.64254 -0.435524,-1.11843 -0.872257,-1.06278"
       style="fill:#f2e9e0;fill-opacity:1;fill-rule:nonzero;stroke:none;stroke-width:0.03109251"
       id="path1398-7-9"
       inkscape:connector-curvature="0" />
    <path
       d="m 39.677785,282.31455 c 0.356361,-0.31159 0.288617,-0.97647 -0.15217,-1.48434 -0.4412,-0.50836 -1.087846,-0.66732 -1.444946,-0.355 -0.356361,0.31162 -0.288023,0.97657 0.152282,1.48465 0.440965,0.5078 1.087743,0.66608 1.444845,0.35465"
       style="fill:#f2e9e0;fill-opacity:1;fill-rule:nonzero;stroke:none;stroke-width:0.03109251"
       id="path1400-3-5"
       inkscape:connector-curvature="0" />
    <path
       d="m 38.691973,282.93896 c -0.419964,-0.48261 -1.036762,-0.63319 -1.376931,-0.33699 -0.339925,0.29587 -0.275096,0.92747 0.144785,1.40981 0.420297,0.48247 1.036072,0.63394 1.376934,0.33702 0.339693,-0.29646 0.275353,-0.92764 -0.144791,-1.40983"
       style="fill:#f2e9e0;fill-opacity:1;fill-rule:nonzero;stroke:none;stroke-width:0.03109251"
       id="path1402-7-5"
       inkscape:connector-curvature="0" />
    <path
       d="m 40.369251,282.14287 -0.08384,0.0388 c 0,0 -1.54678,1.04136 -0.776426,2.9517 0.442888,1.12588 1.181715,0.21053 1.181715,0.21053 0,0 0.234628,-0.58232 0.562865,-0.73444 l 0.07962,-0.0478 c 0.328227,-0.15214 0.880393,0.0624 0.880393,0.0624 0,0 1.128823,0.0629 0.675937,-1.05871 -0.754672,-1.91798 -2.520171,-1.42267 -2.520171,-1.42267"
       style="fill:#f2e9e0;fill-opacity:1;fill-rule:nonzero;stroke:none;stroke-width:0.03109251"
       id="path1404-9-8"
       inkscape:connector-curvature="0" />
  </g>
</svg>
